<svg fill="none" height="1024" viewBox="0 0 1440 1024" width="1440" xmlns="http://www.w3.org/2000/svg" xmlns:xlink="http://www.w3.org/1999/xlink" style=""><linearGradient id="a"><stop offset="0" stop-color="#1ecadc"></stop><stop offset="1" stop-color="#ddd" stop-opacity="0"></stop></linearGradient><linearGradient id="b" gradientUnits="userSpaceOnUse" x1="693.85" x2="668.337" xlink:href="#a" y1="175.939" y2="189.303"></linearGradient><linearGradient id="c" gradientUnits="userSpaceOnUse" x1="260.943" x2="583.828" xlink:href="#a" y1="468.796" y2="8.40899"></linearGradient><linearGradient id="d" gradientUnits="userSpaceOnUse" x1="963.431" x2="683.798" xlink:href="#a" y1="835.719" y2="584.778"></linearGradient><g stroke-dasharray="5 10" stroke-linecap="square" stroke-width="2"><path d="m1111.57 304.423c.54 2.568.88 5.152 1.02 7.753l-.99.036.04.999c.03.804.04 1.609.03 2.415-.01.807-.04 1.612-.08 2.414l-.06.999.98.058c-.2 2.596-.6 5.173-1.19 7.728l-.96-.241-.25.969c-.39 1.547-.85 3.087-1.38 4.618l-.32.945.93.325c-.88 2.409-1.93 4.796-3.15 7.161l-.87-.468-.47.882c-.75 1.406-1.57 2.804-2.44 4.195l-.53.848.85.527c-1.38 2.14-2.9 4.261-4.55 6.359l-.78-.623-.62.779c-1.01 1.256-2.07 2.505-3.18 3.747l-.67.745.74.663c-1.71 1.882-3.53 3.744-5.46 5.587l-.69-.726-.72.685c-1.17 1.091-2.36 2.174-3.6 3.251l-.75.657.65.751c-1.94 1.664-3.97 3.311-6.08 4.94l-.6-.794-.8.606c-1.29.98-2.61 1.954-3.96 2.921l-.81.582.58.811c-2.1 1.482-4.27 2.948-6.51 4.397l-.54-.84-.84.539c-1.34.859-2.71 1.713-4.1 2.561l-.86.52.52.852c-2.2 1.326-4.46 2.636-6.78 3.932l-.49-.874-.87.484c-1.42.785-2.86 1.564-4.32 2.337l-.89.467.47.883c-2.28 1.191-4.6 2.368-6.98 3.53l-.43-.898-.9.437c-1.48.716-2.97 1.427-4.49 2.133l-.9.422.42.905c-2.33 1.075-4.7 2.137-7.11 3.185l-.39-.917-.92.396c-1.5.644-3.01 1.284-4.53 1.918l-.93.384.38.922c-2.38.984-4.81 1.955-7.27 2.913l-.36-.932-.93.36c-1.51.583-3.04 1.161-4.57 1.735l-.94.349.35.936c-2.43.9-4.9 1.789-7.404 2.665l-.328-.944-.945.328c-1.523.53-3.059 1.056-4.607 1.576l-.948.319.318.947c-2.467.823-4.965 1.635-7.493 2.436l-.299-.954-.954.3c-1.538.484-3.087.963-4.647 1.437l-.957.291.291.956c-2.492.753-5.011 1.495-7.557 2.224l-.273-.961-.962.274c-1.553.443-3.117.881-4.69 1.315l-.964.265.265.964c-2.508.686-5.041 1.362-7.598 2.027l-.25-.967-.968.25c-1.57.405-3.149.806-4.737 1.203l-.97.243.242.969c-2.52.626-5.062 1.24-7.626 1.845l-.228-.973-.973.227c-1.587.372-3.183.739-4.786 1.102l-.976.221.221.975c-2.527.568-5.074 1.126-7.641 1.673l-.207-.977-.978.207c-1.605.34-3.218.675-4.838 1.007l-.98.201.201.979c-2.531.514-5.081 1.018-7.648 1.513l-.188-.982-.982.188c-1.614.308-3.234.613-4.862.913l-.983.181.181.983c-2.542.466-5.101.921-7.676 1.367l-.169-.985-.986.169c-1.613.277-3.234.551-4.86.82l-.987.163.164.986c-2.56.421-5.136.832-7.726 1.232l-.152-.987-.988.151c-1.613.248-3.232.492-4.857.731l-.989.146.146.989c-2.577.378-5.169.745-7.774 1.103l-.135-.99-.991.135c-1.611.219-3.228.435-4.851.646l-.991.13.129.991c-2.593.336-5.2.662-7.82.978l-.118-.993-.993.119c-1.61.193-3.225.381-4.844.566l-.994.114.113.993c-2.586.293-5.185.576-7.796.849l-.104-.994-.994.103c-1.63.169-3.264.335-4.903.496l-.995.098.098.995c-2.58.251-5.171.493-7.772.726l-.088-.996-.996.088c-1.635.145-3.273.286-4.916.422l-.996.084.083.996c-2.587.213-5.185.416-7.793.611l-.073-.997-.997.073c-1.63.12-3.264.236-4.902.349l-.997.068.068.997c-2.602.177-5.214.343-7.836.501l-.059-.998-.998.059c-1.626.096-3.255.188-4.888.277l-.998.054.054.998c-2.608.139-5.225.269-7.85.39l-.045-.999-.999.045c-1.63.073-3.264.143-4.9.209l-.999.04.04.999c-2.598.102-5.204.195-7.818.279l-.031-.999-1 .031c-1.641.051-3.285.098-4.931.142l-1 .027.026.999c-2.596.066-5.2.124-7.811.172l-.017-1-1 .018c-1.636.029-3.274.054-4.915.075l-1 .013.013.999c-2.609.032-5.225.054-7.848.067l-.004-.999-1 .004c-1.631.007-3.264.01-4.899.009h-1l-.001.999c-2.611-.003-5.228-.015-7.851-.037l.009-1-1-.009c-.822-.007-1.646-.016-2.469-.025-.824-.01-1.647-.02-2.47-.031l-1-.014-.013 1c-2.623-.038-5.24-.085-7.851-.142l.023-.999-1-.022c-1.635-.037-3.267-.077-4.897-.121l-1-.027-.027.999c-2.622-.073-5.237-.155-7.845-.246l.036-.999-1-.036c-1.64-.058-3.277-.121-4.911-.187l-.999-.04-.041.999c-2.609-.108-5.211-.224-7.805-.35l.049-.998-.999-.05c-1.645-.081-3.287-.166-4.927-.254l-.998-.054-.054.998c-2.611-.143-5.215-.296-7.81-.457l.063-.998-.998-.063c-1.634-.103-3.266-.21-4.894-.32l-.997-.068-.068.997c-2.622-.18-5.235-.369-7.839-.568l.077-.997-.997-.077c-1.631-.125-3.257-.255-4.881-.388l-.996-.082-.082.996c-2.617-.217-5.225-.443-7.823-.678l.092-.996-.996-.091c-1.635-.15-3.265-.303-4.892-.46l-.996-.096-.096.995c-2.602-.254-5.194-.517-7.776-.789l.105-.994-.994-.105c-1.639-.175-3.274-.353-4.904-.534l-.994-.111-.111.993c-2.595-.292-5.18-.593-7.753-.903l.121-.992-.993-.121c-1.635-.199-3.265-.401-4.89-.607l-.993-.126-.125.992c-2.604-.333-5.196-.676-7.776-1.027l.136-.991-.99-.136c-1.615-.222-3.225-.447-4.831-.676l-.989-.142-.142.99c-2.612-.376-5.21-.761-7.795-1.156l.152-.988-.989-.152c-1.617-.249-3.228-.501-4.834-.757l-.988-.158-.157.987c-2.597-.417-5.179-.843-7.747-1.279l.168-.985-.986-.169c-1.618-.277-3.231-.557-4.838-.842l-.985-.174-.174.984c-2.581-.459-5.146-.929-7.696-1.408l.186-.982-.983-.185c-1.619-.307-3.233-.617-4.84-.931l-.981-.191-.192.981c-2.564-.505-5.112-1.019-7.643-1.542l.204-.978-.979-.204c-1.62-.337-3.234-.679-4.84-1.024l-.978-.21-.21.977c-2.555-.552-5.092-1.115-7.611-1.687l.223-.974-.975-.223c-1.612-.368-3.217-.741-4.813-1.117l-.974-.23-.229.973c-2.554-.606-5.088-1.221-7.601-1.847l.243-.969-.97-.243c-1.595-.4-3.182-.804-4.76-1.211l-.968-.25-.25.967c-2.55-.662-5.077-1.335-7.582-2.017l.265-.964-.965-.265c-1.578-.433-3.148-.87-4.708-1.311l-.962-.272-.272.962c-2.542-.723-5.059-1.456-7.551-2.2l.288-.957-.958-.288c-1.563-.469-3.116-.943-4.659-1.421l-.955-.296-.296.955c-2.528-.788-5.03-1.586-7.503-2.396l.312-.949-.95-.313c-1.548-.51-3.086-1.024-4.613-1.542l-.947-.322-.321.946c-2.509-.857-4.988-1.726-7.435-2.606l.34-.939-.941-.34c-1.536-.556-3.059-1.116-4.57-1.681l-.937-.349-.35.935c-2.48-.932-4.927-1.877-7.339-2.833l.37-.927-.929-.371c-1.524-.608-3.034-1.221-4.53-1.838l-.924-.381-.381.923c-2.441-1.014-4.844-2.04-7.207-3.078l.404-.913-.915-.405c-1.512-.669-3.009-1.342-4.488-2.021l-.909-.417-.416.908c-2.388-1.103-4.733-2.218-7.033-3.346l.442-.895-.896-.443c-1.498-.739-2.976-1.484-4.435-2.234l-.889-.457-.457.888c-2.348-1.217-4.645-2.447-6.891-3.689l.486-.872-.873-.487c-1.445-.806-2.868-1.618-4.269-2.435l-.864-.503-.502.862c-2.291-1.348-4.523-2.71-6.693-4.086l.538-.84-.842-.539c-1.374-.879-2.722-1.764-4.045-2.654l-.83-.558-.557.828c-2.206-1.5-4.341-3.015-6.403-4.545l.598-.797-.8-.601c-1.329-.997-2.627-2.001-3.893-3.01l-.782-.624-.621.78c-2.076-1.677-4.065-3.369-5.966-5.077l.672-.736-.739-.674c-1.212-1.105-2.386-2.216-3.521-3.332l-.713-.701-.699.71c-1.887-1.887-3.667-3.79-5.337-5.71l.757-.646-.649-.761c-1.08-1.266-2.112-2.539-3.094-3.818l-.609-.793-.789.605c-1.603-2.135-3.071-4.29-4.401-6.461l.854-.508-.511-.859c-.839-1.41-1.617-2.827-2.336-4.249l-.451-.893-.886.448c-1.164-2.392-2.161-4.803-2.987-7.231l.944-.303-.305-.953c-.496-1.543-.921-3.093-1.274-4.648l-.221-.975-.966.219c-.534-2.568-.876-5.152-1.021-7.753l.99-.036-.037-.999c-.029-.804-.039-1.609-.03-2.415.009-.807.038-1.612.085-2.414l.059-.999-.988-.058c.204-2.596.605-5.173 1.197-7.728l.961.241.243-.969c.389-1.547.849-3.087 1.38-4.618l.327-.945-.937-.325c.881-2.408 1.933-4.796 3.151-7.161l.876.468.471-.882c.75-1.406 1.561-2.804 2.432-4.195l.53-.848-.842-.527c1.379-2.14 2.896-4.261 4.547-6.359l.775.623.627-.779c1.011-1.256 2.072-2.505 3.18-3.747l.667-.745-.743-.663c1.714-1.882 3.537-3.744 5.467-5.587l.682.726.728-.685c1.161-1.09 2.36-2.174 3.596-3.251l.754-.657-.654-.751c1.939-1.664 3.966-3.311 6.08-4.94l.603.794.796-.606c1.289-.98 2.609-1.954 3.961-2.921l.813-.582-.58-.811c2.096-1.482 4.265-2.948 6.505-4.397l.538.84.842-.539c1.343-.859 2.712-1.713 4.105-2.561l.854-.519-.518-.853c2.201-1.326 4.463-2.636 6.784-3.932l.483.874.875-.484c1.419-.785 2.86-1.564 4.323-2.337l.884-.467-.466-.883c2.273-1.191 4.598-2.368 6.973-3.53l.436.898.9-.437c1.476-.716 2.971-1.427 4.485-2.133l.906-.422-.422-.905c2.326-1.075 4.695-2.137 7.107-3.185l.395.917.919-.396c1.494-.644 3.006-1.284 4.533-1.918l.924-.384-.383-.922c2.386-.984 4.812-1.955 7.275-2.913l.36.932.933-.36c1.509-.583 3.033-1.161 4.57-1.734l.937-.35-.349-.936c2.434-.9 4.901-1.789 7.402-2.664l.329.943.944-.328c1.524-.53 3.06-1.055 4.608-1.576l.948-.319-.319-.947c2.467-.823 4.965-1.635 7.493-2.435l.3.953.954-.3c1.538-.484 3.087-.963 4.647-1.437l.957-.291-.291-.956c2.491-.753 5.01-1.494 7.556-2.224l.274.961.961-.274c1.554-.443 3.117-.881 4.691-1.315l.964-.265-.266-.964c2.508-.686 5.042-1.362 7.599-2.027l.25.967.968-.25c1.57-.405 3.149-.806 4.737-1.203l.97-.242-.242-.97c2.519-.625 5.061-1.24 7.625-1.844l.228.972.974-.227c1.587-.372 3.182-.739 4.786-1.102l.975-.221-.22-.975c2.527-.568 5.074-1.126 7.641-1.673l.207.977.978-.207c1.605-.34 3.218-.675 4.838-1.007l.979-.201-.2-.979c2.531-.514 5.08-1.018 7.648-1.513l.187.982.982-.188c1.614-.308 3.235-.612 4.863-.913l.983-.181-.181-.983c2.542-.466 5.1-.921 7.675-1.367l.17.985.985-.169c1.614-.277 3.234-.551 4.861-.82l.986-.163-.163-.986c2.56-.421 5.135-.832 7.726-1.232l.151.988.989-.152c1.613-.248 3.232-.492 4.856-.731l.989-.146-.145-.989c2.577-.378 5.168-.745 7.774-1.103l.134.99.991-.135c1.612-.219 3.229-.435 4.851-.646l.992-.13-.13-.991c2.594-.336 5.2-.662 7.82-.978l.119.993.993-.119c1.61-.193 3.224-.381 4.844-.566l.994-.114-.114-.993c2.587-.293 5.186-.576 7.797-.849l.103.994.995-.103c1.629-.169 3.264-.335 4.903-.496l.995-.098-.098-.995c2.58-.251 5.17-.493 7.772-.726l.088.996.996-.088c1.634-.145 3.273-.285 4.915-.422l.997-.083-.083-.997c2.587-.213 5.185-.416 7.792-.611l.074.997.997-.073c1.63-.12 3.264-.236 4.901-.349l.998-.068-.069-.997c2.603-.177 5.215-.343 7.836-.501l.059.998.999-.059c1.625-.096 3.255-.188 4.887-.277l.999-.054-.054-.998c2.608-.139 5.224-.269 7.85-.39l.045.999.999-.045c1.63-.073 3.263-.143 4.9-.209l.999-.04-.04-.999c2.598-.102 5.204-.195 7.818-.279l.031.999.999-.031c1.641-.051 3.285-.098 4.932-.142l1-.027-.027-.999c2.596-.066 5.2-.124 7.811-.172l.018 1 1-.018c1.635-.029 3.273-.054 4.914-.075l1-.013-.013-.999c2.61-.032 5.226-.054 7.849-.067l.004.999 1-.004c1.63-.007 3.264-.01 4.899-.009h1v-.999c2.611.003 5.228.015 7.852.037l-.01 1 1 .009c.823.007 1.646.016 2.47.025.824.01 1.647.02 2.469.031l1 .014.014-1c2.623.038 5.24.086 7.85.142l-.022.999.999.023c1.635.036 3.268.077 4.898.12l1 .027.026-.999c2.622.073 5.237.155 7.845.246l-.035.999.999.036c1.64.058 3.277.121 4.912.187l.999.04.04-.999c2.609.108 5.211.225 7.806.35l-.05.999.999.049c1.646.081 3.288.166 4.927.254l.999.054.053-.998c2.612.143 5.215.296 7.81.457l-.063.998.998.063c1.635.103 3.266.21 4.894.32l.998.068.068-.997c2.621.18 5.235.369 7.839.568l-.077.997.997.077c1.63.126 3.257.255 4.88.388l.997.082.081-.996c2.618.217 5.225.443 7.823.678l-.091.996.996.091c1.634.15 3.265.303 4.892.46l.995.096.096-.995c2.603.254 5.195.517 7.777.789l-.106.994.994.105c1.64.175 3.274.353 4.905.534l.994.111.11-.993c2.596.292 5.18.593 7.754.903l-.121.992.993.121c1.634.199 3.265.401 4.89.607l.992.126.126-.992c2.604.333 5.196.676 7.775 1.027l-.136.991.991.136c1.615.222 3.225.447 4.83.676l.99.142.141-.99c2.612.376 5.211.761 7.796 1.156l-.152.988.988.152c1.617.249 3.229.501 4.835.757l.988.158.157-.987c2.597.417 5.179.843 7.747 1.279l-.169.985.986.169c1.619.277 3.232.557 4.838.842l.985.174.174-.984c2.581.459 5.146.929 7.696 1.408l-.186.982.983.185c1.62.307 3.233.617 4.84.931l.982.191.192-.98c2.564.504 5.111 1.018 7.642 1.541l-.203.978.979.204c1.62.338 3.233.679 4.84 1.024l.977.21.21-.977c2.556.552 5.093 1.115 7.611 1.687l-.222.974.975.223c1.612.368 3.216.741 4.813 1.117l.973.23.23-.973c2.553.606 5.087 1.221 7.6 1.847l-.242.97.97.243c1.595.399 3.181.803 4.76 1.21l.968.25.25-.967c2.549.662 5.077 1.335 7.581 2.018l-.264.963.964.265c1.579.433 3.148.87 4.709 1.311l.962.272.272-.962c2.541.723 5.058 1.457 7.55 2.2l-.287.957.957.288c1.564.47 3.117.943 4.66 1.421l.955.296.295-.955c2.529.788 5.03 1.587 7.504 2.396l-.313.949.95.313c1.549.51 3.087 1.024 4.613 1.542l.947.322.322-.946c2.509.857 4.987 1.726 7.435 2.606l-.34.939.94.34c1.536.556 3.06 1.116 4.571 1.681l.936.35.35-.936c2.48.932 4.93 1.877 7.34 2.833l-.37.927.93.371c1.52.608 3.03 1.221 4.53 1.838l.92.381.38-.923c2.44 1.014 4.85 2.04 7.21 3.078l-.4.913.91.405c1.51.669 3.01 1.342 4.49 2.021l.91.417.42-.908c2.38 1.103 4.73 2.218 7.03 3.346l-.44.895.89.443c1.5.739 2.98 1.484 4.44 2.234l.89.457.45-.888c2.35 1.217 4.65 2.447 6.89 3.689l-.48.872.87.487c1.45.807 2.87 1.618 4.27 2.435l.86.503.51-.862c2.29 1.348 4.52 2.71 6.69 4.086l-.54.84.84.539c1.38.88 2.73 1.764 4.05 2.654l.83.558.55-.827c2.21 1.499 4.35 3.014 6.41 4.544l-.6.797.8.601c1.33.997 2.63 2.001 3.89 3.01l.78.624.63-.78c2.07 1.677 4.06 3.369 5.96 5.077l-.67.736.74.674c1.21 1.105 2.38 2.216 3.52 3.332l.71.701.7-.71c1.89 1.887 3.67 3.79 5.34 5.71l-.76.646.65.761c1.08 1.266 2.11 2.539 3.09 3.818l.61.793.79-.605c1.61 2.135 3.07 4.29 4.4 6.461l-.85.508.51.859c.84 1.41 1.62 2.827 2.34 4.249l.45.893.88-.448c1.17 2.392 2.16 4.803 2.99 7.231l-.94.303.3.953c.5 1.543.92 3.093 1.28 4.648l.22.975z" stroke="url(#b)" class="XvesEHrR_0"></path><path d="m1276.33 446.15c.31 2.67.47 5.348.5 8.033l-.99-.003v1c-.01.829-.02 1.658-.05 2.488-.03.829-.07 1.657-.13 2.483l-.07.998.99.067c-.21 2.677-.57 5.336-1.06 7.978l-.97-.195-.2.981c-.32 1.617-.7 3.226-1.12 4.829l-.26.967.96.255c-.71 2.562-1.55 5.106-2.53 7.632l-.92-.367-.37.929c-.61 1.541-1.27 3.075-1.98 4.603l-.42.907.9.419c-1.13 2.385-2.39 4.753-3.75 7.102l-.85-.508-.51.86c-.84 1.409-1.72 2.812-2.64 4.209l-.55.835.84.547c-1.48 2.205-3.06 4.393-4.73 6.563l-.79-.615-.62.787c-1 1.28-2.04 2.555-3.11 3.823l-.65.763.76.644c-1.72 2.008-3.54 4-5.43 5.976l-.71-.694-.7.717c-1.15 1.178-2.32 2.351-3.53 3.518l-.71.696.69.716c-1.91 1.828-3.89 3.641-5.95 5.439l-.65-.754-.75.655c-1.25 1.083-2.53 2.16-3.83 3.232l-.77.635.63.771c-2.05 1.669-4.16 3.324-6.33 4.965l-.6-.799-.8.6c-1.33.994-2.68 1.983-4.05 2.967l-.81.582.58.811c-2.16 1.532-4.37 3.05-6.63 4.556l-.55-.833-.84.55c-1.38.914-2.78 1.822-4.21 2.726l-.84.535.53.843c-2.24 1.414-4.54 2.815-6.88 4.204l-.5-.861-.86.508c-1.43.84-2.87 1.675-4.33 2.506l-.87.495.49.867c-2.32 1.312-4.68 2.612-7.09 3.9l-.47-.881-.88.469c-1.45.774-2.92 1.543-4.41 2.308l-.89.458.46.887c-2.39 1.224-4.82 2.436-7.29 3.636l-.43-.899-.9.435c-1.48.714-2.96 1.423-4.47 2.128l-.9.425.42.905c-2.42 1.131-4.88 2.251-7.37 3.361l-.4-.913-.92.404c-1.52.674-3.05 1.343-4.59 2.008l-.92.395.39.918c-2.43 1.041-4.9 2.073-7.39 3.095l-.38-.925-.92.377c-1.56.636-3.14 1.267-4.72 1.895l-.93.369.37.928c-2.46.969-4.94 1.928-7.45 2.877l-.35-.935-.94.352c-1.56.587-3.13 1.171-4.72 1.75l-.94.344.35.939c-2.52.916-5.05 1.822-7.62 2.719l-.33-.944-.94.329c-.77.265-1.53.53-2.3.794-.8.276-1.61.551-2.41.825l-.95.321.32.946c-2.54.86-5.11 1.71-7.71 2.551l-.3-.951-.95.307c-1.59.511-3.18 1.018-4.78 1.522l-.95.3.3.953c-2.53.793-5.09 1.577-7.66 2.352l-.29-.957-.96.287c-1.6.483-3.22.962-4.85 1.437l-.96.281.28.959c-2.55.744-5.13 1.479-7.72 2.205l-.27-.962-.96.268c-1.6.446-3.21.889-4.83 1.329l-.96.262.26.965c-2.61.704-5.23 1.4-7.87 2.088l-.25-.968-.97.251c-1.6.415-3.21.826-4.82 1.235l-.97.245.24.969c-2.58.65-5.17 1.291-7.79 1.924l-.23-.972-.98.234c-1.63.394-3.27.785-4.92 1.172l-.97.229.23.973c-2.6.607-5.21 1.206-7.84 1.798l-.21-.976-.98.219c-1.62.363-3.25.723-4.89 1.081l-.97.213.21.976c-2.63.572-5.27 1.136-7.93 1.691l-.21-.978-.98.203c-1.63.34-3.27.677-4.92 1.011l-.98.199.2.979c-2.6.525-5.22 1.043-7.852 1.553l-.189-.982-.982.189c-1.645.318-3.296.632-4.951.943l-.983.184.184.983c-2.638.493-5.291.979-7.957 1.457l-.175-.984-.985.175c-1.632.291-3.27.58-4.912.865l-.986.171.171.985c-2.637.456-5.288.904-7.951 1.345l-.162-.986-.987.162c-1.662.274-3.329.544-5.001.812l-.987.158.158.987c-2.627.419-5.266.83-7.916 1.234l-.15-.988-.989.149c-1.648.25-3.301.497-4.959.741l-.989.146.145.989c-2.663.39-5.339.772-8.025 1.148l-.138-.99-.99.137c-1.656.23-3.316.457-4.98.681l-.991.134.133.991c-2.636.353-5.283.699-7.94 1.038l-.126-.992-.992.126c-1.661.21-3.326.418-4.994.623l-.993.122.122.992c-2.675.326-5.36.645-8.054.957l-.115-.993-.993.114c-.935.107-1.87.214-2.807.32-.715.08-1.431.16-2.148.24l-.994.11.111.994c-2.655.293-5.32.579-7.994.858l-.103-.994-.995.103c-1.669.173-3.343.343-5.019.51l-.995.1.099.994c-2.668.265-5.345.522-8.031.773l-.092-.996-.996.093c-1.656.153-3.316.303-4.98.451l-.996.089.089.996c-2.669.235-5.347.463-8.033.685l-.081-.996-.997.081c-1.676.137-3.356.271-5.038.403l-.997.078.078.997c-2.663.206-5.335.406-8.013.598l-.071-.997-.998.071c-1.663.119-3.329.235-4.998.348l-.998.067.068.998c-2.68.179-5.366.352-8.06.518l-.061-.997-.998.061c-1.681.102-3.365.202-5.051.299l-.998.057.057.998c-2.66.152-5.327.296-8.001.434l-.051-.998-.999.05c-1.667.085-3.338.168-5.011.247l-.999.048.048.998c-2.686.126-5.379.245-8.078.358l-.041-.999-.999.041c-1.681.069-3.363.135-5.049.199l-.999.037.038.999c-2.662.099-5.33.191-8.004.276l-.031-.999-1 .031c-1.671.053-3.344.102-5.019.149l-1 .028.028 1c-2.69.073-5.386.14-8.088.201l-.022-1-1 .022c-1.676.036-3.354.07-5.035.101l-1 .019.019.999c-2.667.048-5.339.089-8.017.123l-.012-.999-1 .012c-1.672.02-3.347.038-5.024.053l-1 .009.009 1c-2.692.023-5.389.039-8.092.049l-.003-1-1 .003c-1.674.005-3.35.007-5.027.006h-1l-.001 1c-2.669-.002-5.343-.011-8.023-.027l.007-.999-1-.007c-1.674-.01-3.349-.023-5.026-.039l-1-.01-.009 1c-2.692-.027-5.389-.061-8.091-.101l.016-1-1-.015c-1.673-.026-3.348-.055-5.024-.086l-1-.018-.019.999c-2.67-.051-5.345-.109-8.024-.173l.025-1-1-.024c-1.673-.041-3.348-.085-5.024-.132l-1-.027-.027.999c-2.691-.076-5.386-.158-8.085-.248l.034-.999-1-.033c-.841-.029-1.683-.058-2.525-.087-.842-.03-1.683-.06-2.525-.091l-.999-.037-.037.999c-2.698-.1-5.392-.207-8.081-.321l.042-.998-.999-.043c-1.675-.072-3.349-.146-5.021-.222l-.999-.046-.045.999c-2.677-.124-5.35-.255-8.017-.391l.051-.998-.998-.052c-1.675-.087-3.347-.176-5.018-.268l-.999-.054-.054.998c-2.698-.15-5.391-.306-8.078-.468l.061-.998-.998-.061c-1.674-.102-3.346-.206-5.016-.313l-.998-.064-.064.997c-2.674-.172-5.342-.352-8.005-.537l.07-.997-.997-.07c-1.674-.118-3.346-.238-5.015-.36l-.998-.073-.073.997c-2.695-.2-5.385-.405-8.069-.617l.08-.997-.997-.079c-1.672-.133-3.341-.269-5.008-.407l-.997-.082-.082.996c-2.669-.222-5.331-.451-7.988-.686l.089-.996-.996-.088c-1.675-.149-3.347-.301-5.016-.455l-.996-.092-.092.996c-2.691-.25-5.376-.507-8.054-.769l.098-.995-.995-.098c-1.668-.165-3.334-.332-4.997-.502l-.994-.101-.102.994c-2.661-.273-5.316-.552-7.964-.837l.107-.994-.994-.108c-1.676-.182-3.35-.366-5.022-.553l-.993-.111-.111.994c-2.685-.302-5.363-.61-8.033-.925l.117-.992-.993-.118c-1.663-.197-3.324-.396-4.981-.598l-.993-.121-.121.992c-2.658-.325-5.308-.657-7.951-.995l.127-.991-.991-.128c-1.676-.215-3.348-.433-5.017-.653l-.992-.131-.131.991c-2.675-.355-5.343-.716-8.003-1.084l.137-.99-.99-.137c-1.657-.231-3.311-.463-4.962-.698l-.99-.141-.141.989c-2.659-.38-5.309-.767-7.951-1.16l.148-.988-.99-.148c-1.669-.25-3.334-.502-4.997-.756l-.988-.152-.152.989c-2.663-.41-5.318-.826-7.964-1.249l.158-.987-.987-.158c-1.649-.264-3.294-.531-4.936-.8l-.987-.162-.162.986c-2.661-.438-5.314-.883-7.957-1.335l.169-.985-.985-.169c-1.661-.285-3.318-.572-4.972-.862l-.985-.173-.172.985c-2.648-.466-5.286-.939-7.914-1.418l.18-.983-.984-.18c-1.638-.3-3.272-.602-4.903-.907l-.983-.184-.183.983c-2.667-.5-5.323-1.007-7.968-1.521l.191-.981-.981-.191c-1.65-.322-3.296-.646-4.938-.973l-.981-.195-.195.981c-2.627-.525-5.243-1.056-7.848-1.594l.203-.978-.979-.203c-1.645-.341-3.285-.684-4.92-1.03l-.979-.207-.206.978c-2.654-.563-5.296-1.132-7.925-1.709l.214-.976-.976-.215c-1.637-.36-3.268-.722-4.895-1.087l-.976-.219-.219.975c-2.615-.589-5.219-1.184-7.81-1.786l.227-.974-.974-.227c-1.648-.385-3.292-.772-4.931-1.162l-.973-.231-.231.972c-2.626-.626-5.238-1.26-7.837-1.9l.24-.97-.971-.24c-1.618-.4-3.232-.803-4.84-1.208l-.97-.244-.244.969c-2.625-.664-5.237-1.335-7.835-2.012l.253-.967-.967-.254c-1.63-.426-3.254-.856-4.873-1.288l-.966-.257-.258.965c-2.589-.693-5.164-1.393-7.724-2.1l.267-.963-.963-.267c-1.619-.449-3.232-.9-4.839-1.354l-.963-.272-.271.962c-2.615-.741-5.213-1.489-7.795-2.244l.281-.959-.96-.282c-1.605-.471-3.204-.945-4.797-1.421l-.958-.287-.287.958c-2.58-.775-5.143-1.556-7.689-2.344l.296-.955-.955-.297c-1.616-.502-3.225-1.006-4.827-1.514l-.953-.302-.302.953c-2.563-.815-5.109-1.637-7.637-2.467l.312-.949-.95-.313c-1.582-.521-3.158-1.044-4.727-1.571l-.948-.318-.318.947c-2.586-.871-5.152-1.749-7.699-2.635l.329-.943-.944-.33c-1.581-.552-3.155-1.107-4.721-1.665l-.942-.335-.335.941c-2.537-.907-5.054-1.821-7.551-2.742l.348-.937-.938-.348c-1.588-.588-3.168-1.18-4.74-1.774l-.935-.354-.354.935c-2.513-.954-5.004-1.916-7.473-2.885l.367-.929-.931-.367c-1.561-.615-3.113-1.233-4.656-1.854l-.928-.373-.373.927c-2.527-1.021-5.03-2.049-7.508-3.085l.387-.921-.922-.388c-1.539-.645-3.068-1.294-4.587-1.946l-.919-.394-.394.918c-2.495-1.074-4.964-2.157-7.407-3.247l.409-.912-.912-.409c-1.538-.69-3.066-1.382-4.583-2.078l-.909-.417-.416.908c-2.438-1.123-4.849-2.254-7.231-3.393l.433-.9-.902-.433c-1.535-.738-3.059-1.478-4.571-2.222l-.897-.441-.441.896c-2.416-1.194-4.802-2.397-7.157-3.607l.459-.888-.889-.459c-1.494-.772-2.975-1.547-4.444-2.325l-.884-.468-.467.883c-2.408-1.282-4.78-2.573-7.118-3.871l.487-.872-.873-.488c-1.448-.809-2.883-1.621-4.304-2.436l-.867-.498-.497.866c-2.377-1.371-4.714-2.75-7.012-4.138l.518-.854-.854-.519c-1.428-.867-2.84-1.738-4.236-2.612l-.848-.53-.53.846c-2.31-1.454-4.576-2.917-6.8-4.388l.554-.831-.832-.554c-1.398-.932-2.779-1.866-4.142-2.804l-.823-.567-.566.822c-2.237-1.55-4.425-3.108-6.565-4.676l.593-.803-.805-.594c-1.357-1.001-2.694-2.006-4.011-3.015l-.794-.608-.607.793c-2.152-1.661-4.25-3.331-6.293-5.01l.636-.769-.77-.638c-1.3-1.078-2.578-2.159-3.832-3.244l-.757-.654-.652.755c-2.051-1.79-4.04-3.589-5.966-5.398l.687-.724-.726-.688c-1.223-1.161-2.421-2.325-3.591-3.493l-.708-.706-.705.706c-1.922-1.938-3.771-3.886-5.548-5.843l.743-.666-.668-.744c-1.12-1.249-2.209-2.502-3.268-3.758l-.645-.764-.762.642c-1.751-2.104-3.417-4.218-4.997-6.343l.804-.589-.591-.806c-.983-1.341-1.93-2.685-2.842-4.033l-.561-.828-.825.559c-1.519-2.283-2.939-4.576-4.258-6.88l.869-.487-.489-.872c-.818-1.457-1.594-2.918-2.329-4.383l-.449-.894-.889.447c-1.195-2.439-2.277-4.889-3.243-7.349l.929-.353-.355-.935c-.599-1.574-1.15-3.151-1.653-4.731l-.303-.953-.948.301c-.79-2.587-1.453-5.184-1.985-7.79l.976-.187-.188-.982c-.312-1.629-.572-3.261-.78-4.896l-.126-.992-.986.125c-.305-2.669-.4729-5.347-.5009-8.032l.9939.002.002-1c.002-.828.018-1.657.047-2.487s.072-1.658.128-2.484l.068-.998-.991-.067c.216-2.676.572-5.336 1.064-7.977l.974.194.196-.981c.322-1.616.696-3.226 1.122-4.829l.257-.966-.961-.255c.714-2.563 1.557-5.107 2.528-7.632l.924.367.369-.929c.612-1.542 1.273-3.076 1.981-4.604l.42-.907-.902-.418c1.137-2.385 2.388-4.753 3.751-7.103l.856.508.511-.86c.836-1.409 1.713-2.812 2.63-4.208l.55-.836-.832-.547c1.477-2.205 3.055-4.393 4.731-6.563l.783.615.618-.787c1.004-1.28 2.044-2.554 3.118-3.822l.646-.763-.761-.644c1.726-2.009 3.537-4.001 5.431-5.976l.715.694.697-.717c1.144-1.179 2.319-2.352 3.524-3.519l.718-.696-.693-.716c1.909-1.828 3.891-3.641 5.945-5.439l.653.754.756-.655c1.249-1.082 2.525-2.16 3.827-3.231l.773-.636-.634-.77c2.047-1.669 4.158-3.324 6.33-4.965l.598.798.8-.599c1.328-.994 2.678-1.983 4.051-2.967l.813-.582-.581-.812c2.156-1.531 4.366-3.05 6.63-4.555l.55.833.835-.551c1.384-.913 2.788-1.821 4.212-2.725l.845-.536-.535-.843c2.245-1.413 4.537-2.814 6.877-4.203l.507.86.861-.508c1.426-.839 2.868-1.675 4.328-2.506l.87-.494-.494-.868c2.321-1.312 4.685-2.612 7.091-3.9l.469.882.883-.47c1.454-.773 2.924-1.542 4.409-2.307l.889-.458-.457-.888c2.39-1.223 4.818-2.435 7.285-3.636l.435.9.9-.436c1.475-.713 2.963-1.423 4.465-2.128l.905-.425-.424-.904c2.422-1.131 4.88-2.252 7.371-3.361l.405.913.914-.405c1.52-.673 3.052-1.342 4.597-2.007l.919-.395-.395-.918c2.433-1.042 4.898-2.074 7.392-3.096l.377.926.926-.378c1.56-.635 3.132-1.267 4.716-1.895l.93-.368-.369-.929c2.457-.968 4.941-1.927 7.452-2.876l.351.935.936-.352c1.562-.587 3.134-1.171 4.717-1.751l.939-.344-.343-.938c2.513-.916 5.052-1.822 7.616-2.719l.329.943.944-.328c1.561-.544 3.132-1.083 4.712-1.619l.947-.322-.321-.946c2.545-.859 5.114-1.709 7.707-2.55l.306.951.952-.307c1.583-.511 3.175-1.018 4.775-1.522l.954-.3-.3-.954c2.531-.792 5.083-1.577 7.657-2.352l.287.957.958-.287c1.609-.482 3.227-.961 4.853-1.437l.959-.28-.28-.96c2.555-.743 5.13-1.478 7.724-2.205l.269.963.963-.269c1.601-.446 3.21-.889 4.826-1.328l.965-.263-.262-.964c2.603-.705 5.225-1.401 7.865-2.088l.251.967.968-.25c1.602-.415 3.21-.827 4.826-1.236l.969-.245-.245-.969c2.58-.649 5.178-1.29 7.792-1.923l.234.971.973-.234c1.633-.394 3.274-.784 4.921-1.171l.973-.229-.228-.973c2.595-.607 5.207-1.207 7.835-1.798l.218.975.976-.218c1.623-.364 3.251-.724 4.886-1.081l.977-.213-.213-.977c2.629-.572 5.273-1.135 7.933-1.691l.204.979.979-.204c1.635-.34 3.275-.677 4.922-1.01l.98-.199-.199-.98c2.604-.525 5.221-1.042 7.852-1.552l.19.981.982-.189c1.645-.317 3.295-.631 4.951-.942l.983-.185-.185-.982c2.639-.494 5.291-.979 7.957-1.457l.176.984.984-.176c1.633-.291 3.27-.579 4.913-.864l.985-.172-.171-.984c2.638-.456 5.288-.905 7.951-1.345l.163.986.986-.163c1.662-.273 3.329-.544 5.001-.812l.987-.158-.158-.987c2.628-.418 5.266-.829 7.917-1.233l.15.988.988-.15c1.649-.25 3.302-.496 4.959-.741l.99-.145-.146-.989c2.664-.39 5.339-.773 8.026-1.148l.137.99.99-.138c1.656-.229 3.317-.457 4.981-.681l.991-.133-.134-.991c2.637-.353 5.284-.699 7.941-1.038l.126.992.992-.126c1.66-.211 3.325-.418 4.994-.623l.992-.122-.122-.992c2.675-.326 5.36-.646 8.055-.957l.114.993.994-.114c1.647-.19 3.299-.377 4.954-.56l.994-.111-.11-.993c2.655-.294 5.32-.58 7.993-.859l.103.995.995-.103c1.67-.173 3.343-.343 5.02-.511l.995-.099-.099-.995c2.668-.264 5.345-.522 8.03-.772l.092.995.996-.092c1.657-.153 3.317-.304 4.98-.452l.996-.088-.088-.996c2.669-.235 5.346-.464 8.032-.685l.082.996.996-.082c1.677-.137 3.356-.271 5.039-.402l.997-.078-.078-.997c2.663-.206 5.334-.406 8.013-.599l.071.997.997-.071c1.664-.118 3.33-.234 4.999-.347l.997-.068-.067-.997c2.679-.18 5.366-.353 8.06-.519l.061.998.998-.061c1.681-.102 3.364-.202 5.05-.299l.999-.058-.058-.998c2.66-.151 5.328-.296 8.002-.433l.05.998.999-.051c1.668-.085 3.338-.167 5.011-.247l.999-.047-.047-.999c2.686-.126 5.378-.245 8.078-.357l.041.998.999-.04c1.68-.069 3.363-.136 5.048-.199l.999-.038-.037-.999c2.661-.098 5.329-.19 8.003-.276l.032.999.999-.031c1.671-.052 3.344-.102 5.02-.149l.999-.028-.028-.999c2.69-.074 5.387-.141 8.089-.201l.021.999 1-.021c1.676-.037 3.355-.07 5.035-.101l1-.019-.018-.999c2.666-.048 5.338-.089 8.016-.124l.012 1 1-.012c1.673-.021 3.348-.039 5.024-.054l1-.009-.009-1c2.692-.022 5.39-.039 8.092-.048l.003 1 1-.003c1.674-.005 3.35-.007 5.028-.007h1v-.999c2.67.002 5.344.011 8.023.026l-.006 1 1 .006c1.673.011 3.348.024 5.025.04l1 .009.01-.999c2.692.027 5.389.06 8.09.101l-.015.999.999.016c1.673.026 3.348.054 5.025.085l1 .019.018-1c2.67.052 5.345.109 8.025.174l-.025.999 1 .025c1.673.041 3.347.085 5.024.131l.999.028.028-1c2.691.076 5.386.159 8.084.248l-.033.999.999.034c.842.028 1.683.057 2.526.087.841.029 1.683.06 2.524.091l.999.036.037-.999c2.699.101 5.393.208 8.082.321l-.043.999.999.043c1.676.071 3.349.145 5.021.222l.999.045.046-.998c2.677.124 5.349.254 8.017.391l-.052.998.999.052c1.674.086 3.347.176 5.018.267l.998.055.055-.998c2.697.149 5.39.305 8.077.468l-.06.997.998.061c1.674.102 3.346.207 5.016.314l.997.064.064-.998c2.674.173 5.342.352 8.005.537l-.07.998.998.07c1.674.117 3.345.237 5.015.36l.997.073.073-.997c2.696.199 5.385.405 8.069.617l-.079.996.997.08c1.671.133 3.34.268 5.007.406l.997.083.082-.997c2.669.223 5.332.451 7.988.686l-.088.996.996.089c1.674.149 3.346.3 5.016.455l.995.091.092-.995c2.691.25 5.376.506 8.054.769l-.098.995.995.098c1.669.165 3.334.332 4.997.501l.995.102.101-.995c2.662.273 5.317.552 7.965.838l-.108.994.994.107c1.677.182 3.351.367 5.022.553l.994.111.111-.993c2.685.302 5.362.61 8.033.924l-.118.993.993.118c1.664.196 3.324.396 4.982.598l.993.121.12-.993c2.658.326 5.309.657 7.951.995l-.127.992.992.127c1.675.215 3.348.433 5.017.654l.991.13.131-.991c2.676.355 5.344.717 8.004 1.084l-.138.99.991.138c1.657.23 3.311.463 4.961.698l.99.141.141-.99c2.659.381 5.31.767 7.952 1.16l-.148.989.989.148c1.669.249 3.335.501 4.997.756l.989.151.151-.988c2.664.41 5.319.826 7.965 1.248l-.158.987.987.158c1.649.265 3.294.532 4.936.801l.987.162.161-.987c2.662.439 5.314.884 7.957 1.335l-.169.985.986.169c1.661.285 3.318.573 4.971.862l.985.173.173-.984c2.647.466 5.285.938 7.914 1.417l-.18.984.983.18c1.638.299 3.273.602 4.903.906l.983.184.184-.983c2.666.501 5.322 1.008 7.967 1.521l-.191.981.982.192c1.65.321 3.296.645 4.937.972l.981.195.195-.98c2.627.525 5.243 1.056 7.848 1.593l-.203.979.98.203c1.644.341 3.284.684 4.92 1.029l.978.207.207-.978c2.653.563 5.295 1.133 7.925 1.709l-.215.977.977.214c1.636.36 3.268.723 4.895 1.088l.975.219.219-.976c2.616.589 5.219 1.185 7.81 1.787l-.227.973.974.228c1.649.384 3.293.771 4.932 1.161l.972.231.232-.972c2.625.627 5.237 1.26 7.837 1.9l-.24.971.971.24c1.618.4 3.231.802 4.84 1.208l.969.244.244-.969c2.626.664 5.236 1.334 7.836 2.012l-.25.967.96.253c1.63.427 3.26.856 4.88 1.288l.96.258.26-.966c2.59.694 5.16 1.394 7.72 2.101l-.26.963.96.267c1.62.448 3.23.9 4.84 1.354l.96.271.27-.961c2.62.741 5.22 1.489 7.8 2.244l-.28.959.96.282c1.6.471 3.2.944 4.79 1.421l.96.286.29-.957c2.58.774 5.14 1.556 7.69 2.344l-.3.954.96.297c1.61.502 3.22 1.007 4.82 1.515l.96.302.3-.953c2.56.815 5.11 1.637 7.64 2.466l-.32.949.95.313c1.59.521 3.16 1.045 4.73 1.571l.95.319.32-.948c2.58.871 5.15 1.75 7.7 2.635l-.33.944.94.33c1.58.552 3.16 1.107 4.72 1.664l.94.336.34-.942c2.54.907 5.05 1.821 7.55 2.743l-.35.937.94.347c1.59.589 3.17 1.18 4.74 1.775l.94.353.35-.934c2.51.954 5 1.915 7.47 2.884l-.36.93.93.366c1.56.616 3.11 1.233 4.65 1.854l.93.373.37-.927c2.53 1.021 5.03 2.05 7.51 3.086l-.39.921.93.387c1.54.646 3.06 1.295 4.58 1.946l.92.394.4-.918c2.49 1.075 4.96 2.158 7.4 3.248l-.41.912.92.409c1.53.689 3.06 1.382 4.58 2.078l.91.416.41-.908c2.44 1.124 4.85 2.255 7.24 3.393l-.44.901.9.433c1.54.737 3.06 1.478 4.58 2.221l.89.442.44-.897c2.42 1.195 4.81 2.397 7.16 3.608l-.46.887.89.459c1.49.772 2.98 1.547 4.44 2.325l.89.469.47-.883c2.4 1.282 4.78 2.572 7.11 3.871l-.48.872.87.488c1.45.809 2.88 1.621 4.3 2.436l.87.498.5-.867c2.37 1.371 4.71 2.751 7.01 4.139l-.52.853.86.52c1.42.867 2.84 1.738 4.23 2.611l.85.531.53-.847c2.31 1.454 4.58 2.917 6.8 4.389l-.55.831.83.554c1.4.931 2.78 1.866 4.14 2.804l.82.567.57-.823c2.24 1.55 4.42 3.109 6.56 4.677l-.59.803.81.594c1.35 1.001 2.69 2.006 4.01 3.014l.79.608.61-.792c2.15 1.66 4.25 3.331 6.29 5.01l-.64.768.77.638c1.3 1.078 2.58 2.16 3.84 3.245l.75.654.66-.755c2.05 1.79 4.04 3.589 5.96 5.398l-.69.724.73.688c1.22 1.16 2.42 2.325 3.59 3.492l.71.707.7-.706c1.93 1.937 3.78 3.885 5.55 5.843l-.74.665.67.745c1.12 1.249 2.21 2.501 3.27 3.757l.64.765.76-.643c1.75 2.104 3.42 4.219 5 6.343l-.8.589.59.807c.98 1.34 1.93 2.684 2.84 4.032l.56.828.82-.558c1.52 2.282 2.94 4.576 4.26 6.879l-.87.487.49.872c.82 1.458 1.6 2.919 2.33 4.383l.45.894.89-.446c1.19 2.439 2.28 4.889 3.24 7.348l-.93.354.36.935c.6 1.573 1.15 3.15 1.65 4.73l.3.953.95-.301c.79 2.588 1.46 5.185 1.99 7.791l-.98.187.19.982c.31 1.629.57 3.261.78 4.896l.13.992z" stroke="url(#c)" class="XvesEHrR_1"></path><path d="m1448.18 549.925c.29 2.649.47 5.307.54 7.973l-.99.016.01 1c.02.826.02 1.652.01 2.479s-.02 1.653-.05 2.477l-.04 1 .99.036c-.12 2.664-.35 5.318-.7 7.961l-.98-.139-.14.991c-.23 1.625-.5 3.245-.81 4.862l-.19.981.98.189c-.53 2.605-1.17 5.199-1.91 7.781l-.95-.284-.29.958c-.46 1.562-.97 3.119-1.51 4.671l-.33.944.94.328c-.89 2.494-1.89 4.975-2.98 7.444l-.91-.41-.41.911c-.67 1.482-1.37 2.959-2.11 4.432l-.45.893.89.447c-1.21 2.354-2.5 4.696-3.88 7.025l-.86-.515-.51.857c-.84 1.391-1.71 2.778-2.62 4.161l-.54.837.83.545c-1.46 2.206-3 4.401-4.61 6.583l-.8-.598-.6.8c-.98 1.298-1.98 2.591-3.01 3.881l-.62.781.78.622c-1.67 2.065-3.41 4.119-5.21 6.162l-.75-.665-.66.745c-1.08 1.206-2.18 2.408-3.31 3.606l-.69.728.73.683c-1.83 1.927-3.72 3.844-5.67 5.749l-.7-.717-.72.695c-1.16 1.128-2.35 2.252-3.56 3.372l-.73.68.67.732c-1.94 1.782-3.93 3.554-5.98 5.316l-.65-.759-.76.649c-1.26 1.078-2.54 2.152-3.84 3.222l-.78.634.64.772c-2.02 1.647-4.09 3.285-6.2 4.914l-.61-.793-.79.608c-1.33 1.015-2.67 2.026-4.04 3.034l-.8.595.59.803c-2.1 1.546-4.25 3.083-6.44 4.612l-.57-.821-.82.571c-1.35.941-2.73 1.88-4.11 2.814l-.83.559.55.828c-2.2 1.476-4.45 2.943-6.73 4.401l-.53-.844-.85.536c-1.38.875-2.77 1.746-4.17 2.615l-.85.525.52.85c-2.27 1.392-4.57 2.776-6.91 4.151l-.5-.863-.86.505c-1.43.836-2.87 1.669-4.33 2.498l-.87.495.5.868c-2.27 1.29-4.58 2.572-6.92 3.846l-.47-.878-.88.477c-1.47.795-2.95 1.587-4.43 2.376l-.89.468.47.883c-2.33 1.23-4.7 2.452-7.09 3.666l-.45-.892-.89.451c-1.47.741-2.95 1.479-4.43 2.214l-.9.443.44.895c-2.39 1.178-4.82 2.349-7.27 3.511l-.42-.903-.91.427c-1.49.706-3 1.409-4.51 2.109l-.91.419.42.907c-2.38 1.095-4.79 2.183-7.21 3.263l-.41-.913-.91.405c-1.53.674-3.06 1.346-4.6 2.015l-.92.398.4.916c-2.44 1.054-4.9 2.1-7.38 3.139l-.39-.922-.92.384c-1.51.631-3.04 1.258-4.57 1.883l-.92.378.38.925c-2.46 1-4.94 1.993-7.44 2.979l-.37-.931-.93.366c-1.56.614-3.14 1.225-4.72 1.833l-.93.359.36.933c-2.45.937-4.91 1.867-7.39 2.791l-.35-.937-.94.347c-1.55.575-3.11 1.146-4.67 1.716l-.94.341.34.94c-2.52.911-5.05 1.816-7.61 2.714l-.33-.943-.94.33c-1.56.547-3.13 1.09-4.7 1.631l-.95.326.32.945c-2.48.85-4.98 1.695-7.5 2.532l-.31-.948-.95.314c-1.58.523-3.17 1.044-4.76 1.562l-.95.309.31.95c-2.55.827-5.11 1.646-7.69 2.459l-.3-.953-.96.299c-1.56.49-3.13.978-4.7 1.464l-.96.294.3.955c-2.53.775-5.07 1.544-7.62 2.307l-.29-.958-.96.285c-1.59.475-3.2.949-4.81 1.419l-.96.281.28.959c-2.56.745-5.13 1.483-7.72 2.215l-.27-.962-.96.271c-1.58.446-3.17.89-4.76 1.331l-.97.267.27.963c-2.55.705-5.12 1.404-7.7 2.096l-.26-.965-.96.258c-1.62.432-3.24.861-4.86 1.288l-.97.254.25.967c-2.57.672-5.15 1.339-7.74 1.999l-.25-.969-.97.246c-1.6.404-3.2.807-4.8 1.207l-.97.242.24.97c-2.58.639-5.16 1.272-7.76 1.899l-.24-.972-.97.233c-1.62.391-3.25.78-4.89 1.166l-.97.229.23.973c-2.59.608-5.18 1.21-7.79 1.806l-.22-.974-.98.222c-1.6.366-3.22.73-4.83 1.091l-.98.219.22.975c-2.59.577-5.19 1.149-7.8 1.715l-.21-.977-.98.211c-1.64.352-3.27.702-4.92 1.05l-.97.207.2.978c-2.6.549-5.21 1.092-7.83 1.63l-.2-.98-.98.2c-1.62.33-3.24.658-4.86.983l-.98.197.2.98c-2.6.519-5.21 1.033-7.84 1.541l-.19-.981-.98.189c-1.64.317-3.28.631-4.93.943l-.98.186.19.982c-2.62.495-5.25.984-7.89 1.467l-.18-.984-.98.18c-1.63.295-3.25.589-4.88.88l-.98.176.17.984c-2.61.465-5.22.924-7.85 1.378l-.17-.986-.98.17c-1.65.282-3.29.563-4.94.841l-.99.166.17.986c-2.64.444-5.29.881-7.95 1.313l-.16-.986-.99.159c-1.62.264-3.25.525-4.88.784l-.99.156.16.988c-2.62.412-5.24.82-7.86 1.221l-.15-.988-.99.151c-1.65.25-3.3.498-4.95.744l-.99.148.15.989c-2.65.393-5.31.78-7.97 1.162l-.14-.989-.99.141c-1.645.234-3.288.466-4.934.696l-.99.138.138.99c-2.614.363-5.236.721-7.865 1.074l-.133-.991-.991.132c-1.646.22-3.295.438-4.947.653l-.991.129.129.992c-2.649.344-5.305.682-7.968 1.015l-.124-.992-.992.124c-1.663.207-3.33.412-4.999.614l-.992.121.12.992c-2.616.317-5.239.627-7.869.933l-.115-.993-.993.115c-1.647.19-3.296.379-4.947.565l-.994.112.112.993c-2.646.297-5.299.589-7.959.875l-.106-.994-.995.106c-1.662.178-3.326.354-4.994.527l-.994.104.103.994c-2.642.274-5.29.543-7.945.806l-.098-.995-.995.098c-.855.084-1.711.168-2.568.251-.792.077-1.584.153-2.377.229l-.996.095.096.996c-2.643.251-5.292.498-7.947.739l-.09-.996-.996.09c-1.661.15-3.323.298-4.988.443l-.996.087.087.996c-2.667.232-5.34.459-8.019.68l-.082-.996-.997.082c-.712.058-1.424.116-2.136.174-.935.075-1.87.15-2.806.224l-.996.079.079.997c-2.639.208-5.284.411-7.934.609l-.074-.997-.997.074c-1.658.122-3.319.243-4.981.362l-.998.071.072.997c-2.665.189-5.335.373-8.01.551l-.066-.998-.998.066c-1.67.111-3.343.219-5.017.325l-.998.064.063.997c-2.635.166-5.275.327-7.92.483l-.058-.998-.998.058c-1.656.096-3.314.191-4.973.283l-.999.056.056.998c-2.658.147-5.321.289-7.989.425l-.051-.998-.998.05c-1.668.085-3.337.167-5.008.247l-.999.048.048.999c-2.661.126-5.326.248-7.996.364l-.043-.999-.999.043c-1.653.071-3.308.14-4.965.207l-.999.04.04.999c-2.651.106-5.308.207-7.968.303l-.036-1-.999.036c-1.664.059-3.329.116-4.996.171l-1 .033.033.999c-2.672.087-5.349.168-8.03.244l-.028-.999-.999.028c-.895.025-1.79.049-2.685.073-.77.021-1.539.041-2.309.06l-1 .026.025.999c-2.645.066-5.294.127-7.948.183l-.02-.999-1 .02c-1.661.034-3.322.066-4.986.096l-1 .019.018.999c-2.664.047-5.332.089-8.003.126l-.014-1-1 .013c-1.669.022-3.34.042-5.013.06l-1 .011.011 1c-2.66.027-5.323.049-7.991.066l-.006-1-1 .006c-1.657.01-3.315.018-4.974.024l-1 .003.003 1c-2.656.008-5.316.011-7.979.009l.001-1-1-.002c-1.665-.002-3.332-.006-4.999-.012l-1-.004-.004 1c-2.673-.012-5.349-.028-8.028-.05l.008-1-1-.008c-.836-.007-1.673-.015-2.51-.023-.838-.008-1.675-.017-2.511-.026l-1-.011-.011 1c-2.679-.031-5.355-.067-8.028-.108l.016-1-1-.015c-1.667-.027-3.334-.055-4.998-.085l-1-.019-.019 1c-2.662-.05-5.322-.105-7.977-.165l.023-.999-1-.023c-1.659-.039-3.317-.079-4.973-.121l-1-.025-.025.999c-2.667-.069-5.33-.143-7.989-.223l.031-.999-1-.03c-1.672-.051-3.342-.104-5.011-.158l-.999-.033-.033.999c-2.671-.089-5.337-.183-8-.282l.038-.999-.999-.037c-.769-.029-1.536-.059-2.304-.089-.893-.034-1.786-.069-2.679-.105l-.999-.04-.04.999c-2.652-.108-5.3-.221-7.944-.339l.045-.999-.999-.045c-1.665-.075-3.328-.152-4.99-.231l-.999-.047-.048.999c-2.678-.129-5.353-.263-8.023-.402l.053-.998-.999-.053c-1.666-.087-3.33-.177-4.992-.268l-.999-.055-.055.998c-2.658-.148-5.312-.3-7.961-.458l.06-.998-.998-.06c-1.655-.099-3.309-.201-4.96-.304l-.998-.063-.063.998c-2.667-.168-5.329-.341-7.987-.52l.068-.997-.998-.068c-1.669-.113-3.337-.228-5.002-.345l-.998-.07-.07.998c-2.664-.189-5.324-.383-7.979-.581l.075-.997-.997-.075c-1.657-.125-3.313-.252-4.966-.381l-.998-.078-.077.997c-2.642-.208-5.278-.42-7.909-.637l.083-.997-.997-.083c-1.672-.139-3.342-.28-5.01-.423l-.996-.085-.085.996c-2.672-.231-5.338-.466-7.998-.707l.091-.996-.996-.091c-1.66-.151-3.317-.304-4.973-.459l-.995-.093-.094.995c-2.646-.25-5.286-.504-7.92-.764l.098-.995-.995-.098c-1.646-.163-3.291-.328-4.933-.496l-.995-.101-.101.995c-2.674-.274-5.342-.553-8.004-.837l.106-.994-.994-.106c-1.662-.179-3.321-.359-4.978-.541l-.994-.109-.11.993c-2.649-.293-5.293-.591-7.931-.894l.115-.993-.993-.115c-1.648-.19-3.293-.383-4.935-.577l-.993-.118-.118.993c-2.649-.315-5.291-.635-7.928-.96l.123-.992-.992-.123c-1.664-.206-3.324-.415-4.983-.625l-.992-.126-.126.992c-2.653-.338-5.3-.682-7.94-1.03l.132-.991-.992-.132c-1.647-.218-3.292-.439-4.935-.661l-.991-.134-.134.99c-2.623-.357-5.24-.719-7.849-1.086l.14-.99-.991-.14c-1.664-.235-3.326-.473-4.985-.712l-.99-.143-.143.989c-2.656-.385-5.305-.775-7.947-1.171l.149-.988-.989-.149c-1.647-.248-3.292-.498-4.933-.75l-.989-.151-.151.988c-2.622-.404-5.236-.813-7.843-1.228l.158-.987-.988-.157c-1.641-.262-3.28-.526-4.915-.792l-.987-.161-.16.987c-2.658-.434-5.308-.874-7.95-1.319l.167-.985-.986-.167c-1.646-.278-3.289-.559-4.929-.841l-.986-.17-.169.985c-2.621-.453-5.233-.912-7.836-1.375l.176-.984-.985-.176c-1.626-.291-3.25-.584-4.869-.879l-.984-.179-.179.983c-2.649-.484-5.289-.973-7.92-1.468l.185-.982-.982-.186c-1.645-.31-3.285-.623-4.922-.938l-.982-.188-.189.981c-2.617-.504-5.224-1.015-7.822-1.53l.195-.981-.981-.195c-1.622-.323-3.241-.648-4.856-.975l-.98-.199-.199.98c-2.629-.535-5.248-1.075-7.858-1.621l.205-.978-.978-.205c-1.641-.344-3.277-.691-4.91-1.039l-.978-.209-.209.978c-2.61-.56-5.211-1.124-7.801-1.694l.216-.977-.976-.215c-1.617-.357-3.23-.717-4.838-1.078l-.976-.219-.219.975c-2.611-.588-5.212-1.182-7.801-1.782l.226-.974-.974-.226c-1.635-.38-3.266-.762-4.892-1.147l-.973-.23-.23.973c-2.601-.617-5.191-1.239-7.769-1.867l.237-.971-.971-.237c-1.609-.393-3.213-.789-4.813-1.186l-.97-.241-.241.97c-2.596-.647-5.179-1.3-7.751-1.958l.249-.968-.969-.249c-1.627-.418-3.249-.838-4.867-1.26l-.968-.253-.252.967c-2.587-.678-5.161-1.361-7.722-2.051l.26-.965-.965-.26c-1.598-.432-3.192-.865-4.78-1.301l-.964-.265-.265.964c-2.582-.711-5.151-1.428-7.707-2.15l.273-.962-.962-.273c-1.617-.458-3.228-.919-4.833-1.382l-.961-.277-.277.96c-2.567-.743-5.119-1.492-7.658-2.246l.286-.958-.959-.286c-1.584-.472-3.162-.947-4.735-1.423l-.957-.291-.29.957c-2.572-.782-5.13-1.571-7.672-2.365l.299-.954-.954-.299c-1.602-.502-3.197-1.007-4.786-1.514l-.953-.303-.304.952c-2.539-.812-5.062-1.631-7.57-2.455l.313-.949-.95-.313c-1.565-.517-3.124-1.035-4.677-1.556l-.948-.318-.318.948c-2.565-.864-5.114-1.733-7.645-2.609l.328-.944-.945-.328c-1.581-.549-3.155-1.101-4.723-1.654l-.943-.333-.333.942c-2.501-.887-4.986-1.78-7.452-2.679l.343-.938-.939-.344c-1.564-.572-3.12-1.146-4.669-1.723l-.937-.348-.349.936c-2.537-.948-5.056-1.902-7.555-2.863l.36-.932-.933-.36c-1.554-.6-3.1-1.202-4.639-1.807l-.931-.365-.365.93c-2.465-.972-4.91-1.951-7.336-2.935l.377-.926-.926-.377c-1.568-.639-3.128-1.281-4.68-1.925l-.924-.384-.383.923c-2.481-1.034-4.942-2.075-7.38-3.123l.396-.917-.918-.396c-1.518-.655-3.028-1.313-4.529-1.972l-.915-.403-.402.915c-2.464-1.087-4.905-2.182-7.322-3.283l.415-.909-.909-.416c-1.528-.698-3.046-1.4-4.555-2.104l-.906-.423-.423.906c-2.406-1.128-4.788-2.262-7.146-3.403l.437-.899-.899-.437c-1.502-.73-2.993-1.462-4.473-2.197l-.896-.445-.444.895c-2.428-1.21-4.828-2.428-7.2-3.652l.46-.887-.888-.461c-1.473-.763-2.935-1.53-4.387-2.299l-.883-.469-.468.883c-2.368-1.261-4.707-2.529-7.017-3.804l.485-.874-.875-.485c-1.473-.818-2.935-1.638-4.384-2.462l-.87-.494-.493.869c-2.3115-1.32-4.5914-2.647-6.8399-3.981l.5116-.858-.8589-.512c-1.4377-.858-2.8624-1.718-4.274-2.582l-.8531-.521-.5212.852c-2.31-1.421-4.5847-2.849-6.8236-4.285l.5413-.84-.8403-.542c-1.3884-.895-2.7627-1.794-4.123-2.695l-.8335-.552-.5517.832c-2.2542-1.502-4.4695-3.013-6.6455-4.531l.5738-.817-.8185-.575c-1.3699-.962-2.7239-1.927-4.062-2.895l-.8102-.586-.5853.809c-2.1578-1.571-4.274-3.15-6.3479-4.737l.6093-.791-.7922-.61c-1.3425-1.035-2.6669-2.072-3.9731-3.113l-.7821-.623-.6222.78c-2.0805-1.669-4.1147-3.347-6.102-5.034l.6487-.759-.7601-.649c-1.2808-1.095-2.5416-2.194-3.7823-3.296l-.7477-.664-.6628.746c-2.0128-1.801-3.9724-3.612-5.878-5.432l.6922-.719-.7202-.694c-1.1875-1.144-2.3535-2.291-3.4978-3.441l-.7052-.709-.7074.704c-1.9153-1.944-3.7696-3.897-5.5618-5.859l.7399-.669-.6707-.742c-1.1028-1.219-2.1814-2.443-3.2357-3.669l-.6518-.758-.7564.65c-1.7664-2.078-3.4638-4.165-5.0912-6.263l.7913-.606-.6084-.794c-1.0037-1.309-1.9798-2.622-2.9281-3.938l-.5845-.812-.80889.583c-1.57392-2.214-3.07014-4.439-4.48753-6.673l.84519-.528-.52982-.848c-.87463-1.4-1.71795-2.804-2.52971-4.211l-.49965-.867-.86305.498c-1.3360271-2.356-2.58471-4.722-3.74477-7.099l.89853-.43-.43137-.902c-.71097-1.487-1.38684-2.978-2.02733-4.472l-.394-.919-.9152.393c-1.04233-2.49-1.98763-4.991-2.83445-7.501l.94606-.31-.31089-.95c-.51124-1.563-.98387-3.13-1.41759-4.7l-.26627-.964-.95926.265c-.6903-2.595-1.2755-5.201-1.7539-7.816l.9804-.169-.17-.986c-.2799-1.622-.5183-3.248-.7148-4.877l-.1198-.992-.9876.119c-.292-2.649-.4744-5.307-.5457-7.974l.9946-.016-.0163-1c-.0135-.825-.0162-1.651-.0081-2.478s.0269-1.653.0566-2.478l.0358-.999-.9941-.036c.1235-2.665.3578-5.319.7015-7.961l.9852.138.1392-.99c.2283-1.625.4984-3.246.81-4.862l.1893-.982-.977-.188c.5295-2.606 1.1655-5.199 1.90642-7.781l.95391.284.28508-.959c.46434-1.561.96752-3.118 1.50923-4.671l.32942-.944-.93983-.328c.89575-2.493 1.88976-4.975 2.98058-7.444l.90736.41.41189-.911c.6696-1.481 1.3745-2.958 2.11441-4.431l.448935-.894-.889965-.447c1.206324-2.353 2.50104-4.695 3.88287-7.025l.85315.515.5165-.856c.83913-1.391 1.70975-2.778 2.6116-4.161l.5463-.838-.8347-.544c1.46081-2.206 3.00023-4.401 4.61714-6.584l.7973.598.6003-.799c.9738-1.298 1.9754-2.592 3.0046-3.881l.6238-.782-.7793-.622c1.6681-2.065 3.4059-4.119 5.2127-6.161l.7435.665.6665-.746c1.0781-1.205 2.1804-2.407 3.3068-3.605l.6851-.729-.7267-.683c1.8303-1.927 3.7224-3.843 5.6753-5.749l.6936.718.7189-.695c1.1666-1.128 2.3547-2.252 3.5643-3.373l.7337-.679-.678-.732c1.9408-1.783 3.9355-3.555 5.9831-5.317l.6481.759.7605-.649c1.262-1.077 2.5441-2.151 3.8461-3.221l.7726-.635-.6337-.771c2.0198-1.648 4.0865-3.286 6.1993-4.914l.6068.793.7941-.608c1.3263-1.015 2.6707-2.027 4.0332-3.035l.804-.594-.5938-.803c2.1046-1.547 4.2512-3.084 6.4393-4.612l.5694.82.8215-.57c1.3568-.942 2.7294-1.88 4.1179-2.815l.8295-.558-.5577-.829c2.2053-1.475 4.4498-2.942 6.7328-4.4l.5353.843.8442-.536c1.3776-.875 2.7693-1.746 4.1749-2.614l.8508-.526-.5248-.849c2.2665-1.393 4.5687-2.776 6.9061-4.151l.5044.862.8631-.505c1.4282-.836 2.8695-1.668 4.3237-2.497l.8687-.496-.4948-.867c2.2742-1.29 4.5796-2.573 6.9156-3.847l.477.878.879-.476c1.465-.795 2.943-1.587 4.432-2.376l.884-.468-.468-.883c2.334-1.23 4.698-2.452 7.09-3.666l.45.891.893-.451c1.466-.741 2.943-1.478 4.431-2.213l.897-.443-.443-.896c2.396-1.178 4.819-2.348 7.27-3.511l.426.904.905-.427c1.495-.706 3-1.409 4.515-2.109l.908-.42-.42-.907c2.38-1.095 4.784-2.183 7.212-3.263l.405.914.914-.405c1.522-.675 3.054-1.346 4.595-2.015l.917-.398-.398-.917c2.439-1.053 4.901-2.1 7.385-3.139l.385.923.923-.385c1.513-.63 3.035-1.258 4.566-1.883l.925-.378-.377-.925c2.458-1 4.938-1.993 7.439-2.978l.365.93.931-.365c1.564-.614 3.137-1.225 4.717-1.833l.934-.36-.359-.932c2.444-.937 4.908-1.868 7.392-2.791l.347.937.937-.348c1.551-.574 3.109-1.146 4.674-1.715l.94-.342-.342-.939c2.518-.912 5.054-1.817 7.609-2.715l.331.943.944-.33c1.56-.546 3.127-1.09 4.701-1.631l.946-.325-.325-.945c2.484-.851 4.985-1.695 7.504-2.533l.314.949.949-.315c1.579-.523 3.163-1.043 4.755-1.561l.951-.309-.309-.951c2.548-.826 5.113-1.646 7.694-2.459l.3.954.954-.299c1.562-.491 3.131-.979 4.706-1.464l.956-.295-.295-.955c2.524-.775 5.063-1.544 7.617-2.306l.285.958.959-.285c1.599-.476 3.204-.949 4.814-1.42l.96-.28-.28-.96c2.558-.744 5.13-1.483 7.717-2.215l.272.962.962-.271c1.582-.446 3.169-.889 4.762-1.331l.964-.267-.267-.963c2.553-.705 5.12-1.403 7.7-2.096l.259.966.966-.258c1.614-.432 3.234-.861 4.859-1.288l.967-.254-.254-.967c2.569-.673 5.152-1.339 7.748-1.999l.245.969.97-.246c1.596-.405 3.197-.807 4.804-1.207l.97-.242-.242-.97c2.575-.639 5.162-1.272 7.761-1.899l.234.972.972-.234c1.626-.391 3.256-.779 4.891-1.165l.974-.23-.23-.973c2.584-.608 5.18-1.21 7.787-1.806l.222.975.975-.222c1.607-.366 3.219-.73 4.835-1.092l.976-.218-.218-.976c2.59-.577 5.191-1.149 7.803-1.714l.211.977.978-.211c1.633-.352 3.271-.703 4.914-1.051l.978-.207-.207-.978c2.6-.549 5.212-1.092 7.834-1.629l.2.979.98-.2c1.615-.33 3.235-.657 4.858-.983l.98-.196-.196-.981c2.601-.519 5.211-1.033 7.832-1.541l.19.982.982-.19c1.639-.316 3.282-.631 4.929-.943l.983-.186-.187-.982c2.62-.494 5.25-.983 7.889-1.466l.179.983.984-.179c1.621-.296 3.246-.589 4.874-.881l.985-.176-.176-.984c2.607-.464 5.224-.924 7.85-1.377l.17.985.985-.169c1.643-.283 3.29-.563 4.94-.842l.986-.166-.167-.986c2.641-.443 5.29-.881 7.948-1.313l.159.987.987-.16c1.626-.263 3.255-.524 4.887-.783l.987-.157-.156-.987c2.612-.413 5.232-.82 7.861-1.222l.15.988.989-.15c1.645-.251 3.293-.499 4.944-.745l.989-.147-.147-.989c2.65-.393 5.308-.781 7.974-1.163l.141.99.99-.142c1.64-.234 3.283-.465 4.929-.695l.991-.138-.139-.991c2.615-.363 5.237-.721 7.866-1.073l.132.991.991-.133c1.646-.22 3.295-.437 4.947-.653l.992-.129-.129-.991c2.648-.344 5.304-.683 7.968-1.016l.123.992.992-.123c1.664-.207 3.33-.412 4.999-.615l.993-.12-.121-.993c2.617-.316 5.24-.627 7.87-.933l.115.993.993-.114c1.646-.191 3.295-.379 4.947-.565l.994-.112-.112-.994c2.646-.297 5.299-.588 7.958-.874l.107.994.994-.107c1.662-.178 3.327-.353 4.994-.527l.995-.104-.104-.994c2.642-.274 5.291-.542 7.946-.805l.098.995.995-.098c1.646-.162 3.294-.323 4.945-.481l.995-.095-.095-.995c2.643-.252 5.292-.498 7.947-.739l.09.995.996-.089c1.66-.15 3.323-.298 4.988-.444l.996-.087-.087-.996c2.667-.232 5.34-.458 8.019-.68l.082.997.996-.082c1.645-.135 3.293-.268 4.942-.399l.997-.079-.079-.997c2.639-.208 5.284-.411 7.934-.608l.074.997.997-.074c1.658-.123 3.318-.244 4.981-.362l.997-.071-.071-.998c2.664-.189 5.335-.372 8.01-.55l.066.997.998-.066c1.67-.11 3.342-.219 5.017-.325l.998-.063-.064-.998c2.635-.166 5.275-.327 7.92-.482l.058.998.999-.058c1.655-.097 3.313-.191 4.973-.284l.998-.056-.055-.998c2.658-.147 5.321-.288 7.989-.425l.05.999.999-.051c1.667-.084 3.337-.166 5.008-.247l.998-.048-.047-.998c2.66-.127 5.325-.248 7.995-.364l.043.999.999-.043c1.654-.071 3.309-.14 4.965-.207l1-.041-.041-.999c2.652-.106 5.308-.206 7.969-.302l.035.999.999-.035c1.664-.059 3.33-.116 4.997-.171l1-.033-.033-.999c2.672-.087 5.348-.169 8.029-.245l.028 1 1-.028c1.663-.047 3.328-.091 4.994-.134l1-.025-.026-1c2.646-.066 5.295-.127 7.948-.183l.021 1 1-.021c1.66-.034 3.322-.066 4.985-.096l1-.018-.018-1c2.664-.047 5.332-.088 8.004-.125l.013 1 1-.014c1.67-.022 3.341-.042 5.013-.06l1-.01-.011-1c2.66-.027 5.324-.05 7.991-.067l.006 1 1-.006c1.657-.01 3.315-.017 4.975-.023l1-.004-.004-.999c2.657-.008 5.317-.011 7.98-.009l-.002 1 1 .001c1.666.002 3.332.007 5 .013l1 .004.004-1c2.672.011 5.348.028 8.028.049l-.009 1 1 .009c.837.007 1.674.014 2.511.023.837.008 1.674.016 2.511.026l1 .011.011-1c2.679.031 5.355.067 8.027.107l-.016 1 1 .016c1.668.026 3.334.055 4.999.085l1 .018.018-.999c2.663.049 5.322.104 7.978.164l-.023 1 .999.023c1.66.038 3.317.078 4.974.12l.999.026.026-1c2.666.07 5.329.144 7.988.223l-.03.999.999.031c1.672.05 3.342.103 5.011.158l1 .033.032-1c2.671.089 5.338.183 8 .282l-.037.999.999.038c1.662.063 3.323.127 4.983.194l.999.04.04-.999c2.652.108 5.3.22 7.943.338l-.045.999.999.045c1.665.075 3.329.152 4.991.231l.999.048.047-.999c2.679.129 5.353.262 8.023.401l-.052.999.999.052c1.665.088 3.33.177 4.992.269l.998.055.055-.999c2.659.148 5.312.301 7.961.459l-.06.997.999.06c1.655.1 3.308.201 4.96.305l.998.062.062-.998c2.667.168 5.33.342 7.987.52l-.067.998.998.067c1.669.113 3.336.228 5.002.345l.997.07.07-.997c2.665.189 5.325.382 7.979.581l-.075.997.997.075c1.658.125 3.313.252 4.967.381l.997.078.078-.997c2.641.207 5.277.419 7.909.637l-.083.996.996.083c1.672.139 3.342.28 5.01.423l.996.086.086-.996c2.671.23 5.337.466 7.997.707l-.09.995.995.091c1.66.151 3.318.304 4.973.46l.996.093.093-.995c2.646.249 5.286.504 7.921.763l-.099.995.995.099c1.647.163 3.291.328 4.933.495l.995.101.101-.994c2.675.273 5.343.552 8.005.836l-.107.994.994.107c1.662.178 3.322.358 4.979.541l.994.109.109-.994c2.65.293 5.294.591 7.931.895l-.115.993.994.114c1.647.191 3.292.383 4.934.577l.994.118.117-.993c2.649.315 5.292.635 7.928.961l-.123.992.993.123c1.663.206 3.324.414 4.982.625l.992.125.126-.991c2.654.338 5.3.681 7.94 1.03l-.131.991.991.131c1.648.219 3.293.439 4.935.662l.991.134.134-.991c2.624.357 5.24.719 7.85 1.087l-.14.99.99.14c1.665.235 3.327.472 4.986.712l.99.143.143-.99c2.656.385 5.305.776 7.946 1.171l-.149.989.989.149c1.648.247 3.292.497 4.934.749l.988.152.152-.988c2.622.404 5.236.813 7.843 1.227l-.16.987.99.158c1.64.262 3.28.526 4.91.792l.99.16.16-.986c2.66.434 5.31.873 7.95 1.318l-.17.986.99.167c1.65.278 3.29.558 4.93.841l.99.17.17-.985c2.62.453 5.23.911 7.83 1.375l-.18.984.99.176c1.63.291 3.25.584 4.87.879l.98.179.18-.984c2.65.484 5.29.974 7.92 1.469l-.18.982.98.185c1.64.311 3.28.623 4.92.938l.98.189.19-.982c2.62.505 5.23 1.015 7.82 1.531l-.19.98.98.195c1.62.323 3.24.649 4.86.976l.98.198.19-.979c2.63.534 5.25 1.074 7.86 1.62l-.2.978.98.206c1.64.344 3.27.69 4.91 1.039l.97.209.21-.978c2.61.559 5.21 1.124 7.8 1.694l-.21.976.97.216c1.62.357 3.23.716 4.84 1.077l.98.22.22-.976c2.61.589 5.21 1.183 7.8 1.783l-.23.973.98.227c1.63.38 3.26.762 4.89 1.146l.97.23.23-.973c2.6.617 5.19 1.239 7.77 1.867l-.24.971.97.238c1.61.393 3.22.788 4.82 1.186l.97.241.24-.97c2.59.647 5.18 1.299 7.75 1.957l-.25.969.97.248c1.63.418 3.25.839 4.87 1.261l.96.253.26-.967c2.58.677 5.16 1.361 7.72 2.05l-.26.965.96.261c1.6.431 3.19.865 4.78 1.301l.97.264.26-.964c2.58.711 5.15 1.428 7.71 2.151l-.27.961.96.273c1.61.459 3.23.92 4.83 1.383l.96.277.28-.96c2.56.742 5.12 1.491 7.66 2.246l-.29.957.96.286c1.58.473 3.16.947 4.73 1.424l.96.29.29-.956c2.57.782 5.13 1.57 7.67 2.365l-.3.954.96.299c1.6.502 3.2 1.006 4.78 1.513l.96.304.3-.952c2.54.812 5.06 1.63 7.57 2.455l-.31.949.95.313c1.56.516 3.12 1.035 4.68 1.555l.94.318.32-.947c2.57.863 5.12 1.733 7.65 2.609l-.33.944.94.328c1.58.549 3.16 1.1 4.73 1.654l.94.333.33-.942c2.5.886 4.99 1.779 7.46 2.678l-.35.939.94.343c1.56.572 3.12 1.146 4.67 1.723l.94.349.35-.937c2.53.948 5.05 1.902 7.55 2.863l-.36.933.93.36c1.56.599 3.1 1.201 4.64 1.806l.93.366.37-.93c2.46.972 4.91 1.95 7.33 2.935l-.37.925.92.378c1.57.639 3.13 1.28 4.68 1.925l.93.383.38-.923c2.48 1.035 4.94 2.076 7.38 3.123l-.4.918.92.396c1.52.655 3.03 1.312 4.53 1.972l.92.402.4-.914c2.46 1.087 4.9 2.181 7.32 3.282l-.41.909.9.416c1.53.699 3.05 1.4 4.56 2.104l.91.423.42-.905c2.4 1.127 4.79 2.262 7.14 3.403l-.43.898.9.438c1.5.729 2.99 1.462 4.47 2.197l.9.445.44-.895c2.43 1.21 4.83 2.427 7.2 3.652l-.46.887.89.46c1.47.764 2.93 1.53 4.38 2.3l.89.468.47-.883c2.36 1.261 4.7 2.529 7.01 3.805l-.48.873.87.486c1.48.817 2.94 1.638 4.39 2.461l.87.494.49-.868c2.31 1.319 4.59 2.646 6.84 3.981l-.51.857.86.513c1.43.857 2.86 1.718 4.27 2.581l.85.522.52-.852c2.32 1.42 4.59 2.849 6.83 4.285l-.54.839.84.542c1.39.896 2.76 1.794 4.12 2.696l.83.552.56-.833c2.25 1.503 4.47 3.013 6.64 4.532l-.57.817.82.575c1.37.961 2.72 1.926 4.06 2.894l.81.586.58-.809c2.16 1.571 4.28 3.15 6.35 4.738l-.61.79.79.611c1.35 1.034 2.67 2.072 3.98 3.113l.78.623.62-.781c2.08 1.67 4.12 3.348 6.1 5.034l-.64.759.76.65c1.28 1.095 2.54 2.194 3.78 3.295l.75.665.66-.747c2.01 1.802 3.97 3.613 5.88 5.433l-.7.719.72.693c1.19 1.144 2.36 2.291 3.5 3.442l.71.709.7-.704c1.92 1.943 3.77 3.896 5.57 5.859l-.74.669.67.741c1.1 1.22 2.18 2.443 3.23 3.67l.65.758.76-.65c1.77 2.077 3.46 4.165 5.09 6.262l-.79.607.61.793c1 1.31 1.98 2.623 2.93 3.939l.58.811.81-.582c1.57 2.214 3.07 4.438 4.49 6.673l-.85.528.53.848c.88 1.4 1.72 2.804 2.53 4.211l.5.866.87-.498c1.33 2.356 2.58 4.723 3.74 7.1l-.9.429.43.903c.71 1.486 1.39 2.977 2.03 4.471l.39.919.92-.392c1.04 2.49 1.99 4.99 2.83 7.501l-.94.309.31.951c.51 1.563.98 3.129 1.42 4.699l.26.964.96-.265c.69 2.596 1.28 5.201 1.76 7.817l-.98.169.17.985c.28 1.622.51 3.248.71 4.877l.12.993z" stroke="url(#d)" class="XvesEHrR_2"></path></g><style data-made-with="vivus-instant">.XvesEHrR_0{stroke-dasharray:2008 2010;stroke-dashoffset:2009;animation:XvesEHrR_draw_0 5200ms linear 0ms infinite,XvesEHrR_fade 5200ms linear 0ms infinite;}.XvesEHrR_1{stroke-dasharray:3005 3007;stroke-dashoffset:3006;animation:XvesEHrR_draw_1 5200ms linear 0ms infinite,XvesEHrR_fade 5200ms linear 0ms infinite;}.XvesEHrR_2{stroke-dasharray:3735 3737;stroke-dashoffset:3736;animation:XvesEHrR_draw_2 5200ms linear 0ms infinite,XvesEHrR_fade 5200ms linear 0ms infinite;}@keyframes XvesEHrR_draw{100%{stroke-dashoffset:0;}}@keyframes XvesEHrR_fade{0%{stroke-opacity:1;}92.3076923076923%{stroke-opacity:1;}100%{stroke-opacity:0;}}@keyframes XvesEHrR_draw_0{15.384615384615385%{stroke-dashoffset: 2009}53.84615384615385%{ stroke-dashoffset: 0;}100%{ stroke-dashoffset: 0;}}@keyframes XvesEHrR_draw_1{25%{stroke-dashoffset: 3006}63.46153846153846%{ stroke-dashoffset: 0;}100%{ stroke-dashoffset: 0;}}@keyframes XvesEHrR_draw_2{34.61538461538461%{stroke-dashoffset: 3736}73.07692307692307%{ stroke-dashoffset: 0;}100%{ stroke-dashoffset: 0;}}</style></svg>