<svg fill="none" height="1027" viewBox="0 0 1440 1027" width="1440" xmlns="http://www.w3.org/2000/svg" xmlns:xlink="http://www.w3.org/1999/xlink" style=""><linearGradient id="a" gradientUnits="userSpaceOnUse" x1="77" x2="55" y1="11" y2="43"><stop offset="0" stop-color="#beb7a6"></stop><stop offset="1" stop-color="#ddd" stop-opacity="0"></stop></linearGradient><linearGradient id="b" gradientUnits="userSpaceOnUse" x1="-51.0002" x2="-29.0002" y1="609" y2="-105"><stop offset="0" stop-color="#7c7c7c"></stop><stop offset="1" stop-color="#ddd" stop-opacity="0"></stop></linearGradient><linearGradient id="c" gradientUnits="userSpaceOnUse" x1="1189" x2="739" y1="187" y2="25"><stop offset="0" stop-color="#989586"></stop><stop offset="1" stop-color="#ddd" stop-opacity="0"></stop></linearGradient><g stroke-width="2" stroke-dasharray="5 10" stroke-linecap="square"><path d="m657.955-96.3112c1.795 2.3854 3.432 4.8723 4.906 7.4614l-.434.2434.244.4362c.402.7188.792 1.4455 1.17 2.18.377.7346.741 1.4749 1.091 2.2208l.212.4527.451-.2117c1.246 2.7064 2.315 5.4854 3.209 8.3336l-.477.1459.147.4781c.48 1.5692.908 3.1596 1.283 4.7706l.113.487.485-.1129c.649 2.8747 1.133 5.8138 1.454 8.814l-.496.0501.05.4975c.164 1.6226.28 3.2634.35 4.9219l.02.4996.499-.0209c.105 2.9289.065 5.9113-.117 8.9446l-.498-.0324-.032.499c-.106 1.6221-.253 3.2591-.44 4.9105l-.056.4969.496.0561c-.342 2.8984-.807 5.8399-1.394 8.8223l-.49-.0983-.098.4902c-.326 1.6214-.688 3.2552-1.085 4.9009l-.117.4861.485.1171c-.693 2.8243-1.49 5.6829-2.39 8.574l-.476-.1498-.15.4769c-.491 1.56-1.012 3.1297-1.562 4.7087l-.165.4721.471.1644c-.975 2.77206-2.041 5.57216-3.196 8.39885l-.462-.19014-.191.46234c-.614 1.492834-1.254 2.993144-1.918 4.50077l-.202.45753.457.20139c-1.195 2.69555-2.469 5.41383-3.821 8.15366l-.447-.2218-.222.4479c-.718 1.4483-1.458 2.9026-2.219 4.3629l-.232.4433.443.2309c-1.37 2.6151-2.808 5.2487-4.314 7.8998l-.434-.2475-.248.4344c-.803 1.4087-1.626 2.8225-2.467 4.2412l-.255.43.429.2549c-1.513 2.5417-3.088 5.0986-4.721 7.6699l-.421-.2686-.269.4216c-.873 1.3685-1.762 2.741-2.668 4.1175l-.275.4177.417.2747c-1.635 2.4764-3.324 4.9655-5.067 7.4664l-.409-.2862-.287.4098c-.928 1.3284-1.871 2.6602-2.829 3.9953l-.292.4061.406.2914c-1.733 2.4075-3.514 4.8253-5.343 7.2528l-.398-.3011-.302.399c-.982 1.3011-1.979 2.605-2.989 3.9116l-.305.3956.395.3056c-1.807 2.3331-3.658 4.6746-5.552 7.024l-.389-.314-.314.389c-1.04 1.2877-2.093 2.5778-3.158 3.8702l-.319.3857.386.318c-1.869 2.2618-3.777 4.5304-5.723 6.8054l-.379-.3253-.326.3797c-1.084 1.2646-2.179 2.5312-3.287 3.7996l-.329.3767.377.3287c-1.932 2.2082-3.899 4.422-5.902 6.6409l-.371-.3351-.335.3709c-1.109 1.2264-2.228 2.4543-3.358 3.6838l-.339.3679.368.338c-2.004 2.177-4.041 4.358-6.112 6.543l-.362-.344-.344.363c-1.13 1.191-2.269 2.382-3.418 3.575l-.347.36.36.347c-2.073 2.148-4.177 4.3-6.313 6.456l-.354-.352-.353.355c-1.147 1.156-2.303 2.313-3.468 3.472l-.355.352.353.355c-2.101 2.085-4.23 4.173-6.388 6.264l-.347-.36-.36.348c-1.2 1.162-2.409 2.324-3.627 3.487l-.362.345.346.362c-2.124 2.025-4.274 4.052-6.45 6.081l-.341-.366-.366.341c-1.211 1.128-2.43 2.257-3.658 3.386l-.368.339.339.367c-2.186 2.009-4.397 4.018-6.633 6.029l-.334-.372-.372.335c-1.221 1.096-2.449 2.194-3.685 3.291l-.374.332.332.374c-2.228 1.976-4.48 3.954-6.756 5.931l-.328-.377-.377.328c-1.247 1.082-2.502 2.165-3.763 3.248l-.379.326.326.379c-2.24 1.921-4.501 3.842-6.784 5.764l-.322-.383-.382.322c-1.271 1.068-2.548 2.136-3.832 3.204l-.384.319.319.385c-2.28 1.895-4.581 3.789-6.903 5.683l-.316-.387-.388.316c-1.275 1.039-2.557 2.079-3.845 3.118l-.389.314.314.389c-2.322 1.871-4.663 3.741-7.025 5.611l-.31-.392-.392.31c-1.295 1.025-2.597 2.05-3.905 3.074l-.393.308.308.394c-2.326 1.82-4.671 3.64-7.034 5.458l-.305-.396-.396.305c-1.315 1.01-2.636 2.021-3.962 3.031l-.398.302.303.398c-2.365 1.8-4.749 3.598-7.15 5.395l-.3-.4-.4.299c-1.318.985-2.64 1.969-3.968 2.953l-.402.297.298.402c-2.393 1.771-4.802 3.54-7.229 5.307l-.294-.404-.404.294c-1.347.98-2.699 1.959-4.056 2.938l-.405.292.292.406c-2.394 1.724-4.804 3.447-7.23 5.168l-.289-.408-.408.289c-1.349.956-2.704 1.912-4.063 2.867l-.41.288.288.409c-2.445 1.716-4.905 3.43-7.381 5.141l-.284-.412-.412.285c-1.351.932-2.706 1.865-4.067 2.796l-.412.282.282.413c-2.449 1.675-4.912 3.348-7.391 5.018l-.279-.414-.415.279c-1.378.928-2.761 1.855-4.148 2.781l-.416.278.278.416c-2.47 1.647-4.953 3.291-7.45 4.932l-.275-.417-.418.274c-1.378.905-2.761 1.809-4.147 2.713l-.419.272.272.419c-2.497 1.626-5.009 3.248-7.534 4.867l-.27-.421-.421.27c-1.4.897-2.804 1.793-4.212 2.688l-.422.268.268.422c-2.497 1.585-5.006 3.167-7.528 4.745l-.265-.424-.423.265c-1.403.877-2.81 1.753-4.221 2.628l-.425.264.264.425c-2.542 1.575-5.096 3.146-7.662 4.713l-.26-.426-.427.26c-1.404.857-2.811 1.712-4.222 2.567l-.428.259.259.427c-2.539 1.536-5.09 3.068-7.652 4.596l-.256-.43-.429.256c-1.425.849-2.854 1.697-4.286 2.544l-.431.254.255.43c-2.565 1.515-5.142 3.026-7.73 4.533l-.251-.433-.432.252c-1.425.829-2.853 1.656-4.284 2.482l-.433.25.25.433c-2.577 1.486-5.166 2.968-7.765 4.445l-.247-.435-.434.247c-1.445.821-2.894 1.64-4.345 2.458l-.436.246.246.435c-2.588 1.457-5.187 2.91-7.795 4.357l-.243-.437-.437.243c-1.444.801-2.892 1.6-4.343 2.398l-.438.241.241.438c-2.612 1.436-5.234 2.867-7.867 4.294l-.238-.44-.439.238c-1.463.792-2.93 1.583-4.399 2.372l-.441.236.237.441c-2.611 1.401-5.231 2.797-7.861 4.188l-.234-.442-.442.234c-1.462.773-2.927 1.544-4.396 2.314l-.443.232.232.443c-2.644 1.385-5.297 2.765-7.96 4.14l-.229-.444-.445.229c-.369.19-.738.38-1.107.57-.372.192-.743.383-1.115.574-.34.175-.681.349-1.021.524-.401.206-.802.411-1.203.616l-.445.228.228.445c-2.669 1.364-5.336 2.718-8.002 4.061l-.225-.447-.446.225c-1.481.745-2.962 1.487-4.442 2.226l-.447.224.223.447c-2.662 1.328-5.323 2.645-7.982 3.951l-.22-.448-.449.22c-1.497.735-2.994 1.467-4.49 2.195l-.45.219.219.449c-2.692 1.31-5.383 2.608-8.071 3.895l-.216-.451-.451.216c-1.494.715-2.987 1.426-4.479 2.134l-.452.214.215.452c-2.696 1.277-5.39 2.544-8.082 3.799l-.211-.453-.453.211c-1.51.704-3.02 1.404-4.528 2.101l-.454.21.209.454c-2.714 1.252-5.426 2.494-8.135 3.723l-.206-.455-.456.207c-1.505.682-3.009 1.361-4.512 2.037l-.456.205.205.456c-2.732 1.226-5.461 2.441-8.186 3.644l-.202-.457-.457.201c-1.522.672-3.043 1.339-4.563 2.003l-.458.201.2.458c-2.735 1.193-5.465 2.375-8.192 3.544l-.197-.459-.46.197c-1.516.649-3.031 1.295-4.545 1.937l-.46.196.195.46c-2.769 1.173-5.533 2.335-8.294 3.484l-.192-.462-.461.192c-1.533.637-3.064 1.271-4.594 1.9l-.463.191.19.462c-2.751 1.131-5.498 2.25-8.24 3.356l-.187-.463-.464.187c-1.547.623-3.094 1.243-4.638 1.859l-.465.185.185.465c-2.786 1.109-5.567 2.206-8.344 3.29l-.181-.465-.466.181c-1.542.602-3.082 1.199-4.621 1.793l-.466.18.18.466c-2.789 1.075-5.572 2.136-8.349 3.184l-.176-.468-.468.177c-1.561.588-3.12 1.172-4.677 1.752l-.468.175.174.468c-2.8 1.043-5.595 2.071-8.384 3.087l-.17-.47-.47.171c-1.549.563-3.097 1.122-4.642 1.677l-.47.169.169.471c-2.833 1.016-5.659 2.018-8.478 3.007l-.165-.472-.472.165c-1.568.549-3.134 1.094-4.6978 1.634l-.4726.163.1633.473c-2.8112.97-5.6151 1.926-8.4113 2.867l-.1593-.473-.4739.159c-1.5859.533-3.1692 1.062-4.75 1.586l-.4746.158.1573.474c-2.8495.944-5.6908 1.872-8.5235 2.786l-.1533-.476-.4759.154c-1.5731.506-3.1436 1.008-4.7113 1.506l-.4766.151.1512.477c-2.859.906-5.7089 1.796-8.5496 2.671l-.1469-.478-.4779.147c-1.5934.49-3.1837.976-4.7711 1.456l-.4785.145.1448.478c-2.8544.863-5.6991 1.709-8.5337 2.54l-.1404-.48-.4798.141c-1.5942.466-3.1852.928-4.7729 1.384l-.4805.138.1381.481c-2.895.831-5.7791 1.645-8.652 2.443l-.1335-.482-.4819.133c-1.5948.442-3.1861.879-4.7739 1.311l-.4825.131.1312.482c-2.8922.785-5.7726 1.552-8.641 2.303l-.1262-.484-.4838.126c-1.6158.422-3.2278.839-4.8358 1.25l-.4845.123.1238.485c-2.8914.737-5.77001 1.457-8.6356 2.158l-.11866-.485-.48571.118c-1.61492.395-3.22564.784-4.832152 1.167l-.486341.116.11603.487c-2.932987.698-5.851847 1.377-8.756107 2.038l-.11056-.488-.4876.111c-1.6119.365-3.2192.725-4.8219 1.079l-.4883.108.1078.488c-2.9367.647-5.858 1.274-8.7635 1.881l-.102-.489-.4894.102c-1.6327.34-3.2604.674-4.8829 1.002l-.4901.099.099.49c-2.9167.587-5.8167 1.155-8.6998 1.702l-.0929-.492-.4913.093c-1.6546.313-3.3036.619-4.9469.919l-.4919.089.0897.492c-2.956.537-5.8936 1.052-8.812 1.545l-.083-.493-.4931.083c-1.62.273-3.2341.539-4.8423.798l-.4936.08.0795.493c-2.9957.481-5.9707.938-8.9243 1.372l-.0723-.494-.4948.072c-1.6387.24-3.2709.472-4.8963.697l-.4953.069.0686.495c-2.9823.41-5.9419.796-8.8784 1.158l-.0607-.496-.4963.061c-1.6576.203-3.3078.398-4.9504.585l-.4968.056.0566.497c-2.97.336-5.9154.646-8.8354.93l-.0481-.497-.4976.048c-1.6762.162-3.3441.315-5.0031.46l-.498.043.043.498c-2.983.257-5.938.487-8.865.689l-.034-.498-.499.034c-1.671.114-3.333.218-4.985.314l-.5.029.029.499c-3.012.171-5.994.312-8.943.423l-.018-.499-.5.018c-1.65.06-3.29.111-4.92.152l-.5.012.013.5c-3.039.073-6.042.113-9.008.119v-.499h-.5c-1.644.002-3.276-.007-4.896-.026l-.5-.006-.006.5c-3.048-.04-6.055-.116-9.02-.229l.019-.499-.499-.02c-1.647-.065-3.281-.141-4.901-.229l-.499-.027-.027.499c-3.042-.169-6.037-.378-8.985-.628l.043-.498-.498-.043c-1.644-.142-3.272-.296-4.885-.463l-.497-.052-.052.497c-3.032-.32-6.011-.684-8.934-1.093l.07-.494-.495-.071c-1.631-.231-3.244-.477-4.839-.736l-.494-.08-.08.492c-3.014-.496-5.966-1.044-8.854-1.641l.103-.489-.49-.103c-1.612-.338-3.204-.691-4.776-1.061l-.487-.115-.114.487c-2.971-.707-5.868-1.471-8.689-2.292l.141-.479-.48-.142c-1.604-.472-3.184-.962-4.738-1.472l-.475-.155-.155.474c-2.875-.952-5.663-1.969-8.362-3.05l.187-.463-.463-.187c-1.57-.636-3.109-1.293-4.617-1.972l-.455-.206-.205.455c-2.767-1.259-5.429-2.594-7.984-4.004l.243-.435-.437-.244c-1.451-.81-2.868-1.644-4.248-2.503l-.424-.264-.264.424c-2.572-1.618-5.02-3.323-7.339-5.114l.307-.393-.394-.308c-1.308-1.022-2.574-2.072-3.798-3.15l-.375-.33-.33.374c-2.252-2.009-4.359-4.113-6.319-6.315l.375-.329-.33-.375c-1.092-1.243-2.135-2.517-3.131-3.821l-.304-.398-.396.302c-1.795-2.385-3.432-4.872-4.906-7.461l.434-.243-.244-.437c-.402-.718-.792-1.445-1.17-2.18-.377-.734-.741-1.474-1.091-2.22l-.212-.453-.451.212c-1.246-2.707-2.315-5.486-3.209-8.334l.477-.146-.147-.478c-.48-1.569-.908-3.16-1.283-4.771l-.113-.487-.485.113c-.649-2.874-1.133-5.813-1.454-8.814l.496-.05-.05-.497c-.164-1.623-.28-3.264-.35-4.922l-.02-.5-.499.021c-.105-2.929-.065-5.911.117-8.944l.498.032.032-.499c.106-1.622.253-3.259.44-4.911l.056-.496-.496-.057c.342-2.898.807-5.839 1.394-8.822l.49.099.098-.491c.326-1.621.688-3.255 1.085-4.901l.117-.486-.485-.117c.693-2.824 1.49-5.683 2.39-8.574l.476.15.15-.477c.491-1.56 1.012-3.13 1.562-4.709l.165-.472-.471-.164c.975-2.772 2.041-5.572 3.196-8.399l.462.19.191-.462c.614-1.493 1.254-2.993 1.918-4.501l.202-.457-.457-.202c1.195-2.695 2.469-5.414 3.821-8.154l.447.222.222-.448c.718-1.448 1.458-2.902 2.219-4.362l.232-.444-.443-.231c1.37-2.615 2.808-5.248 4.314-7.9l.434.248.248-.434c.803-1.409 1.626-2.823 2.467-4.242l.256-.43-.43-.255c1.513-2.541 3.088-5.098 4.721-7.669l.421.268.269-.421c.873-1.369 1.762-2.741 2.668-4.118l.275-.418-.417-.274c1.635-2.477 3.324-4.966 5.067-7.467l.409.287.287-.41c.928-1.329 1.871-2.661 2.829-3.996l.292-.406-.406-.291c1.733-2.408 3.514-4.825 5.343-7.253l.398.301.302-.399c.982-1.301 1.979-2.605 2.988-3.911l.306-.396-.395-.306c1.807-2.333 3.658-4.674 5.552-7.024l.389.314.314-.389c1.04-1.287 2.093-2.577 3.158-3.87l.319-.386-.386-.318c1.869-2.261 3.777-4.53 5.723-6.805l.379.325.326-.379c1.084-1.265 2.179-2.532 3.287-3.8l.329-.377-.377-.328c1.932-2.209 3.899-4.422 5.902-6.641l.371.335.335-.371c1.109-1.226 2.228-2.454 3.358-3.684l.339-.368-.368-.338c2.004-2.177 4.041-4.358 6.112-6.543l.362.344.344-.363c1.13-1.19 2.269-2.382 3.418-3.575l.347-.36-.36-.346c2.073-2.149 4.177-4.301 6.313-6.456l.354.352.353-.355c1.147-1.157 2.303-2.314 3.468-3.472l.355-.353-.353-.354c2.101-2.086 4.23-4.174 6.388-6.264l.347.359.36-.348c1.2-1.161 2.409-2.324 3.627-3.487l.362-.345-.345-.361c2.123-2.026 4.273-4.053 6.449-6.082l.341.366.366-.341c1.211-1.128 2.43-2.257 3.658-3.386l.368-.338-.339-.368c2.186-2.008 4.397-4.018 6.633-6.029l.334.372.372-.334c1.221-1.097 2.449-2.194 3.685-3.292l.374-.332-.332-.374c2.228-1.976 4.48-3.953 6.756-5.931l.328.377.377-.327c1.247-1.083 2.502-2.166 3.763-3.249l.379-.326-.326-.379c2.24-1.921 4.501-3.842 6.784-5.763l.322.382.383-.322c1.27-1.068 2.547-2.135 3.831-3.203l.384-.32-.319-.384c2.28-1.895 4.581-3.79 6.903-5.684l.316.387.388-.316c1.275-1.039 2.557-2.078 3.845-3.118l.389-.314-.314-.389c2.322-1.871 4.663-3.741 7.025-5.611l.31.392.392-.31c1.295-1.025 2.597-2.049 3.905-3.074l.393-.308-.308-.394c2.326-1.82 4.671-3.64 7.0342-5.458l.3047.396.3964-.304c1.3148-1.011 2.6354-2.021 3.9617-3.031l.3978-.303-.3029-.398c2.3656-1.8 4.7492-3.598 7.1505-5.395l.2993.401.4004-.3c1.3174-.984 2.6401-1.969 3.9681-2.953l.4018-.297-.2976-.402c2.3925-1.771 4.8021-3.5397 7.2285-5.3067l.2941.4042.4043-.2942c1.3467-.9798 2.6986-1.9591 4.0557-2.9377l.4055-.2925-.2924-.4054c2.3939-1.7248 4.8038-3.4475 7.2295-5.168l.289.4078.4079-.2891c1.3498-.9565 2.7044-1.9123 4.0639-2.8674l.4091-.2875-.2874-.409c2.4449-1.7161 4.9054-3.4299 7.3813-5.1411l.2841.4114.4114-.2841c1.351-.9329 2.7066-1.8651 4.0667-2.7964l.4126-.2825-.2825-.4124c2.4491-1.6756 4.9129-3.3485 7.3912-5.0185l.2792.4146.4148-.2792c1.3782-.928 2.761-1.8551 4.1482-2.7812l.4158-.2777-.2776-.4157c2.4693-1.6473 4.9526-3.2916 7.4499-4.9329l.2744.4179.418-.2745c1.3784-.9051 2.761-1.8094 4.1478-2.7126l.419-.2729-.2728-.4189c2.4979-1.6255 5.0093-3.2479 7.5343-4.8669l.2697.421.421-.2698c1.4001-.897 2.80439-1.793 4.21276-2.688l.42199-.2681-.2681-.422c2.49632-1.585 5.00549-3.1666 7.527284-4.7447l.26502.4239.423946-.2651c1.40288-.8771 2.80969-1.7532 4.22037-2.6282l.42491-.2635-.26349-.4249c2.54143-1.575 5.09541-3.1463 7.66181-4.7137l.2604.4267.4268-.2605c1.4037-.8566 2.8111-1.7121 4.2221-2.5663l.4277-.259-.2589-.4276c2.5388-1.5358 5.0895-3.0678 7.6518-4.5957l.2559.4294.4296-.2559c1.4249-.849 2.8534-1.6968 4.2856-2.5433l.4304-.2544-.2543-.4304c2.565-1.5148 5.1415-3.0256 7.7293-4.5322l.2514.4322.4322-.2514c1.4246-.8287 2.8526-1.6561 4.2841-2.4822l.433-.2499-.2498-.433c2.5771-1.4861 5.1653-2.9679 7.7644-4.4452l.2469.4347.4347-.2469c1.445-.8207 2.8932-1.64 4.3449-2.4579l.4356-.2454-.2454-.4356c2.5878-1.4569 5.1862-2.9093 7.7949-4.35712l.2424.43721.4373-.24249c1.4443-.80092 2.8918-1.60044 4.3425-2.39851l.4381-.241-.241-.43801c2.6122-1.43588 5.2345-2.86704 7.8669-4.29336l.238.43963.4397-.23805c1.4632-.79217 2.9295-1.582828 4.3989-2.3719484l.4405-.2365786-.2365-.440419c2.6106-1.400914 5.2309-2.796984 7.8608-4.188074l.2336.44199.442-.23365c1.4625-.77296 2.9279-1.54436 4.3962-2.31419l.4429-.23218-.2322-.44275c2.6442-1.38519 5.2975-2.7653 7.9605-4.1402l.229.4443.445-.2292c.74-.3817 1.48-.763 2.222-1.144.741-.3809 1.483-.761 2.224-1.1403l.445-.2278-.228-.445c2.669-1.3643 5.336-2.7179 8.002-4.0608l.225.4465.446-.2248c1.481-.7454 2.962-1.4874 4.442-2.2262l.447-.2234-.223-.4473c2.662-1.3278 5.323-2.645 7.982-3.9516l.22.4488.449-.2204c1.498-.735 2.994-1.4665 4.49-2.1947l.45-.2189-.219-.4495c2.692-1.3094 5.383-2.6078 8.071-3.8952l.216.4509.451-.2157c1.494-.7146 2.987-1.4258 4.479-2.1336l.452-.2143-.215-.4516c2.696-1.2777 5.39-2.5442 8.082-3.7996l.211.4531.453-.2112c1.51-.7038 3.02-1.4041 4.528-2.1008l.454-.2097-.209-.4538c2.714-1.2526 5.426-2.4938 8.135-3.7235l.206.4552.456-.2065c1.505-.6826 3.009-1.3617 4.512-2.0373l.456-.2049-.205-.456c2.732-1.2265 5.461-2.4413 8.186-3.6444l.202.4574.457-.2017c1.522-.6714 3.043-1.339 4.563-2.0031l.458-.2001-.2-.4581c2.735-1.1933 5.465-2.3748 8.192-3.5443l.197.4595.46-.197c1.516-.6496 3.031-1.2956 4.545-1.9379l.46-.1953-.195-.4602c2.769-1.1735 5.533-2.3348 8.294-3.4837l.192.4616.461-.1919c1.533-.6373 3.064-1.2708 4.594-1.9005l.463-.1903-.19-.4623c2.751-1.1311 5.498-2.2499 8.24-3.3563l.187.4637.464-.1869c1.547-.6238 3.094-1.2436 4.638-1.8595l.465-.1852-.185-.4644c2.786-1.1098 5.567-2.2068 8.344-3.2908l.181.4657.466-.1817c1.542-.6014 3.082-1.1989 4.621-1.7924l.466-.1799-.18-.4664c2.789-1.0744 5.572-2.1357 8.349-3.1839l.176.4678.468-.1764c1.561-.5884 3.12-1.1726 4.677-1.7527l.468-.1745-.174-.4685c2.801-1.0422 5.595-2.071 8.384-3.0863l.17.4698.47-.1708c1.549-.5634 3.097-1.1227 4.642-1.6777l.47-.169-.169-.4705c2.833-1.0163 5.659-2.0186 8.478-3.0068l.165.4718.472-.1652c1.568-.549 3.134-1.0936 4.698-1.6339l.472-.1633-.163-.4725c2.811-.97 5.615-1.9259 8.411-2.8676l.16.4738.474-.1594c1.585-.5334 3.169-1.0621 4.75-1.5864l.474-.1573-.157-.4745c2.849-.9436 5.691-1.8723 8.523-2.7861l.154.4758.476-.1533c1.573-.5067 3.143-1.0088 4.711-1.5063l.476-.1512-.151-.476c2.859-.906 5.709-1.797 8.55-2.672l.147.478.478-.147c1.593-.49 3.183-.975 4.771-1.456l.478-.145-.144-.478c2.854-.862 5.699-1.709 8.533-2.54l.141.48.479-.141c1.595-.466 3.186-.928 4.773-1.384l.481-.138-.138-.481c2.895-.831 5.779-1.645 8.652-2.442l.133.481.482-.133c1.595-.442 3.186-.879 4.774-1.31l.482-.132-.131-.482c2.892-.785 5.773-1.552 8.641-2.303l.127.484.483-.126c1.616-.422 3.228-.838 4.836-1.249l.485-.124-.124-.484c2.891-.738 5.77-1.457 8.635-2.159l.119.485.486-.118c1.615-.395 3.225-.784 4.832-1.167l.486-.116-.116-.486c2.933-.699 5.852-1.378 8.756-2.038l.111.487.488-.11c1.611-.366 3.219-.726 4.821-1.08l.489-.108-.108-.488c2.937-.646 5.858-1.273 8.763-1.881l.102.49.49-.102c1.633-.341 3.26-.675 4.883-1.003l.49-.099-.099-.49c2.916-.587 5.817-1.154 8.7-1.701l.093.491.491-.093c1.654-.313 3.303-.619 4.947-.919l.492-.089-.09-.492c2.956-.537 5.893-1.052 8.812-1.545l.083.493.493-.083c1.62-.273 3.234-.539 4.842-.798l.494-.08-.08-.493c2.996-.481 5.971-.938 8.925-1.372l.072.494.495-.072c1.639-.239 3.271-.472 4.896-.697l.495-.068-.068-.495c2.982-.411 5.942-.797 8.878-1.159l.061.496.496-.061c1.658-.202 3.308-.397 4.951-.584l.496-.057-.056-.497c2.97-.335 5.915-.646 8.835-.93l.048.497.498-.048c1.676-.161 3.344-.315 5.003-.459l.498-.044-.043-.498c2.983-.257 5.938-.487 8.865-.689l.034.498.499-.034c1.671-.113 3.333-.218 4.985-.314l.5-.029-.029-.499c3.012-.171 5.994-.312 8.943-.423l.018.5.5-.019c1.65-.06 3.29-.11 4.92-.151l.5-.013-.013-.5c3.039-.073 6.042-.113 9.008-.119v.499h.5c1.644-.002 3.276.007 4.896.026l.5.006.006-.5c3.048.04 6.055.116 9.02.229l-.019.499.499.02c1.647.065 3.281.141 4.901.229l.499.027.027-.499c3.042.169 6.037.378 8.985.628l-.043.498.498.043c1.644.142 3.272.296 4.885.463l.498.052.051-.497c3.032.32 6.011.684 8.934 1.093l-.07.495.495.07c1.631.231 3.244.477 4.839.736l.494.081.08-.493c3.014.497 5.966 1.044 8.854 1.642l-.103.488.49.103c1.612.338 3.204.692 4.776 1.061l.487.115.114-.486c2.971.706 5.868 1.47 8.689 2.292l-.14.479.479.141c1.604.472 3.184.962 4.738 1.472l.475.156.155-.475c2.875.952 5.663 1.969 8.362 3.05l-.187.463.463.188c1.57.635 3.109 1.292 4.617 1.971l.455.206.205-.455c2.767 1.26 5.429 2.594 7.984 4.004l-.243.436.437.243c1.451.81 2.868 1.644 4.248 2.503l.424.264.264-.424c2.572 1.619 5.02 3.323 7.339 5.114l-.307.393.394.308c1.308 1.022 2.575 2.072 3.798 3.15l.375.331.33-.374c2.252 2.008 4.36 4.113 6.319 6.314l-.375.329.33.376c1.092 1.2427 2.136 2.5164 3.131 3.8207l.304.3974z" stroke="url(#a)" class="UMNFEOGM_0"></path><path d="m1013.23-120.763c1.87 2.366 3.63 4.814 5.27 7.344l-.42.27.27.42c.45.702.9 1.409 1.33 2.123s.86 1.433 1.27 2.157l.25.434.43-.248c1.49 2.626 2.85 5.314 4.09 8.062l-.46.2028.2.457c.68 1.5148 1.31 3.0479 1.91 4.599l.18.4665.47-.1795c1.07 2.81 2.01 5.6781 2.84 8.6026l-.48.1335.13.4818c.44 1.5842.85 3.1851 1.22 4.8024l.11.4875.49-.1114c.65 2.9241 1.19 5.9009 1.63 8.9285l-.5.0682.07.4953c.22 1.6218.42 3.2584.58 4.9095l.04.4976.5-.0482c.28 2.9794.45 6.005.53 9.0754l-.5.0101.01.4999c.03 1.6329.03 3.2787.01 4.937l-.01.4999.5.0074c-.05 2.9947-.2 6.0295-.44 9.1033l-.5-.0401-.04.4984c-.13 1.6232-.28 3.2572-.47 4.9021l-.05.497.5.0548c-.34 2.9773-.76 5.9891-1.26 9.0346l-.5-.0825-.08.4932c-.27 1.6087-.56 3.2269-.88 4.8544l-.09.4909.49.0949c-.57 2.9238-1.22 5.8769-1.94 8.8586l-.48-.1179-.12.4858c-.39 1.61149-.8 3.23135-1.24 4.85941l-.13.48318.49.12855c-.77 2.85422-1.6 5.7333448-2.49 8.63659l-.48-.14781-.15.47756c-.5 1.61154-1.02 3.2305-1.55 4.85688l-.16.47469.47.15692c-.93 2.78753-1.91 5.59623-2.95 8.42553l-.47-.1732-.17.469c-.58 1.5658-1.18 3.1381-1.79 4.7166l-.18.4661.46.1809c-1.08 2.7708-2.21 5.5607-3.4 8.3687l-.46-.195-.19.4603c-.65 1.5192-1.3 3.0438-1.98 4.5737l-.2.4575.46.2016c-1.23 2.7616-2.5 5.5403-3.82 8.3353l-.45-.2138-.21.4519c-.7 1.473-1.41 2.9507-2.13 4.4328l-.22.4492.44.2194c-1.31 2.6737-2.66 5.3619-4.06 8.0641l-.44-.2301-.23.4438c-.78 1.4998-1.57 3.004-2.376 4.5125l-.236.4411.441.2351c-1.39 2.5998-2.819 5.2121-4.287 7.8363l-.436-.2445-.245.4361c-.814 1.4515-1.64 2.9066-2.477 4.3653l-.249.4336.433.2489c-1.502 2.6109-3.043 5.2333-4.62 7.8668l-.429-.2572-.257.4286c-.844 1.4058-1.699 2.8148-2.564 4.2268l-.261.4264.426.2611c-1.563 2.5463-3.161 5.1026-4.793 7.6685l-.421-.2685-.269.4217c-.907 1.4242-1.825 2.8518-2.753 4.2818l-.273.419.419.272c-1.612 2.481-3.257 4.97-4.932 7.467l-.415-.279-.279.415c-.926 1.379-1.862 2.761-2.808 4.145l-.282.413.413.281c-1.71 2.499-3.449 5.005-5.22 7.518l-.408-.288-.288.409c-.433.614-.868 1.227-1.304 1.842-.52.733-1.043 1.466-1.568 2.2l-.291.406.406.291c-1.732 2.417-3.492 4.84-5.28 7.27l-.402-.297-.297.403c-.994 1.349-1.996 2.701-3.007 4.055l-.3.4.401.299c-1.798 2.404-3.622 4.814-5.473 7.23l-.397-.304-.304.397c-1.004 1.309-2.016 2.62-3.035 3.932l-.307.395.395.307c-1.84 2.365-3.705 4.737-5.594 7.113l-.391-.311-.311.391c-1.05 1.319-2.108 2.64-3.173 3.962l-.314.39.39.313c-1.868 2.316-3.76 4.637-5.674 6.963l-.386-.318-.318.386c-1.055 1.28-2.116 2.562-3.185 3.845l-.32.384.384.32c-1.93 2.313-3.881 4.631-5.855 6.952l-.381-.324-.324.381c-1.095 1.286-2.197 2.574-3.305 3.862l-.326.379.379.326c-1.932 2.244-3.885 4.492-5.858 6.743l-.376-.33-.33.376c-1.098 1.251-2.202 2.503-3.312 3.757l-.332.374.374.331c-2.004 2.26-4.029 4.524-6.074 6.79l-.371-.335-.335.371c-1.122 1.242-2.25 2.485-3.383 3.728l-.337.37.369.337c-2.002 2.194-4.023 4.391-6.063 6.59l-.366-.34-.34.367c-1.135 1.222-2.275 2.445-3.421 3.669l-.341.365.365.341c-2.069 2.207-4.155 4.416-6.261 6.628l-.362-.345-.344.362c-1.15 1.207-2.306 2.415-3.467 3.623l-.346.361.36.346c-2.062 2.145-4.141 4.291-6.238 6.44l-.358-.35-.349.358c-.706.723-1.414 1.446-2.124 2.17-.462.471-.925.942-1.389 1.413l-.351.356.356.351c-2.122 2.154-4.262 4.31-6.419 6.468l-.353-.353-.354.353c-1.18 1.18-2.365 2.36-3.556 3.541l-.355.352.352.355c-2.114 2.096-4.244 4.192-6.39 6.291l-.349-.358-.358.35c-1.193 1.165-2.391 2.331-3.593 3.498l-.359.348.348.359c-2.17 2.103-4.356 4.206-6.557 6.311l-.345-.361-.362.345c-1.212 1.159-2.429 2.318-3.651 3.477l-.363.344.344.362c-2.159 2.048-4.334 4.096-6.522 6.145l-.342-.365-.365.341c-1.217 1.139-2.439 2.278-3.665 3.416l-.366.341.34.366c-2.211 2.053-4.437 4.106-6.677 6.159l-.337-.369-.369.338c-1.244 1.14-2.492 2.279-3.744 3.419l-.37.336.336.37c-2.202 2.003-4.418 4.005-6.647 6.008l-.334-.372-.372.334c-1.238 1.112-2.481 2.224-3.727 3.336l-.374.333.333.373c-2.247 2.003-4.509 4.007-6.783 6.01l-.33-.375-.375.331c-1.264 1.112-2.531 2.223-3.802 3.335l-.376.33.329.376c-2.254 1.97-4.52 3.94-6.799 5.909l-.327-.378-.378.327c-1.258 1.086-2.519 2.172-3.784 3.257l-.38.326.326.379c-2.281 1.956-4.573 3.912-6.878 5.867l-.324-.382-.381.324c-1.281 1.085-2.565 2.17-3.853 3.255l-.382.322.322.383c-2.304 1.94-4.621 3.879-6.949 5.818l-.32-.385-.384.32c-1.275 1.061-2.553 2.122-3.835 3.182l-.386.319.319.385c-2.31 1.91-4.631 3.819-6.964 5.727l-.317-.387-.387.316c-.64.523-1.281 1.046-1.923 1.569-.658.537-1.317 1.073-1.976 1.609l-.388.315.315.388c-2.351 1.909-4.713 3.817-7.086 5.723l-.313-.389-.39.313c-1.294 1.039-2.591 2.077-3.892 3.116l-.391.312.312.391c-2.337 1.864-4.685 3.728-7.044 5.59l-.309-.392-.393.309c-1.311 1.035-2.625 2.069-3.942 3.102l-.393.309.308.393c-2.375 1.863-4.76 3.724-7.157 5.584l-.306-.395-.395.306c-1.331 1.032-2.664 2.064-4.001 3.095l-.396.305.305.396c-2.365 1.823-4.74 3.645-7.124 5.465l-.304-.398-.397.303c-1.324 1.01-2.652 2.02-3.982 3.029l-.399.302.302.398c-2.397 1.818-4.805 3.634-7.223 5.448l-.3-.4-.4.3c-1.342 1.007-2.688 2.014-4.037 3.02l-.401.299.299.401c-2.414 1.799-4.838 3.597-7.271 5.393l-.297-.402-.402.297c-1.337.986-2.677 1.972-4.02 2.957l-.403.296.295.403c-2.419 1.774-4.847 3.546-7.285 5.316l-.294-.405-.404.294c-1.355.983-2.712 1.965-4.072 2.947l-.405.292.292.406c-2.452 1.768-4.913 3.535-7.383 5.3l-.291-.407-.407.291c-1.359.97-2.72 1.939-4.085 2.908l-.408.29.29.407c-2.44 1.732-4.888 3.461-7.345 5.188l-.288-.409-.409.287c-1.365.96-2.733 1.918-4.104 2.876l-.41.286.287.41c-2.471 1.726-4.95 3.449-7.438 5.17l-.284-.412-.411.285c-1.382.955-2.766 1.909-4.152 2.862l-.412.284.283.412c-2.476 1.701-4.96 3.4-7.452 5.097l-.282-.414-.413.282c-1.376.936-2.755 1.871-4.136 2.806l-.414.28.28.414c-2.488 1.683-4.984 3.364-7.489 5.042l-.278-.416-.415.278c-.527.353-1.054.706-1.581 1.058-.866.578-1.733 1.157-2.6 1.735l-.416.277.277.416c-2.517 1.675-5.042 3.348-7.575 5.018l-.275-.417-.417.275c-.473.311-.946.622-1.418.934-.921.605-1.842 1.21-2.764 1.815l-.418.274.274.418c-2.506 1.641-5.019 3.281-7.54 4.917l-.272-.42-.42.272c-1.401.909-2.804 1.817-4.209 2.723l-.42.272.271.42c-2.533 1.633-5.073 3.263-7.621 4.891l-.269-.421-.421.269c-1.415.903-2.832 1.805-4.251 2.707l-.422.268.268.422c-2.538 1.611-5.083 3.219-7.636 4.823l-.266-.423-.423.266c-1.41.886-2.822 1.772-4.237 2.656l-.424.265.265.424c-2.548 1.592-5.104 3.181-7.666 4.767l-.263-.425-.425.263c-1.424.88-2.849 1.759-4.277 2.638l-.426.262.262.426c-2.573 1.582-5.153 3.161-7.741 4.737l-.26-.427-.427.26c-.358.218-.716.436-1.075.654-.36.219-.72.438-1.081.657-.719.437-1.438.873-2.158 1.308l-.427.259.259.428c-2.592 1.569-5.184 3.129-7.775 4.682l-.257-.428-.429.257c-1.438.861-2.875 1.72-4.313 2.577l-.43.256.256.429c-2.589 1.542-5.178 3.076-7.766 4.603l-.254-.431-.431.254c-.731.431-1.462.861-2.193 1.291-.706.415-1.412.829-2.117 1.243l-.432.253.253.431c-2.601 1.524-5.202 3.041-7.802 4.549l-.251-.432-.432.251c-1.455.843-2.909 1.684-4.363 2.523l-.433.249.25.433c-2.62 1.51-5.238 3.012-7.856 4.505l-.247-.434-.435.248c-1.453.828-2.905 1.654-4.357 2.478l-.435.246.246.435c-2.614 1.482-5.228 2.956-7.841 4.422l-.244-.436-.436.244c-1.457.817-2.913 1.631-4.368 2.443l-.437.243.244.437c-2.651 1.477-5.3 2.945-7.947 4.405l-.242-.438-.437.242c-1.47.809-2.938 1.616-4.406 2.421l-.439.24.24.439c-2.644 1.448-5.286 2.887-7.928 4.318l-.238-.439-.439.238c-1.467.794-2.933 1.586-4.398 2.375l-.44.237.237.44c-2.655 1.429-5.309 2.849-7.961 4.26l-.234-.441-.442.235c-1.485.79-2.97 1.578-4.455 2.363l-.442.234.234.442c-2.675 1.413-5.347 2.818-8.018 4.214l-.231-.443-.443.231c-1.482.774-2.964 1.546-4.445 2.315l-.444.23.231.444c-2.666 1.383-5.33 2.758-7.992 4.124l-.228-.445-.445.228c-.533.273-1.066.547-1.6.819-.955.489-1.91.977-2.865 1.463l-.445.227.227.446c-2.706 1.378-5.409 2.746-8.109 4.106l-.225-.447-.446.225c-1.499.754-2.996 1.505-4.493 2.253l-.447.223.223.448c-2.695 1.346-5.388 2.683-8.077 4.011l-.222-.448-.448.221c-1.494.737-2.986 1.471-4.478 2.202l-.449.22.22.449c-2.716 1.331-5.43 2.652-8.14 3.963l-.218-.45-.45.218c-.789.382-1.577.762-2.366 1.142-.725.35-1.45.699-2.175 1.047l-.451.217.217.45c-2.725 1.308-5.447 2.607-8.166 3.896l-.214-.452-.452.214c-.766.363-1.531.724-2.296 1.086-.743.35-1.486.7-2.228 1.05l-.453.213.213.452c-2.715 1.276-5.426 2.543-8.135 3.8l-.21-.453-.454.21c-1.531.711-3.062 1.418-4.591 2.122l-.454.21.209.454c-2.756 1.268-5.508 2.526-8.256 3.774l-.206-.455-.456.206c-1.524.692-3.048 1.381-4.57 2.067l-.456.205.205.456c-2.74 1.233-5.477 2.457-8.21 3.67l-.202-.457-.457.203c-1.522.675-3.042 1.347-4.561 2.016l-.457.201.201.458c-2.787 1.226-5.569 2.441-8.347 3.646l-.199-.458-.458.199c-1.541.667-3.08 1.332-4.618 1.993l-.46.198.198.459c-2.769 1.19-5.534 2.369-8.294 3.537l-.195-.46-.46.195c-1.533.648-3.063 1.293-4.593 1.935l-.461.193.194.461c-2.794 1.171-5.584 2.332-8.368 3.481l-.19-.462-.463.191c-1.557.642-3.112 1.281-4.665 1.916l-.463.189.189.463c-2.798 1.143-5.591 2.275-8.378 3.396l-.186-.463-.464.186c-1.547.621-3.093 1.24-4.636 1.854l-.465.185.185.465c-2.799 1.113-5.592 2.215-8.379 3.306l-.182-.466-.466.182c-1.573.615-3.144 1.227-4.713 1.834l-.467.181.181.466c-2.827 1.094-5.648 2.175-8.462 3.245l-.178-.467-.467.178c-1.562.593-3.121 1.182-4.679 1.768l-.468.176.176.468c-2.806 1.054-5.605 2.096-8.397 3.126l-.173-.469-.469.173c-1.589.585-3.176 1.167-4.761 1.745l-.469.171.171.47c-2.855 1.04-5.704 2.067-8.545 3.082l-.168-.471-.471.168c-1.576.563-3.149 1.121-4.721 1.676l-.471.166.166.472c-2.828.996-5.648 1.981-8.461 2.952l-.163-.472-.473.163c-1.592.549-3.181 1.094-4.768 1.636l-.474.161.162.473c-2.883.982-5.758 1.95-8.625 2.906l-.158-.475-.474.158c-1.59.529-3.177 1.054-4.762 1.575l-.475.156.156.475c-2.851.936-5.694 1.858-8.529 2.767l-.152-.476-.476.153c-1.597.511-3.191 1.018-4.782 1.521l-.477.151.15.476c-2.909.919-5.809 1.822-8.7 2.712l-.146-.478-.478.147c-1.603.492-3.203.98-4.8 1.464l-.478.145.145.478c-2.874.869-5.738 1.724-8.592 2.564l-.141-.479-.479.141c-1.608.472-3.213.94-4.814 1.404l-.48.139.139.48c-2.934.848-5.857 1.68-8.7687 2.497l-.1348-.481-.4815.134c-1.6144.452-3.2255.9-4.8331 1.342l-.4821.133.1327.482c-2.8925.795-5.774 1.575-8.6444 2.339l-.1283-.483-.4832.128c-1.6265.432-3.2493.859-4.8685 1.282l-.4838.126.1262.484c-2.9544.769-5.8967 1.521-8.8265 2.257l-.1216-.485-.485.122c-1.6241.407-3.2445.809-4.861 1.205l-.4856.12.1192.485c-2.9075.712-5.8025 1.408-8.6847 2.087l-.1144-.486-.4868.114c-1.6546.389-3.305.772-4.9511 1.15l-.4873.112.1119.488c-2.9706.68-5.9272 1.343-8.8697 1.987l-.1067-.488-.4885.107c-1.6313.356-3.2582.707-4.8807 1.052l-.4891.104.1041.489c-2.9464.626-5.8783 1.233-8.7951 1.822l-.0986-.49-.4902.098c-1.6646.335-3.3243.665-4.979.988l-.4907.095.0958.491c-2.9802.58-5.9443 1.14-8.892 1.681l-.0899-.491-.49186.09c-1.63473.299-3.26443.592-4.88899.878l-.49238.087.08692.493c-2.99727.527-5.97714 1.034-8.93928 1.52l-.08064-.493-.49345.08c-1.66745.273-3.32925.539-4.98532.798l-.494.078.0774.494c-2.9804.465-5.9422.908-8.8852 1.33l-.0706-.494-.495.07c-1.643.235-3.28.463-4.9111.684l-.4955.067.0672.495c-3.047.411-6.0732.799-9.0781 1.163l-.0597-.496-.4964.06c-1.6641.2-3.3216.393-4.9725.579l-.4968.056.0559.497c-2.9886.334-5.9555.645-8.9003.931l-.0481-.497-.4977.048c-1.6971.164-3.3867.32-5.0689.468l-.4981.044.0438.498c-3.0293.264-6.0344.502-9.0147.714l-.0351-.498-.4988.035c-1.652.116-3.2963.224-4.9329.325l-.4991.03.0306.499c-3.0643.185-6.1016.342-9.1113.47l-.0209-.499-.4995.021c-1.6807.07-3.3527.132-5.0159.184l-.4998.016.0158.499c-3.0056.092-5.9826.155-8.9305.19l-.0052-.5-.5.005c-1.7094.018-3.409.026-5.0987.025l-.4996-.001-.001.5c-3.042-.007-6.052-.045-9.029-.115l.012-.5-.5-.012c-1.649-.041-3.288-.092-4.917-.152l-.499-.019-.019.5c-3.089-.119-6.14-.274-9.154-.464l.032-.498-.499-.032c-1.668-.108-3.325-.226-4.97-.356l-.498-.039-.04.498c-3.038-.243-6.036-.525-8.993-.843l.054-.497-.497-.054c-1.683-.185-3.353-.381-5.01-.59l-.496-.063-.062.496c-2.991-.382-5.937-.804-8.838-1.267l.08-.493-.494-.08c-1.691-.272-3.367-.559-5.027-.859l-.492-.09-.089.492c-2.988-.547-5.926-1.138-8.811-1.775l.108-.488-.488-.108c-1.644-.367-3.272-.748-4.882-1.144l-.486-.119-.119.485c-2.976-.739-5.894-1.529-8.753-2.369l.142-.479-.479-.142c-1.589-.472-3.16-.959-4.711-1.462l-.476-.154-.154.475c-2.934-.96-5.8-1.977-8.597-3.051l.18-.465-.466-.181c-1.543-.598-3.065-1.213-4.566-1.845l-.46-.195-.194.46c-2.837-1.206-5.598-2.476-8.28-3.809l.224-.446-.447-.224c-1.483-.744-2.941-1.506-4.375-2.289l-.439-.239-.239.438c-2.69-1.481-5.294-3.032-7.81-4.652l.272-.419-.419-.272c-1.391-.904-2.755-1.829-4.09-2.776l-.408-.289-.289.407c-2.487-1.779-4.878-3.634-7.17-5.565l.323-.38-.381-.324c-1.264-1.074-2.497-2.172-3.7-3.294l-.365-.341-.341.365c-2.213-2.083-4.32-4.247-6.321-6.49l.374-.33-.331-.375c-1.1-1.247-2.167-2.518-3.2-3.814l-.312-.391-.39.311c-1.867-2.366-3.625-4.814-5.269-7.344l.419-.269-.27-.421c-.451-.701-.893-1.409-1.326-2.123-.434-.714-.858-1.433-1.272-2.156l-.249-.434-.432.248c-1.486-2.627-2.848-5.315-4.085-8.063l.456-.203-.203-.456c-.674-1.515-1.309-3.048-1.907-4.6l-.18-.466-.466.179c-1.068-2.809-2.015-5.678-2.842-8.602l.48-.134-.133-.481c-.441-1.585-.846-3.186-1.216-4.803l-.112-.487-.486.111c-.656-2.924-1.198-5.901-1.629-8.928l.494-.069-.069-.495c-.224-1.622-.416-3.258-.576-4.909l-.048-.498-.497.048c-.277-2.979-.451-6.005-.524-9.075l.499-.01-.01-.5c-.033-1.633-.037-3.279-.012-4.937l.007-.5-.499-.008c.054-2.994.201-6.029.44-9.103l.497.04.041-.498c.13-1.623.287-3.257.468-4.902l.055-.497-.496-.055c.338-2.977.758-5.989 1.26-9.035l.492.083.083-.493c.269-1.609.561-3.227.876-4.855l.095-.491-.49-.094c.573-2.924 1.218-5.877 1.936-8.859l.485.118.118-.486c.392-1.612.804-3.231 1.238-4.859l.129-.484-.483-.128c.766-2.854 1.596-5.733 2.49-8.637l.477.148.148-.478c.499-1.611 1.018-3.23 1.556-4.856l.157-.475-.474-.157c.928-2.787 1.912-5.596 2.953-8.425l.468.173.174-.469c.579-1.566 1.175-3.138 1.788-4.717l.181-.466-.466-.181c1.081-2.771 2.215-5.56 3.401-8.369l.46.195.195-.46c.644-1.519 1.303-3.044 1.977-4.574l.202-.457-.457-.202c1.222-2.761 2.492-5.54 3.812-8.335l.451.214.214-.452c.698-1.473 1.409-2.951 2.134-4.433l.219-.449-.448-.22c1.311-2.673 2.665-5.361 4.063-8.064l.444.231.23-.444c.778-1.5 1.569-3.004 2.374-4.513l.235-.441-.441-.235c1.39-2.6 2.82-5.212 4.288-7.836l.436.244.244-.436c.814-1.451 1.64-2.906 2.478-4.365l.248-.434-.433-.249c1.503-2.611 3.043-5.233 4.621-7.866l.428.257.258-.429c.844-1.406 1.698-2.815 2.563-4.227l.262-.426-.427-.261c1.564-2.547 3.161-5.103 4.793-7.669l.422.269.268-.422c.908-1.424 1.825-2.851 2.754-4.281l.272-.42-.419-.272c1.613-2.48 3.257-4.969 4.932-7.467l.415.279.279-.415c.927-1.379 1.863-2.76 2.808-4.144l.282-.413-.412-.282c1.709-2.498 3.449-5.004 5.219-7.518l.408.288.289-.409c.948-1.345 1.906-2.692 2.872-4.042l.291-.406-.407-.291c1.733-2.416 3.493-4.84 5.28-7.269l.402.296.297-.403c.994-1.349 1.997-2.701 3.008-4.054l.299-.401-.4-.299c1.797-2.404 3.622-4.814 5.472-7.23l.397.304.304-.397c1.004-1.309 2.016-2.619 3.035-3.932l.307-.395-.395-.306c1.84-2.366 3.705-4.737 5.594-7.114l.391.311.312-.391c1.05-1.319 2.107-2.64 3.172-3.962l.314-.389-.389-.314c1.868-2.316 3.759-4.637 5.673-6.963l.386.318.318-.386c1.055-1.28 2.117-2.562 3.186-3.844l.32-.385-.384-.32c1.929-2.313 3.881-4.63 5.855-6.952l.38.324.325-.381c1.094-1.286 2.196-2.573 3.304-3.862l.326-.379-.379-.326c1.933-2.244 3.885-4.492 5.859-6.743l.375.33.33-.376c1.098-1.251 2.202-2.503 3.313-3.756l.331-.374-.374-.332c2.005-2.26 4.029-4.523 6.075-6.79l.371.335.335-.371c1.121-1.242 2.249-2.484 3.383-3.728l.337-.369-.37-.337c2.002-2.194 4.023-4.391 6.063-6.591l.366.34.34-.366c1.135-1.222 2.275-2.445 3.421-3.669l.342-.365-.365-.342c2.068-2.207 4.155-4.416 6.26-6.628l.362.345.345-.362c1.15-1.207 2.305-2.415 3.466-3.623l.347-.361-.361-.346c2.062-2.144 4.142-4.291 6.238-6.44l.358.35.349-.358c1.166-1.194 2.337-2.388 3.513-3.583l.351-.356-.356-.351c2.1227-2.154 4.2625-4.31 6.4192-6.468l.3534.354.3536-.354c1.1802-1.18 2.3655-2.36 3.5559-3.541l.3549-.352-.352-.355c2.1142-2.095 4.2442-4.192 6.39-6.29l.3494.357.3576-.349c1.1931-1.166 2.391-2.332 3.5938-3.498l.3589-.349-.348-.358c2.1699-2.103 4.3555-4.207 6.5566-6.312l.3454.361.3615-.345c1.2122-1.159 2.4292-2.317 3.6509-3.476l.3628-.344-.3441-.363c2.1597-2.048 4.3341-4.096 6.523-6.145l.3415.365.3652-.341c1.217-1.139 2.4385-2.277 3.6645-3.416l.3664-.34-.3403-.367c2.2112-2.052 4.4368-4.105 6.6768-6.159l.3377.369.3687-.338c1.2437-1.139 2.4919-2.279 3.7445-3.419l.3698-.336-.3364-.37c2.2022-2.002 4.4179-4.005 6.6471-6.008l.334.372.372-.334c1.2384-1.112 2.4808-2.224 3.7275-3.335l.3731-.333-.3328-.373c2.2477-2.004 4.5088-4.008 6.7831-6.011l.3304.375.3753-.33c1.263-1.112 2.5302-2.224 3.8014-3.336l.3763-.329-.3291-.377c2.2536-1.969 4.52-3.939 6.7991-5.909l.3267.379.3784-.327c1.2575-1.086 2.5188-2.172 3.784-3.258l.3794-.326-.3256-.379c2.2804-1.956 4.57316-3.911 6.87826-5.867l.32326.382.38141-.323c1.28041-1.086 2.56464-2.171 3.852612-3.256l.382425-.322-.322101-.382c2.304244-1.94 4.620594-3.88 6.948894-5.818l.31978.384.38434-.32c1.27484-1.061 2.55324-2.121 3.83522-3.182l.3853-.319-.3186-.385c2.3099-1.909 4.6315-3.818 6.9645-5.726l.3163.387.3872-.317c1.2962-1.059 2.5959-2.118 3.8992-3.177l.3881-.316-.3153-.388c2.3506-1.908 4.7126-3.816 7.086-5.723l.313.39.3899-.313c1.294-1.039 2.5915-2.078 3.8923-3.117l.3907-.311-.3119-.391c2.3371-1.865 4.685-3.728 7.0437-5.591l.3097.393.3925-.31c1.3107-1.035 2.6248-2.069 3.9421-3.102l.3934-.309-.3086-.393c2.375-1.863 4.7607-3.724 7.157-5.584l.3064.395.3951-.306c1.3304-1.032 2.6641-2.064 4.001-3.095l.3959-.305-.3053-.396c2.3648-1.823 4.7397-3.644 7.1246-5.464l.3031.397.3976-.303c1.3243-1.01 2.6516-2.02 3.9821-3.029l.3984-.302-.3021-.398c2.3978-1.818 4.8056-3.634 7.2232-5.448l.3.4.4-.3c1.3427-1.007 2.6884-2.014 4.0372-3.02l.4008-.299-.2989-.4c2.4141-1.8 4.8379-3.598 7.2714-5.394l.2967.402.4024-.296c1.337-.987 2.677-1.972 4.0198-2.958l.4031-.295-.2957-.403c2.4192-1.774 4.8477-3.546 7.2851-5.317l.294.405.405-.294c1.354-.982 2.711-1.965 4.071-2.946l.406-.293-.293-.405c2.452-1.769 4.913-3.536 7.384-5.301l.29.407.407-.29c1.359-.97 2.721-1.94 4.085-2.909l.408-.289-.29-.408c2.44-1.731 4.889-3.461 7.346-5.188l.287.409.409-.287c1.365-.959 2.734-1.918 4.104-2.876l.41-.286-.286-.41c2.47-1.725 4.949-3.448 7.437-5.169l.284.411.412-.284c1.381-.955 2.765-1.91 4.152-2.863l.412-.283-.284-.412c2.476-1.702 4.96-3.401 7.453-5.097l.281.413.413-.281c1.376-.936 2.755-1.872 4.136-2.807l.414-.28-.28-.414c2.488-1.683 4.985-3.363 7.489-5.0413l.278.4154.416-.2782c1.391-.9315 2.784-1.8622 4.181-2.7921l.416-.2772-.277-.4161c2.516-1.6755 5.041-3.3484 7.574-5.0184l.275.4174.418-.2751c1.391-.9171 2.785-1.8332 4.182-2.7486l.418-.2741-.274-.4181c2.505-1.6418 5.019-3.2808 7.54-4.9169l.272.4194.419-.2722c1.401-.9085 2.804-1.8162 4.209-2.7231l.42-.2711-.271-.42c2.533-1.6334 5.073-3.2639 7.621-4.8914l.269.4214.421-.269c1.415-.9033 2.832-1.8056 4.251-2.7069l.422-.2681-.268-.4221c2.538-1.6109 5.084-3.2189 7.636-4.8238l.266.4233.423-.266c1.411-.8861 2.823-1.7713 4.237-2.6556l.424-.265-.265-.4239c2.549-1.5922 5.104-3.1812 7.667-4.7671l.263.4251.425-.263c1.423-.8803 2.849-1.7597 4.276-2.6382l.426-.262-.262-.4258c2.573-1.5825 5.154-3.1617 7.741-4.7376l.26.427.427-.2599c.718-.4372 1.437-.8742 2.156-1.3108.72-.4367 1.439-.8728 2.158-1.3083l.428-.259-.259-.4277c2.591-1.5685 5.183-3.1294 7.774-4.6825l.257.4289.429-.257c1.438-.8614 2.876-1.7204 4.314-2.5771l.429-.2559-.256-.4295c2.589-1.542 5.178-3.0762 7.766-4.6026l.254.4306.431-.2539c1.437-.847 2.874-1.6917 4.311-2.534l.431-.2528-.253-.4313c2.601-1.5243 5.202-3.0408 7.802-4.5493l.251.4324.433-.2508c1.454-.8434 2.908-1.6843 4.362-2.5227l.434-.2498-.25-.4331c2.619-1.5096 5.238-3.0112 7.855-4.5048l.248.4343.434-.2477c1.453-.8285 2.906-1.6546 4.358-2.4781l.435-.2467-.247-.4349c2.615-1.4819 5.228-2.9557 7.841-4.4215l.245.4361.436-.2446c1.456-.8166 2.912-1.6306 4.367-2.44222l.437-.24351-.243-.43665c2.65-1.4768 5.299-2.94526 7.947-4.40536l.241.43783.438-.24132c1.469-.80969 2.938-1.61679 4.406-2.42132l.438-.24027-.24-.43842c2.644-1.4480281 5.287-2.88766 7.928-4.31892l.238.43959.44-.23811c1.466-.79417 2.932-1.58576 4.397-2.37477l.441-.23703-.237-.4402c2.655-1.42868 5.308-2.84882 7.96-4.26042l.235.44135.441-.23485c1.486-.7904 2.971-1.5781 4.455-2.3632l.442-.2337-.233-.4419c2.674-1.4134 5.346-2.8181 8.017-4.214l.231.4431.444-.2315c1.482-.7743 2.963-1.5459 4.444-2.3148l.444-.2303-.23-.4437c2.665-1.3833 5.329-2.7579 7.991-4.1236l.228.4448.445-.2281c1.489-.7636 2.977-1.5244 4.465-2.2826l.446-.227-.227-.4454c2.705-1.3778 5.408-2.7464 8.108-4.1059l.225.4466.447-.2247c1.498-.7538 2.996-1.5048 4.492-2.253l.448-.2236-.224-.4471c2.695-1.3464 5.388-2.6836 8.078-4.0116l.221.4483.448-.2212c1.494-.737 2.987-1.471 4.478-2.2023l.449-.22-.22-.4489c2.717-1.3305 5.43-2.6516 8.14-3.9633l.218.4501.45-.2177c1.515-.7326 3.029-1.4622 4.542-2.1889l.45-.2165-.216-.4507c2.725-1.308 5.447-2.6065 8.166-3.8954l.214.4518.451-.2141c1.509-.7149 3.018-1.4269 4.525-2.1359l.452-.2128-.213-.4524c2.715-1.2764 5.427-2.5432 8.135-3.8004l.21.4535.454-.2104c1.531-.7104 3.062-1.4178 4.591-2.1221l.455-.2092-.21-.454c2.756-1.2681 5.508-2.5262 8.256-3.7742l.207.4552.455-.2066c1.525-.6919 3.048-1.3808 4.571-2.0665l.456-.2054-.206-.4558c2.741-1.2335 5.477-2.4569 8.21-3.6703l.203.457.457-.2028c1.521-.6751 3.041-1.347 4.56-2.0158l.458-.2015-.202-.4575c2.787-1.2261 5.569-2.4416 8.347-3.6466l.199.4587.459-.1988c1.54-.6678 3.08-1.3324 4.618-1.9937l.459-.1975-.197-.4592c2.769-1.1897 5.533-2.3688 8.293-3.5374l.195.4604.461-.1948c1.532-.6482 3.063-1.2931 4.592-1.9348l.461-.1934-.193-.4611c2.794-1.1713 5.583-2.3318 8.367-3.4813l.191.4622.462-.1907c1.557-.6422 3.112-1.281 4.666-1.9163l.463-.1893-.19-.4627c2.798-1.1433 5.591-2.2754 8.378-3.3962l.187.4638.464-.1864c1.547-.6216 3.092-1.2397 4.636-1.8543l.464-.1851-.185-.4644c2.799-1.1134 5.592-2.2155 8.38-3.3063l.182.4657.465-.1821c1.573-.6149 3.144-1.2262 4.714-1.8339l.466-.181-.181-.466c2.827-1.093 5.648-2.175 8.463-3.245l.177.467.467-.177c1.562-.593 3.122-1.183 4.68-1.768l.467-.176-.176-.468c2.806-1.054 5.605-2.096 8.397-3.126l.173.469.469-.173c1.589-.586 3.176-1.168 4.761-1.745l.47-.172-.172-.469c2.856-1.04 5.704-2.068 8.545-3.083l.168.471.471-.168c1.576-.562 3.15-1.121 4.721-1.676l.472-.166-.167-.471c2.828-.997 5.648-1.981 8.461-2.953l.163.472.473-.163c1.592-.549 3.182-1.094 4.769-1.635l.473-.162-.161-.473c2.883-.982 5.757-1.95 8.624-2.905l.158.474.474-.158c1.59-.529 3.177-1.054 4.762-1.575l.475-.156-.156-.475c2.851-.935 5.694-1.858 8.529-2.767l.153.476.476-.152c1.597-.512 3.191-1.019 4.782-1.522l.476-.15-.15-.477c2.909-.918 5.809-1.822 8.7-2.712l.147.478.478-.147c1.602-.492 3.202-.98 4.799-1.464l.479-.145-.145-.478c2.873-.869 5.737-1.724 8.591-2.564l.141.48.48-.141c1.607-.473 3.212-.941 4.813-1.405l.481-.139-.139-.48c2.933-.847 5.856-1.68 8.768-2.497l.135.482.481-.135c1.615-.452 3.226-.9 4.834-1.342l.482-.133-.133-.482c2.892-.795 5.774-1.574 8.644-2.338l.129.483.483-.129c1.626-.432 3.249-.859 4.868-1.281l.484-.127-.126-.483c2.954-.769 5.896-1.522 8.826-2.258l.122.485.485-.121c1.624-.407 3.244-.809 4.861-1.206l.486-.119-.12-.486c2.908-.712 5.803-1.408 8.685-2.087l.114.487.487-.115c1.655-.389 3.305-.772 4.951-1.15l.488-.112-.112-.487c2.97-.681 5.927-1.343 8.869-1.988l.107.488.489-.106c1.631-.357 3.258-.708 4.88-1.053l.489-.104-.104-.489c2.947-.625 5.879-1.233 8.795-1.821l.099.49.49-.099c1.665-.335 3.324-.664 4.979-.987l.491-.096-.096-.491c2.98-.58 5.944-1.14 8.892-1.681l.09.492.492-.09c1.635-.299 3.264-.592 4.889-.879l.492-.087-.087-.492c2.998-.528 5.977-1.035 8.94-1.521l.08.494.494-.081c1.667-.273 3.329-.539 4.985-.798l.494-.078-.077-.493c2.98-.465 5.942-.909 8.885-1.331l.07.495.496-.071c1.642-.235 3.28-.462 4.911-.684l.495-.067-.067-.495c3.047-.411 6.073-.799 9.078-1.163l.06.496.496-.059c1.664-.201 3.322-.394 4.973-.58l.496-.056-.055-.496c2.988-.335 5.955-.645 8.9-.932l.048.497.497-.048c1.698-.164 3.387-.32 5.07-.468l.498-.044-.044-.497c3.029-.264 6.034-.503 9.015-.715l.035.499.498-.035c1.652-.117 3.297-.225 4.933-.325l.499-.031-.03-.499c3.064-.185 6.101-.341 9.111-.47l.021.499.499-.021c1.681-.07 3.353-.131 5.016-.184l.5-.016-.016-.499c3.006-.092 5.983-.155 8.931-.189l.005.499.5-.005c1.709-.018 3.409-.026 5.099-.024h.5v-.499c3.043.006 6.052.044 9.029.114l-.012.5.5.012c1.649.041 3.288.092 4.917.152l.5.019.018-.499c3.089.119 6.14.273 9.154.463l-.032.499.499.032c1.669.107 3.325.226 4.97.355l.499.039.039-.498c3.038.244 6.037.525 8.994.844l-.055.496.497.055c1.684.184 3.354.38 5.01.589l.496.063.063-.496c2.99.382 5.936.804 8.837 1.267l-.079.493.493.08c1.692.273 3.367.559 5.027.86l.492.089.089-.492c2.988.547 5.926 1.139 8.812 1.775l-.109.488.488.109c1.645.366 3.272.747 4.883 1.143l.485.12.119-.485c2.977.739 5.895 1.528 8.753 2.369l-.142.478.48.143c1.589.471 3.159.958 4.711 1.462l.475.154.154-.475c2.934.96 5.8 1.976 8.597 3.05l-.18.466.466.18c1.544.598 3.066 1.213 4.566 1.846l.461.194.194-.46c2.837 1.206 5.597 2.476 8.279 3.809l-.223.447.446.224c1.483.743 2.941 1.506 4.375 2.288l.439.24.239-.438c2.691 1.481 5.295 3.031 7.81 4.651l-.272.419.42.272c1.391.904 2.754 1.829 4.09 2.776l.408.29.288-.407c2.487 1.779 4.878 3.633 7.17 5.564l-.323.38.381.324c1.264 1.075 2.493 2.173 3.703 3.294l.36.341.34-.365c2.22 2.084 4.32 4.247 6.32 6.491l-.37.33.33.375c1.1 1.246 2.17 2.517 3.2 3.813l.31.391z" stroke="url(#b)" class="UMNFEOGM_1"></path><path d="m1398.8-75.1767c1.86 2.3578 3.64 4.7832 5.33 7.2765l-.41.2782.27.415c.47.6917.93 1.3886 1.38 2.0906.45.7024.89 1.4087 1.33 2.1191l.26.4262.42-.261c1.57 2.5734 3.04 5.1987 4.4 7.8748l-.44.2254.22.4461c.76 1.4829 1.48 2.9814 2.17 4.4953l.2.4549.46-.2073c1.23 2.7252 2.36 5.4997 3.4 8.3224l-.46.1707.17.4698c.57 1.5652 1.11 3.1451 1.62 4.7397l.15.4761.48-.1525c.89 2.8347 1.7 5.7151 2.42 8.6403l-.49.117.12.4861c.39 1.6148.75 3.2433 1.09 4.8852l.1.4899.49-.0998c.58 2.9168 1.08 5.8756 1.49 8.8753l-.49.0667.07.4955c.22 1.63523.41 3.2827.58 4.94232l.05.49738.5-.05095c.29 2.9792.51 5.996765.65 9.05176l-.5.02082.02.49954c.07 1.63211.11 3.27497.13 4.92843l.01.49992.5-.00689c.03 2.99077-.01 6.01577-.12 9.07417l-.5-.0197-.02.4996c-.06 1.6512-.15 3.3123-.26 4.983l-.03.499.5.032c-.2 2.9438-.46 5.9171-.79 8.9192l-.49-.0551-.06.497c-.18 1.6668-.39 3.3425-.61 5.0271l-.07.4956.5.0661c-.4 2.9216-.85 5.8694-1.37 8.8428l-.49-.0861-.09.4925c-.28 1.6279-.58 3.2635-.9 4.9067l-.1.4907.49.0955c-.58 2.9532-1.22 5.9305-1.91 8.9315l-.49-.1133-.11.487c-.37 1.5835-.75 3.1736-1.15 4.7702l-.12.485.48.1214c-.73 2.8814-1.5 5.7839-2.33 8.7069l-.48-.1367-.14.4809c-.21.7393-.42 1.4798-.64 2.2217-.26.8862-.52 1.7744-.79 2.6644l-.14.4788.48.144c-.85 2.8127-1.75 5.6438-2.69 8.4926l-.48-.1574-.15.4746c-.53 1.5705-1.06 3.1464-1.61 4.7276l-.16.4723.47.1638c-1 2.8572-2.04 5.7318-3.12 8.6228l-.47-.175-.17.468c-.57 1.523-1.16 3.052-1.76 4.585l-.18.466.47.181c-1.08 2.755-2.2 5.526-3.35 8.31l-.46-.191-.19.461c-.65 1.547-1.3 3.099-1.97 4.655l-.2.459.46.197c-1.18 2.741-2.39 5.496-3.64 8.264l-.46-.206-.21.455c-.67 1.494-1.36 2.992-2.06 4.494l-.21.454.45.21c-1.26 2.709-2.56 5.431-3.89 8.164l-.45-.219-.22.449c-.74 1.517-1.49 3.038-2.26 4.562l-.22.447.45.224c-1.33 2.637-2.68 5.286-4.06 7.945l-.45-.231-.23.443c-.76 1.465-1.53 2.932-2.32 4.404l-.23.441.44.235c-1.41 2.654-2.86 5.318-4.34 7.992l-.43-.242-.24.438c-.34.612-.68 1.224-1.02 1.837-.49.867-.97 1.735-1.46 2.604l-.25.436.44.245c-1.45 2.559-2.92 5.126-4.41 7.703l-.43-.252-.26.432c-.83 1.433-1.67 2.868-2.52 4.306l-.26.431.43.254c-1.54 2.594-3.1 5.197-4.69 7.808l-.43-.26-.26.426c-.87 1.432-1.75 2.865-2.64 4.302l-.27.425.43.263c-1.55 2.503-3.13 5.013-4.73 7.53l-.42-.269-.27.422c-.9 1.399-1.79 2.801-2.7 4.205l-.27.42.42.272c-1.64 2.532-3.3 5.072-4.99 7.618l-.41-.276-.28.417c-.93 1.401-1.87 2.805-2.81 4.21l-.28.415.42.279c-1.65 2.445-3.31 4.897-5 7.354l-.41-.283-.29.412c-.93 1.367-1.88 2.735-2.83 4.106l-.29.41.41.285c-1.72 2.471-3.46 4.948-5.23 7.43l-.4-.29-.29.407c-.98 1.378-1.97 2.757-2.96 4.138l-.29.405.4.292c-1.72 2.396-3.47 4.797-5.23 7.203l-.41-.296-.29.403c-.98 1.334-1.97 2.67-2.96 4.007l-.3.401.41.298c-1.79 2.41-3.6 4.824-5.43 7.243l-.4-.301-.3.398c-1.02 1.343-2.04 2.688-3.07 4.033l-.3.397.4.304c-1.81 2.368-3.64 4.74-5.49 7.116l-.39-.307-.31.395c-1.02 1.302-2.03 2.606-3.06 3.911l-.31.393.4.308c-1.85 2.351-3.72 4.705-5.6 7.063l-.39-.312-.31.39c-1.05 1.31-2.1 2.621-3.16 3.933l-.31.389.39.314c-1.9 2.347-3.81 4.699-5.74 7.054l-.38-.317-.32.386c-1.04 1.272-2.09 2.545-3.14 3.818l-.32.386.38.318c-1.89 2.293-3.8 4.589-5.73 6.888l-.39-.321-.32.383c-1.07 1.277-2.15 2.556-3.23 3.835l-.32.382.38.323c-1.96 2.307-3.93 4.617-5.91 6.93l-.38-.326-.33.379c-.54.637-1.09 1.273-1.64 1.911-.55.632-1.09 1.264-1.64 1.897l-.33.378.38.327c-1.94 2.238-3.89 4.479-5.86 6.722l-.38-.33-.33.375c-.29.33-.58.66-.87.99-.8.917-1.61 1.835-2.43 2.753l-.33.375.38.331c-2 2.25-4 4.502-6.02 6.756l-.37-.334-.34.372c-1.12 1.251-2.25 2.503-3.38 3.756l-.34.371.38.335c-2.01 2.221-4.03 4.445-6.07 6.67l-.37-.338-.34.369c-.6.655-1.2 1.31-1.8 1.966-.52.563-1.04 1.126-1.56 1.689l-.33.367.36.339c-2.02 2.195-4.06 4.392-6.11 6.59l-.37-.341-.34.365c-1.14 1.221-2.28 2.443-3.43 3.665l-.34.365.36.342c-2.07 2.204-4.16 4.409-6.26 6.616l-.36-.345-.34.362c-1.15 1.207-2.31 2.414-3.46 3.622l-.35.361.36.346c-2.05 2.142-4.12 4.287-6.2 6.432l-.35-.348-.35.359c-1.16 1.192-2.32 2.385-3.48 3.579l-.35.358.36.349c-2.1 2.149-4.21 4.3-6.34 6.452l-.35-.351-.35.356c-1.18 1.195-2.36 2.39-3.55 3.585l-.35.355.35.352c-2.12 2.133-4.25 4.266-6.39 6.401l-.35-.355-.36.353c-1.17 1.165-2.34 2.331-3.52 3.497l-.35.351.35.356c-2.12 2.098-4.26 4.198-6.4 6.298l-.35-.357-.36.349c-1.19 1.167-2.38 2.334-3.58 3.501l-.36.349.35.358c-2.16 2.104-4.34 4.208-6.52 6.313l-.35-.36-.36.346c-1.21 1.169-2.43 2.337-3.65 3.505l-.36.346.35.361c-2.15 2.056-4.31 4.113-6.48 6.17l-.35-.363-.36.344c-1.2 1.14-2.41 2.281-3.62 3.421l-.36.343.34.364c-2.18 2.054-4.37 4.108-6.57 6.162l-.34-.366-.37.342c-1.22 1.14-2.45 2.281-3.68 3.422l-.36.341.34.366c-2.22 2.057-4.45 4.113-6.69 6.171l-.34-.369-.36.339c-1.23 1.124-2.46 2.249-3.69 3.374l-.37.338.34.369c-2.2 2.006-4.4 4.013-6.62 6.019l-.34-.371-.37.336c-1.23 1.115-2.47 2.23-3.7 3.345l-.38.335.34.371c-2.23 2.008-4.48 4.017-6.73 6.025l-.33-.374-.37.333c-1.25 1.115-2.51 2.23-3.77 3.345l-.37.332.33.374c-2.26 2.003-4.53 4.006-6.81 6.009l-.33-.376-.37.33c-1.24 1.091-2.49 2.181-3.73 3.272l-.38.329.33.376c-2.25 1.962-4.5 3.924-6.77 5.886l-.33-.378-.37.327c-1.26 1.09-2.52 2.18-3.79 3.27l-.38.326.33.379c-2.28 1.963-4.57 3.925-6.86 5.887l-.33-.38-.38.324c-1.27 1.089-2.55 2.178-3.83 3.267l-.38.324.32.381c-2.29 1.946-4.59 3.893-6.9 5.838l-.33-.382-.38.322c-.44.37-.88.739-1.32 1.109-.83.696-1.66 1.393-2.49 2.089l-.38.321.32.383c-2.29 1.918-4.59 3.836-6.89 5.753l-.32-.385-.39.319c-1.28 1.065-2.57 2.13-3.85 3.194l-.39.319.32.385c-2.32 1.917-4.65 3.834-6.99 5.749l-.31-.386-.39.317c-1.3 1.063-2.6 2.126-3.9 3.189l-.39.316.32.387c-2.33 1.896-4.66 3.791-7.01 5.685l-.31-.389-.39.315c-1.29 1.041-2.58 2.083-3.87 3.124l-.39.313.31.39c-2.33 1.874-4.67 3.747-7.01 5.619l-.32-.391-.39.312c-1.3 1.04-2.61 2.08-3.92 3.119l-.39.311.31.391c-2.35 1.872-4.72 3.743-7.095 5.613l-.309-.393-.393.309c-1.319 1.038-2.64 2.075-3.963 3.112l-.394.309.309.393c-2.361 1.849-4.729 3.697-7.105 5.544l-.306-.395-.395.307c-1.31 1.017-2.622 2.034-3.936 3.051l-.396.306.306.395c-2.367 1.83-4.741 3.659-7.123 5.487l-.304-.397-.397.304c-1.323 1.015-2.649 2.03-3.977 3.044l-.398.304.304.397c-2.393 1.827-4.794 3.652-7.202 5.476l-.302-.398-.398.302c-1.338 1.012-2.677 2.024-4.019 3.036l-.399.301.301.399c-2.396 1.805-4.799 3.609-7.21 5.412l-.299-.401-.4.3c-1.329.993-2.66 1.986-3.993 2.978l-.401.299.298.401c-2.401 1.786-4.809 3.571-7.223 5.354l-.297-.402-.402.297c-1.342.99-2.686 1.98-4.032 2.969l-.403.297.296.402c-2.426 1.782-4.858 3.563-7.297 5.341l-.295-.404-.404.295c-.501.365-1.002.73-1.504 1.095-.855.622-1.71 1.244-2.566 1.865l-.405.294.294.404c-2.432 1.765-4.87 3.527-7.316 5.288l-.292-.406-.405.292c-1.347.969-2.696 1.938-4.047 2.906l-.406.291.291.407c-2.432 1.742-4.871 3.483-7.317 5.222l-.289-.407-.408.289c-1.359.966-2.72 1.931-4.083 2.896l-.408.289.289.408c-2.455 1.738-4.917 3.473-7.386 5.206l-.287-.409-.409.287c-1.371.963-2.744 1.925-4.119 2.886l-.41.286.287.41c-2.468 1.724-4.942 3.447-7.423 5.167l-.285-.411-.411.285c-1.363.945-2.729 1.89-4.096 2.834l-.412.284.284.412c-2.462 1.699-4.93 3.396-7.404 5.091l-.283-.413-.412.283c-1.375.941-2.752 1.882-4.131 2.822l-.413.282.281.413c-2.483 1.693-4.973 3.384-7.469 5.072l-.28-.414-.414.28c-1.387.938-2.775 1.875-4.165 2.811l-.415.279.28.415c-2.504 1.685-5.014 3.368-7.529 5.049l-.278-.415-.416.277c-.669.447-1.338.894-2.008 1.34-.712.475-1.423.949-2.136 1.422l-.416.277.277.417c-2.49 1.655-4.987 3.309-7.488 4.96l-.276-.417-.417.275c-1.39.917-2.782 1.834-4.176 2.749l-.418.275.274.418c-2.51 1.649-5.027 3.295-7.549 4.939l-.273-.419-.418.273c-1.401.913-2.804 1.825-4.208 2.736l-.42.272.272.42c-2.53 1.641-5.067 3.28-7.609 4.917l-.27-.421-.421.271c-.705.454-1.412.908-2.118 1.361-.707.454-1.414.908-2.121 1.361l-.421.269.27.421c-2.545 1.631-5.091 3.256-7.637 4.874l-.268-.422-.422.268c-.615.391-1.229.781-1.844 1.171-.798.506-1.596 1.012-2.395 1.517l-.422.268.267.422c-2.544 1.61-5.088 3.213-7.632 4.81l-.266-.424-.423.266c-1.413.887-2.825 1.771-4.238 2.654l-.424.265.265.424c-2.542 1.588-5.084 3.17-7.626 4.745l-.263-.425-.425.264c-1.413.875-2.824 1.748-4.236 2.619l-.426.262.263.426c-2.575 1.588-5.15 3.17-7.724 4.745l-.261-.426-.427.261c-.656.401-1.312.802-1.968 1.202-.773.473-1.547.944-2.32 1.415l-.427.261.26.427c-2.574 1.567-5.148 3.127-7.72 4.682l-.259-.428-.428.258c-1.428.863-2.857 1.723-4.285 2.582l-.429.258.258.428c-2.571 1.545-5.141 3.083-7.71 4.615l-.256-.429-.43.256c-.632.377-1.264.753-1.896 1.129-.795.473-1.59.945-2.385 1.417l-.43.255.255.43c-2.597 1.54-5.192 3.073-7.787 4.6l-.253-.431-.431.253c-1.446.851-2.892 1.699-4.338 2.545l-.431.253.252.431c-2.603 1.524-5.205 3.04-7.807 4.55l-.251-.432-.432.251c-1.444.838-2.888 1.674-4.332 2.508l-.433.25.25.433c-2.599 1.5-5.197 2.994-7.793 4.48l-.249-.434-.433.249c-1.443.825-2.885 1.649-4.327 2.47l-.434.248.247.434c-2.618 1.491-5.235 2.975-7.851 4.453l-.246-.436-.435.246c-.527.298-1.054.595-1.581.892-.935.527-1.87 1.053-2.805 1.578l-.436.245.245.435c-2.632 1.479-5.263 2.95-7.892 4.414l-.243-.437-.437.243c-1.46.813-2.919 1.623-4.378 2.431l-.438.242.243.438c-2.626 1.454-5.251 2.9-7.874 4.34l-.241-.438-.438.241c-1.457.799-2.914 1.596-4.37 2.391l-.439.24.24.439c-2.642 1.442-5.282 2.876-7.921 4.304l-.238-.44-.44.238c-.874.473-1.749.945-2.623 1.416-.603.326-1.206.65-1.809.975l-.441.237.237.44c-2.66 1.431-5.319 2.854-7.976 4.271l-.235-.442-.441.236c-1.475.785-2.949 1.569-4.423 2.35l-.442.234.234.442c-2.652 1.405-5.303 2.804-7.952 4.194l-.233-.442-.442.232c-1.472.772-2.942 1.542-4.412 2.31l-.444.231.232.443c-2.668 1.392-5.334 2.777-7.997 4.154l-.23-.444-.444.23c-1.493.772-2.986 1.541-4.479 2.308l-.444.229.228.445c-2.688 1.381-5.373 2.754-8.057 4.12l-.226-.446-.446.227c-1.49.758-2.978 1.513-4.467 2.266l-.446.226.226.446c-2.678 1.354-5.355 2.701-8.028 4.04l-.224-.447-.447.224c-1.485.744-2.97 1.485-4.453 2.223l-.448.223.223.448c-2.697 1.342-5.391 2.676-8.083 4.002l-.22-.448-.449.22c-1.509.743-3.017 1.484-4.524 2.222l-.449.22.22.449c-2.714 1.328-5.426 2.649-8.135 3.961l-.218-.45-.45.218c-1.503.728-3.006 1.453-4.508 2.177l-.45.216.217.451c-2.703 1.3-5.403 2.593-8.1 3.877l-.215-.451-.452.215c-1.498.713-2.995 1.423-4.492 2.131l-.452.214.214.452c-2.73 1.291-5.457 2.574-8.181 3.848l-.212-.452-.453.211c-.679.318-1.357.634-2.035.951-.844.393-1.688.786-2.531 1.178l-.454.211.211.453c-2.74 1.273-5.476 2.537-8.209 3.792l-.208-.454-.455.208c-1.517.697-3.032 1.39-4.547 2.081l-.455.208.207.455c-2.726 1.243-5.448 2.477-8.167 3.703l-.205-.456-.456.206c-1.511.68-3.02 1.358-4.528 2.034l-.457.204.205.456c-2.77 1.239-5.536 2.47-8.297 3.691l-.202-.457-.458.202c-1.537.679-3.072 1.356-4.606 2.029l-.458.201.201.458c-2.763 1.212-5.522 2.415-8.277 3.609l-.199-.458-.458.199c-.529.229-1.058.457-1.586.686-1 .432-2 .863-2.999 1.293l-.459.197.198.459c-2.747 1.182-5.49 2.354-8.229 3.517l-.195-.461-.46.196c-1.535.651-3.069 1.3-4.602 1.946l-.461.194.195.461c-2.802 1.179-5.6 2.35-8.393 3.511l-.191-.462-.462.192c-1.549.643-3.097 1.284-4.644 1.921l-.462.191.191.462c-2.784 1.147-5.563 2.285-8.338 3.412l-.188-.463-.463.188c-1.541.626-3.08 1.249-4.617 1.869l-.464.187.187.464c-2.773 1.117-5.542 2.224-8.306 3.323l-.184-.465-.465.184c-.711.283-1.421.564-2.132.845-.858.34-1.716.678-2.573 1.016l-.465.183.183.465c-2.823 1.111-5.641 2.212-8.453 3.303l-.18-.466-.467.18c-1.56.605-3.119 1.206-4.675 1.805l-.467.179.179.467c-2.802 1.076-5.598 2.141-8.389 3.197l-.176-.468-.468.177c-1.55.586-3.098 1.168-4.645 1.748l-.468.175.175.468c-2.832 1.061-5.658 2.11-8.479 3.149l-.172-.469-.47.173c-1.581.582-3.16 1.161-4.737 1.736l-.469.171.171.47c-2.84 1.035-5.674 2.059-8.502 3.072l-.168-.47-.471.168c-1.57.562-3.137 1.121-4.702 1.676l-.472.167.168.471c-2.816.998-5.625 1.985-8.428 2.961l-.164-.472-.473.164c-1.579.549-3.157 1.095-4.732 1.638l-.473.163.163.472c-2.88.991-5.753 1.971-8.619 2.938l-.16-.473-.474.159c-1.589.536-3.177 1.069-4.762 1.598l-.474.158.158.474c-2.852.951-5.698 1.891-8.536 2.819l-.155-.476-.475.156c-1.576.514-3.15 1.025-4.721 1.532l-.476.154.154.476c-2.871.926-5.734 1.84-8.589 2.742l-.15-.477-.477.15c-1.61.508-3.218 1.012-4.823 1.513l-.477.148.149.478c-2.891.9-5.773 1.787-8.647 2.662l-.146-.478-.478.145c-1.595.485-3.187.966-4.777 1.443l-.479.144.144.479c-2.859.857-5.709 1.702-8.55 2.534l-.141-.48-.48.14c-1.612.472-3.222.939-4.829 1.403l-.481.138.139.48c-2.929.844-5.849 1.674-8.76 2.491l-.135-.482-.481.135c-1.614.453-3.225.901-4.833 1.344l-.482.133.133.482c-2.893.798-5.777 1.582-8.651 2.352l-.129-.483-.483.13c-1.597.427-3.19.85-4.78 1.269l-.483.127.127.483c-2.944.775-5.877 1.535-8.8 2.28l-.123-.484-.485.123c-1.633.416-3.262.827-4.889 1.234l-.485.121.122.485c-2.928.731-5.845 1.448-8.75 2.149l-.117-.486-.486.118c-1.613.388-3.222.772-4.828 1.152l-.487.115.115.487c-2.929.691-5.847 1.367-8.754 2.029l-.111-.488-.487.111c-1.652.375-3.299.745-4.943 1.11l-.488.108.108.488c-2.96.656-5.908 1.297-8.844 1.921l-.103-.489-.49.104c-1.628.345-3.252.686-4.873 1.022l-.49.101.102.49c-2.922.605-5.832 1.195-8.728 1.765l-.097-.49-.49.09c-1.669.33-3.333.66-4.993.97l-.491.1.094.49c-2.991.57-5.968 1.12-8.93 1.66l-.089-.49-.492.09c-1.643.29-3.281.58-4.914.87l-.493.09.086.49c-2.936.51-5.859 1.01-8.766 1.48l-.081-.49-.494.08c-1.67.27-3.336.54-4.997.8l-.494.08.078.49c-3.017.48-6.018.93-9.002 1.37l-.072-.5-.495.08c-1.654.24-3.303.47-4.946.7l-.496.07.069.49c-2.955.41-5.894.8-8.815 1.17l-.063-.49-.496.06c-1.6763.21-3.3469.42-5.0119.61l-.4965.06.0593.5c-3.0363.36-6.054.7-9.0527 1.02l-.0525-.5-.4972.05c-1.6616.18-3.3173.35-4.9672.51l-.4975.05.0489.5c-2.9655.29-5.9119.56-8.8388.8l-.0418-.49-.4982.04c-1.6966.14-3.3867.27-5.0701.4l-.4985.04.0379.5c-3.0456.23-6.0695.43-9.0715.62l-.0299-.5-.4991.03c-1.6633.1-3.3199.19-4.9696.27l-.4994.03.0258.5c-2.9937.15-5.9649.28-8.9132.38l-.0173-.49-.4997.01c-1.7033.06-3.399.11-5.0869.16l-.4999.01.0127.5c-3.0398.07-6.0545.12-9.0436.14l-.0033-.5-.5.01c-1.6566.01-3.3054.01-4.9462 0h-.5l-.0016.5c-3.0381-.01-6.0489-.05-9.0321-.12l.012-.5-.4998-.01c-1.69246-.04-3.37591-.09-5.05031-.15l-.49968-.02-.01747.5c-3.0126-.11-5.995957-.24-8.94955-.41l.02881-.5-.49916-.03c-1.64255-.09-3.27585-.2-4.89979-.31l-.49878-.04-.0347.5c-3.07997-.22-6.12627-.47-9.13857-.75l.0475-.5-.4977-.05c-1.6661-.15-3.3217-.32-4.9666-.5l-.4971-.06-.0541.5c-2.9823-.33-5.9297-.69-8.8416-1.09l.068-.49-.4953-.07c-1.6916-.23-3.3712-.48-5.0385-.73l-.4942-.08-.0756.49c-3.002-.46-5.9646-.96-8.8871-1.5l.0913-.49-.4916-.09c-1.6182-.3-3.224-.61-4.8173-.94l-.49-.1-.0994.49c-3.0174-.62-5.9899-1.28-8.917-1.98l.1172-.48-.486-.12c-1.6274-.39-3.2405-.8-4.8393-1.22l-.4837-.12-.1264.48c-2.9178-.77-5.7878-1.58-8.6093-2.44l.1459-.47-.4782-.15c-1.6253-.5-3.2344-1.01-4.827-1.53l-.4748-.16-.1565.48c-2.8657-.96-5.6784-1.956-8.437-3.002l.1782-.466-.4671-.179c-1.564-.597-3.1104-1.21-4.6391-1.837l-.4625-.19-.1897.462c-2.8281-1.17-5.5958-2.392-8.3018-3.667l.214-.451-.451-.214c-1.494-.709-2.969-1.434-4.425-2.175l-.446-.226-.226.444c-2.722-1.395-5.376-2.846-7.962-4.355l.253-.43-.431-.254c-1.438-.845-2.855-1.708-4.25-2.589l-.423-.266-.267.422c-2.555-1.625-5.038-3.31-7.447-5.054l.294-.404-.404-.294c-1.354-.988-2.684-1.995-3.99-3.021l-.394-.309-.308.393c-2.361-1.869-4.645-3.801-6.849-5.797l.336-.369-.369-.337c-1.237-1.129-2.449-2.278-3.635-3.447l-.356-.351-.351.355c-2.134-2.12-4.184-4.306-6.15-6.559l.377-.327-.327-.378c-1.09-1.258-2.152-2.537-3.188-3.836l-.312-.391-.39.311c-1.864-2.358-3.642-4.784-5.331-7.277l.414-.278-.278-.415c-.465-.692-.923-1.389-1.373-2.091-.451-.702-.895-1.408-1.331-2.119l-.261-.426-.426.261c-1.564-2.573-3.03-5.199-4.398-7.875l.445-.225-.226-.446c-.751-1.483-1.472-2.982-2.162-4.496l-.208-.454-.454.207c-1.231-2.725-2.366-5.5-3.406-8.323l.469-.17-.171-.47c-.57-1.565-1.11-3.145-1.622-4.74l-.153-.476-.475.153c-.898-2.835-1.705-5.716-2.422-8.641l.486-.117-.118-.486c-.389-1.615-.751-3.243-1.086-4.885l-.1-.49-.489.1c-.585-2.917-1.084-5.876-1.498-8.875l.495-.067-.067-.496c-.22-1.635-.415-3.282-.585-4.942l-.051-.497-.497.051c-.296-2.98-.512-5.997-.648-9.052l.499-.021-.021-.499c-.068-1.633-.114-3.275-.137-4.929l-.007-.5-.499.007c-.033-2.991.007-6.016.12-9.074l.499.02.02-.5c.065-1.651.152-3.312.259-4.983l.032-.499-.498-.032c.196-2.944.458-5.917.784-8.919l.497.055.055-.497c.185-1.667.39-3.343.615-5.027l.066-.496-.495-.066c.396-2.921.851-5.869 1.365-8.843l.492.086.086-.492c.285-1.628.587-3.264.907-4.907l.096-.491-.49-.095c.581-2.953 1.218-5.93 1.911-8.931l.487.113.113-.487c.369-1.584.753-3.174 1.153-4.77l.121-.485-.485-.122c.727-2.881 1.504-5.784 2.331-8.707l.48.137.137-.481c.462-1.622.939-3.251 1.431-4.886l.144-.479-.478-.144c.851-2.813 1.748-5.644 2.689-8.492l.474.157.158-.475c.521-1.57 1.056-3.146 1.604-4.727l.164-.473-.472-.163c.995-2.857 2.035-5.732 3.118-8.624l.467.176.176-.468c.573-1.523 1.158-3.052 1.755-4.585l.182-.466-.466-.181c1.077-2.756 2.193-5.526 3.348-8.31l.461.191.192-.461c.643-1.547 1.299-3.099 1.966-4.655l.197-.459-.459-.197c1.179-2.741 2.394-5.496 3.646-8.264l.456.206.206-.455c.678-1.494 1.366-2.992 2.065-4.494l.211-.454-.453-.211c1.264-2.708 2.562-5.43 3.895-8.163l.449.219.219-.449c.741-1.517 1.493-3.038 2.255-4.562l.224-.447-.447-.224c1.322-2.637 2.675-5.286 4.058-7.945l.444.231.231-.443c.764-1.465 1.537-2.933 2.32-4.404l.235-.441-.442-.235c1.415-2.654 2.86-5.318 4.336-7.992l.437.242.242-.438c.817-1.477 1.643-2.958 2.478-4.442l.245-.435-.435-.245c1.443-2.559 2.913-5.126 4.41-7.703l.432.252.252-.432c.834-1.433 1.676-2.868 2.527-4.306l.255-.431-.43-.254c1.537-2.594 3.101-5.197 4.693-7.808l.426.26.261-.426c.873-1.432 1.755-2.865 2.645-4.302l.263-.425-.425-.263c1.553-2.503 3.13-5.013 4.732-7.53l.421.269.269-.422c.892-1.4 1.791-2.801 2.698-4.205l.271-.421-.42-.271c1.637-2.532 3.299-5.072 4.985-7.618l.417.276.276-.417c.929-1.401 1.8654-2.805 2.809-4.21l.2787-.415-.415-.279c1.6437-2.446 3.3094-4.897 4.9968-7.355l.4119.284.2833-.412c.9395-1.367 1.8857-2.735 2.8387-4.106l.2855-.41-.4104-.286c1.7202-2.47 3.4622-4.947 5.2259-7.429l.4074.29.2898-.407c.9797-1.378 1.9661-2.757 2.9592-4.138l.292-.405-.4058-.292c1.7249-2.396 3.4699-4.797 5.2347-7.203l.403.296.2959-.403c.9795-1.334 1.9651-2.67 2.9568-4.007l.2979-.401-.4015-.298c1.7891-2.41 3.5978-4.824 5.4262-7.243l.3986.301.3017-.398c1.0159-1.343 2.0379-2.688 3.0659-4.033l.3035-.398-.3973-.303c1.8105-2.368 3.6396-4.74 5.4872-7.116l.3946.306.307-.394c1.0134-1.302 2.0324-2.606 3.0568-3.911l.3088-.393-.3932-.309c1.8471-2.35 3.712-4.704 5.5947-7.062l.3905.312.3121-.39c1.0465-1.31 2.0985-2.621 3.156-3.933l.3138-.389-.3892-.314c1.894-2.347 3.8055-4.699 5.7343-7.054l.3866.317.317-.386c1.0424-1.272 2.0899-2.545 3.1424-3.818l.3185-.386-.3853-.318c1.8963-2.293 3.809-4.589 5.7379-6.888l.3829.321.3215-.383c1.0726-1.277 2.1503-2.556 3.2329-3.835l.323-.382-.3816-.323c1.9536-2.307 3.9233-4.617 5.9092-6.93l.3792.326.3259-.379c1.09-1.269 2.1849-2.538 3.2846-3.808l.3273-.378-.378-.327c1.9389-2.238 3.8927-4.479 5.8614-6.722l.3756.33.33-.375c1.09526-1.247 2.19513-2.495 3.29957-3.744l.33128-.374-.37442-.331c1.9914-2.25 3.99768-4.502 6.018703-6.756l.372088.334.3339024-.372c1.1227266-1.251 2.2499766-2.503 3.3817566-3.756l.33521-.371-.37095-.335c2.00797-2.221 4.03015-4.445 6.06646-6.67l.36867.338.33773-.369c1.1151-1.218 2.2344-2.436 3.358-3.655l.3389-.368-.3676-.338c2.0244-2.195 4.0625-4.392 6.1141-6.59l.3654.341.3412-.365c1.1404-1.221 2.285-2.443 3.4338-3.665l.3424-.365-.3643-.342c2.0724-2.204 4.1583-4.409 6.2577-6.616l.3621.345.3447-.362c1.1488-1.207 2.3016-2.414 3.4585-3.622l.3458-.361-.361-.346c2.0536-2.143 4.1197-4.287 6.1984-6.432l.359.348.348-.359c1.1562-1.192 2.3162-2.385 3.4801-3.579l.3491-.358-.3579-.349c2.098-2.149 4.2084-4.3 6.3313-6.452l.3558.351.3512-.356c1.1793-1.195 2.3625-2.39 3.5494-3.585l.3523-.355-.3548-.352c2.1183-2.133 4.2488-4.266 6.3913-6.401l.3527.355.3543-.353c1.1704-1.165 2.3444-2.331 3.5219-3.497l.3553-.351-.3517-.356c2.1209-2.098 4.2535-4.198 6.3975-6.298l.3497.357.3573-.349c1.1918-1.167 2.3872-2.334 3.5862-3.501l.3582-.349-.3487-.358c2.1617-2.104 4.335-4.208 6.5196-6.313l.3468.36.3602-.347c1.213-1.168 2.4296-2.336 3.6497-3.504l.3611-.346-.3458-.361c2.1483-2.056 4.3074-4.113 6.4773-6.17l.3439.363.3629-.344c1.2034-1.14 2.41-2.281 3.62-3.421l.3639-.343-.3429-.364c2.1799-2.054 4.3709-4.108 6.5719-6.162l.341.366.366-.342c1.223-1.14 2.449-2.281 3.679-3.422l.366-.341-.34-.366c2.218-2.057 4.446-4.114 6.685-6.171l.338.369.368-.339c1.225-1.124 2.453-2.249 3.684-3.374l.369-.338-.337-.369c2.197-2.006 4.404-4.013 6.621-6.019l.335.371.371-.336c1.233-1.115 2.468-2.23 3.707-3.345l.371-.335-.334-.371c2.232-2.008 4.474-4.017 6.726-6.025l.333.374.373-.333c1.251-1.115 2.505-2.23 3.762-3.345l.374-.332-.332-.374c2.26-2.003 4.529-4.006 6.808-6.009l.33.376.376-.33c1.241-1.091 2.486-2.181 3.733-3.272l.377-.329-.329-.376c2.246-1.962 4.501-3.924 6.765-5.886l.327.378.378-.328c1.259-1.089 2.521-2.179 3.785-3.269l.379-.326-.327-.379c2.279-1.963 4.567-3.925 6.864-5.887l.324.38.38-.324c1.276-1.089 2.555-2.178 3.836-3.267l.381-.324-.324-.381c2.293-1.947 4.594-3.893 6.904-5.838l.322.382.382-.322c1.267-1.066 2.536-2.132 3.807-3.198l.384-.321-.321-.383c2.29-1.918 4.588-3.836 6.896-5.753l.319.385.385-.32c1.282-1.064 2.567-2.129 3.854-3.193l.386-.319-.319-.385c2.321-1.917 4.65-3.834 6.987-5.75l.317.387.387-.317c1.298-1.063 2.598-2.126 3.902-3.189l.387-.316-.316-.387c2.326-1.896 4.66-3.791 7.003-5.685l.314.389.389-.315c1.289-1.041 2.58-2.083 3.874-3.124l.39-.313-.314-.39c2.33-1.874 4.668-3.747 7.015-5.619l.311.391.391-.312c1.304-1.04 2.61-2.08 3.919-3.119l.392-.311-.311-.391c2.358-1.872 4.724-3.743 7.099-5.613l.309.393.393-.309c1.318-1.038 2.639-2.075 3.962-3.112l.394-.309-.308-.393c2.36-1.849 4.728-3.697 7.104-5.544l.307.395.395-.307c1.309-1.017 2.621-2.034 3.936-3.051l.395-.306-.306-.395c2.367-1.831 4.741-3.659 7.123-5.487l.304.397.397-.304c1.324-1.016 2.65-2.03 3.978-3.044l.397-.304-.303-.397c2.393-1.827 4.793-3.652 7.201-5.476l.302.398.399-.302c1.337-1.012 2.677-2.024 4.018-3.036l.4-.301-.301-.399c2.396-1.805 4.799-3.609 7.209-5.412l.299.401.401-.3c1.329-.993 2.66-1.986 3.993-2.978l.401-.299-.299-.401c2.401-1.786 4.809-3.571 7.224-5.354l.296.402.403-.297c1.342-.99 2.686-1.98 4.032-2.97l.403-.296-.297-.402c2.426-1.782 4.858-3.563 7.297-5.341l.295.404.404-.295c1.355-.987 2.711-1.974 4.07-2.96l.405-.294-.294-.404c2.432-1.765 4.871-3.527 7.316-5.288l.292.406.406-.292c1.346-.969 2.695-1.938 4.046-2.906l.406-.291-.291-.407c2.433-1.742 4.872-3.483 7.317-5.222l.29.407.407-.289c1.359-.966 2.72-1.932 4.083-2.896l.408-.289-.289-.408c2.456-1.738 4.918-3.473 7.386-5.206l.287.409.41-.288c1.371-.962 2.743-1.924 4.118-2.885l.41-.286-.286-.41c2.468-1.724 4.942-3.447 7.422-5.167l.285.411.411-.285c1.364-.945 2.729-1.89 4.096-2.834l.412-.284-.284-.412c2.462-1.699 4.93-3.396 7.405-5.091l.282.413.413-.283c1.375-.941 2.752-1.882 4.13-2.822l.414-.282-.282-.413c2.484-1.693 4.974-3.384 7.469-5.072l.28.414.415-.28c1.386-.938 2.774-1.875 4.164-2.811l.415-.279-.279-.415c2.503-1.685 5.013-3.368 7.529-5.049l.277.415.416-.277c1.38-.922 2.761-1.842 4.144-2.762l.416-.277-.277-.417c2.491-1.655 4.987-3.309 7.489-4.96l.275.417.417-.275c1.391-.917 2.783-1.834 4.177-2.749l.417-.275-.274-.418c2.511-1.649 5.027-3.295 7.549-4.939l.273.419.419-.273c1.401-.913 2.803-1.825 4.208-2.736l.419-.272-.272-.42c2.531-1.641 5.067-3.28 7.609-4.917l.271.421.42-.271c.706-.454 1.412-.908 2.119-1.362.706-.453 1.413-.907 2.12-1.36l.421-.27-.27-.42c2.546-1.631 5.091-3.256 7.637-4.874l.268.422.422-.268c1.413-.898 2.826-1.794 4.239-2.688l.422-.268-.267-.422c2.544-1.61 5.088-3.213 7.632-4.81l.266.424.424-.266c1.412-.887 2.825-1.771 4.237-2.654l.424-.265-.265-.424c2.543-1.588 5.085-3.17 7.627-4.745l.263.425.425-.264c1.412-.875 2.824-1.748 4.236-2.619l.425-.262-.262-.426c2.575-1.588 5.15-3.17 7.724-4.745l.261.426.426-.261c1.43-.874 2.859-1.747 4.289-2.618l.427-.26-.261-.427c2.574-1.567 5.148-3.127 7.721-4.682l.258.428.428-.258c1.429-.863 2.857-1.723 4.285-2.582l.429-.258-.258-.428c2.571-1.545 5.141-3.083 7.711-4.615l.256.429.429-.256c1.428-.851 2.855-1.699 4.282-2.546l.43-.255-.255-.43c2.596-1.54 5.192-3.073 7.786-4.6l.254.431.431-.253c1.446-.851 2.892-1.699 4.337-2.545l.431-.253-.252-.431c2.603-1.5237 5.206-3.0404 7.807-4.5504l.251.4324.432-.251c1.445-.838 2.889-1.6739 4.332-2.5077l.433-.2501-.25-.4329c2.599-1.5003 5.197-2.9939 7.794-4.4807l.248.4339.434-.2484c1.442-.8255 2.884-1.649 4.326-2.4704l.434-.2475-.247-.4344c2.618-1.4911 5.236-2.9752 7.851-4.4525l.246.4353.436-.2458c1.462-.8253 2.924-1.6485 4.385-2.4695l.436-.245-.245-.4358c2.632-1.4782 5.263-2.9493 7.893-4.4135l.243.4369.437-.2432c1.459-.8124 2.919-1.6226 4.378-2.4307l.437-.2423-.242-.4374c2.626-1.4539 5.251-2.9009 7.874-4.3408l.24.4383.439-.2405c1.457-.7994 2.913-1.5967 4.369-2.3918l.439-.2396-.239-.4388c2.642-1.4418 5.282-2.8765 7.92-4.304l.238.4397.44-.2377c1.478-.7993 2.956-1.5964 4.433-2.3911l.44-.2369-.237-.4403c2.661-1.4308 5.319-2.8543 7.976-4.2705l.235.4412.442-.2351c1.474-.7857 2.949-1.5692 4.422-2.3504l.442-.2342-.234-.4417c2.653-1.4055 5.304-2.8037 7.953-4.1946l.232.4427.443-.2324c1.471-.7721 2.942-1.5419 4.412-2.3096l.443-.2313-.231-.4432c2.667-1.3922 5.333-2.7769 7.996-4.1541l.23.4442.444-.2296c1.494-.7719 2.987-1.5414 4.479-2.3086l.445-.2286-.229-.4446c2.688-1.3811 5.374-2.7546 8.057-4.1203l.227.4456.446-.2267c1.489-.7577 2.978-1.513 4.466-2.266l.446-.2257-.226-.4461c2.679-1.3546 5.355-2.7014 8.029-4.0406l.223.447.447-.2237c1.486-.7435 2.97-1.4846 4.453-2.2232l.448-.2229-.223-.4475c2.697-1.342 5.391-2.6762 8.083-4.0024l.221.4485.448-.2209c1.509-.743 3.017-1.4835 4.524-2.2215l.449-.2198-.22-.449c2.715-1.3285 5.426-2.649 8.135-3.9613l.218.45.45-.2179c1.504-.7281 3.006-1.4536 4.508-2.17659l.451-.21693-.217-.45045c2.703-1.30058 5.403-2.59299 8.1-3.87738l.215.4514.451-.21485c1.498-.71307 2.996-1.42359 4.492-2.13164l.452-.21386-.214-.45187c2.73-1.29116 5.458-2.573939 8.182-3.84836l.211.45288.453-.2118c1.524-.7122 3.046-1.42175 4.567-2.12866l.453-.21077-.21-.45334c2.739-1.2724 5.475-2.53634 8.208-3.7917l.209.45433.454-.20857c1.517-.69641 3.033-1.39019 4.548-2.08139l.455-.20753-.208-.45482c2.726-1.243 5.448-2.4775 8.167-3.7033l.206.4558.456-.2054c1.51-.6806 3.019-1.3586 4.528-2.0339l.456-.2043-.204-.4563c2.769-1.2392 5.535-2.4696 8.297-3.691l.202.4573.457-.2021c1.537-.6792 3.072-1.3556 4.607-2.0292l.458-.201-.201-.4577c2.762-1.2122 5.521-2.4154 8.276-3.6095l.199.4587.459-.1988c1.529-.6624 3.057-1.3222 4.584-1.9791l.459-.1976-.197-.4592c2.747-1.1811 5.489-2.3531 8.228-3.5161l.195.4602.46-.1953c1.536-.6515 3.07-1.3001 4.602-1.946l.461-.1942-.194-.4607c2.802-1.1799 5.599-2.3503 8.392-3.5111l.192.4617.461-.1918c1.55-.6434 3.097-1.284 4.644-1.9216l.462-.1905-.191-.4622c2.784-1.147 5.564-2.2845 8.338-3.4123l.188.4631.463-.1881c1.541-.6258 3.08-1.2487 4.617-1.8686l.464-.1869-.187-.4637c2.774-1.1173 5.542-2.2249 8.306-3.3229l.184.4646.465-.1845c1.57-.6234 3.139-1.2436 4.706-1.8607l.465-.1832-.183-.4652c2.822-1.1109 5.64-2.2117 8.452-3.3023l.181.4662.466-.1807c1.56-.6046 3.119-1.206 4.676-1.8044l.466-.1793-.179-.4667c2.802-1.0758 5.598-2.1416 8.389-3.1972l.177.4677.467-.1767c1.55-.5858 3.099-1.1684 4.645-1.7479l.469-.1754-.176-.4681c2.832-1.0604 5.659-2.11 8.479-3.1491l.173.4691.469-.1727c1.581-.582 3.16-1.1606 4.737-1.7359l.47-.1713-.172-.4697c2.841-1.0351 5.675-2.0592 8.502-3.0726l.169.4707.471-.1686c1.569-.5619 3.136-1.1204 4.702-1.6756l.471-.1671-.167-.4712c2.816-.9977 5.625-1.9845 8.428-2.9605l.164.4722.472-.1643c1.58-.5494 3.157-1.0955 4.733-1.638l.472-.1628-.163-.4727c2.881-.9909 5.754-1.9702 8.62-2.9379l.16.4737.473-.1598c1.59-.5361 3.177-1.0686 4.762-1.5976l.474-.1583-.158-.4742c2.853-.951 5.698-1.8904 8.536-2.8181l.155.4753.475-.1552c1.576-.5146 3.15-1.0256 4.721-1.533l.476-.1537-.154-.4757c2.871-.9259 5.734-1.8398 8.589-2.7416l.15.4767.477-.1505c1.61-.508 3.218-1.0121 4.823-1.5124l.477-.1488-.148-.4773c2.89-.8999 5.773-1.7874 8.647-2.6624l.145.4783.478-.1454c1.595-.4849 3.187-.9659 4.777-1.4431l.479-.1438-.144-.4788c2.859-.8571 5.709-1.7016 8.551-2.5336l.14.4799.48-.1404c1.613-.4715 3.222-.939 4.83-1.4025l.48-.1385-.139-.4799c2.93-.844 5.85-1.674 8.76-2.491l.135.481.482-.134c1.614-.453 3.225-.901 4.833-1.344l.482-.134-.133-.481c2.891-.798 5.781-1.582 8.651-2.352l.13.483.48-.13c1.6-.427 3.19-.85 4.78-1.269l.48-.127-.12-.484c2.94-.774 5.87-1.534 8.8-2.279l.12.484.49-.123c1.63-.416 3.26-.827 4.88-1.234l.49-.121-.12-.485c2.93-.731 5.84-1.448 8.75-2.149l.11.486.49-.118c1.61-.388 3.22-.773 4.83-1.152l.49-.115-.12-.487c2.93-.691 5.85-1.367 8.75-2.029l.11.488.49-.111c1.65-.375 3.3-.745 4.95-1.11l.48-.108-.11-.488c2.97-.657 5.91-1.297 8.85-1.921l.1.489.49-.104c1.63-.345 3.25-.686 4.88-1.022l.48-.101-.1-.49c2.93-.604 5.83-1.191 8.73-1.763l.1.49.49-.096c1.67-.329 3.33-.652 4.99-.97l.49-.094-.09-.491c2.99-.571 5.97-1.125 8.93-1.661l.09.492.49-.089c1.64-.297 3.28-.588 4.91-.873l.5-.087-.09-.492c2.94-.512 5.86-1.007 8.77-1.484l.08.493.49-.08c1.67-.274 3.34-.541 5-.803l.49-.078-.08-.493c3.02-.474 6.02-.929 9.01-1.364l.07.495.49-.072c1.66-.241 3.31-.475 4.95-.704l.49-.068-.06-.495c2.95-.409 5.89-.799 8.81-1.17l.06.496.5-.063c1.68-.211 3.35-.417 5.01-.616l.5-.059-.06-.496c3.04-.361 6.05-.701 9.05-1.019l.05.497.5-.053c1.66-.175 3.32-.344 4.97-.507l.5-.049-.05-.497c2.96-.29 5.91-.558 8.84-.806l.04.498.5-.042c1.69-.142 3.38-.277 5.07-.405l.5-.038-.04-.498c3.04-.229 6.07-.435 9.07-.617l.03.498.5-.03c1.66-.099 3.32-.192 4.97-.277l.5-.026-.03-.499c2.99-.152 5.97-.28 8.91-.385l.02.5.5-.018c1.7-.059 3.4-.109 5.09-.152l.5-.013-.01-.5c3.03-.074 6.05-.122 9.04-.145v.5l.5-.003c1.66-.011 3.31-.014 4.95-.008l.5.001v-.499c3.04.013 6.05.053 9.03.122l-.01.499.5.012c1.69.041 3.38.091 5.05.149l.5.018.02-.5c3.01.109 5.99.247 8.95.414l-.03.499.5.029c1.64.094 3.27.198 4.9.311l.5.035.03-.498c3.08.218 6.13.469 9.14.752l-.05.498.5.047c1.67.159 3.32.329 4.97.508l.49.054.06-.496c2.98.329 5.93.691 8.84 1.087l-.07.495.5.069c1.69.232 3.37.476 5.03.731l.5.076.07-.494c3.01.464 5.97.966 8.89 1.504l-.09.491.49.091c1.62.301 3.23.613 4.82.937l.49.099.1-.489c3.02.618 5.99 1.277 8.92 1.978l-.12.485.48.118c1.63.392 3.24.798 4.84 1.216l.49.127.12-.484c2.92.77 5.79 1.582 8.61 2.438l-.14.477.48.146c1.62.497 3.23 1.008 4.82 1.533l.48.157.15-.474c2.87.952 5.68 1.951 8.44 2.997l-.18.466.47.179c1.56.597 3.11 1.21 4.64 1.837l.46.19.19-.462c2.83 1.17 5.6 2.392 8.3 3.667l-.21.451.45.214c1.49.709 2.97 1.434 4.42 2.175l.45.226.23-.445c2.72 1.396 5.37 2.847 7.96 4.356l-.25.43.43.254c1.43.845 2.85 1.708 4.25 2.588l.42.267.27-.422c2.55 1.625 5.03 3.309 7.44 5.0544l-.29.4032.4.2947c1.36.9877 2.69 1.9946 3.99 3.0207l.4.3088.31-.3924c2.36 1.8689 4.64 3.8011 6.84 5.7969l-.33.3686.37.3371c1.23 1.1287 2.45 2.2777 3.63 3.447l.36.351.35-.3554c2.13 2.1202 4.18 4.3066 6.15 6.5595l-.38.3267.33.3779c1.09 1.2582 2.15 2.5371 3.19 3.8367l.31.391z" stroke="url(#c)" class="UMNFEOGM_2"></path></g><style data-made-with="vivus-instant">.UMNFEOGM_0{stroke-dasharray:2546 2548;stroke-dashoffset:2547;animation:UMNFEOGM_draw_0 5200ms linear 0ms infinite,UMNFEOGM_fade 5200ms linear 0ms infinite;}.UMNFEOGM_1{stroke-dasharray:3596 3598;stroke-dashoffset:3597;animation:UMNFEOGM_draw_1 5200ms linear 0ms infinite,UMNFEOGM_fade 5200ms linear 0ms infinite;}.UMNFEOGM_2{stroke-dasharray:4487 4489;stroke-dashoffset:4488;animation:UMNFEOGM_draw_2 5200ms linear 0ms infinite,UMNFEOGM_fade 5200ms linear 0ms infinite;}@keyframes UMNFEOGM_draw{100%{stroke-dashoffset:0;}}@keyframes UMNFEOGM_fade{0%{stroke-opacity:1;}92.3076923076923%{stroke-opacity:1;}100%{stroke-opacity:0;}}@keyframes UMNFEOGM_draw_0{15.384615384615385%{stroke-dashoffset: 2547}53.84615384615385%{ stroke-dashoffset: 0;}100%{ stroke-dashoffset: 0;}}@keyframes UMNFEOGM_draw_1{25%{stroke-dashoffset: 3597}63.46153846153846%{ stroke-dashoffset: 0;}100%{ stroke-dashoffset: 0;}}@keyframes UMNFEOGM_draw_2{34.61538461538461%{stroke-dashoffset: 4488}73.07692307692307%{ stroke-dashoffset: 0;}100%{ stroke-dashoffset: 0;}}</style></svg>