<svg fill="none" height="33" viewBox="0 0 37 33" width="37" xmlns="http://www.w3.org/2000/svg" xmlns:xlink="http://www.w3.org/1999/xlink"><linearGradient id="a"><stop offset="0" stop-color="#1ecadc"/><stop offset="1" stop-color="#8af7fc" stop-opacity="0"/></linearGradient><linearGradient id="b" gradientUnits="userSpaceOnUse" x1="33.5" x2="27.5" xlink:href="#a" y1="23.5" y2="20"/><linearGradient id="c" gradientUnits="userSpaceOnUse" x1="23" x2="23" xlink:href="#a" y1="4.99997" y2="11.5"/><linearGradient id="d" gradientUnits="userSpaceOnUse" x1="22.5" x2="22.5" xlink:href="#a" y1="30.5" y2="22"/><linearGradient id="e" gradientUnits="userSpaceOnUse" x1="10" x2="18" xlink:href="#a" y1="24.5" y2="20.5"/><linearGradient id="f" gradientUnits="userSpaceOnUse" x1="34" x2="27.5" xlink:href="#a" y1="10.5" y2="15"/><linearGradient id="g" gradientUnits="userSpaceOnUse" x1="8.99902" x2="13.6335" xlink:href="#a" y1="7.99997" y2="13.7033"/><g stroke="#1ecadc"><path d="m23.6877 18.0341 11.2582.0417-5.6652 9.729z" fill="url(#b)"/><path d="m28.3454 6.47758-5.6746 9.72362-5.5836-9.77623z" fill="url(#c)"/><path d="m16.8909 28.7586 5.6747-9.7236 5.5835 9.7762z" fill="url(#d)"/><path d="m21.1919 18.3621-5.821 9.6366-5.43512-9.8595z" fill="url(#e)"/><path d="m23.8708 16.75 5.6292-9.75 5.6292 9.75z" fill="url(#f)"/><path d="m12.7349 3.64697 4.6324 10.97723-11.91213.2482z" fill="url(#g)"/></g></svg>