<svg fill="none" height="40" viewBox="0 0 40 40" width="40" xmlns="http://www.w3.org/2000/svg"><g stroke-linecap="round" stroke-linejoin="round"><path d="m37.1217 2-14.8483 11.0169 2.758-6.49982z" fill="#e2761b" stroke="#e2761b"/><g fill="#e4761b" stroke="#e4761b"><path d="m2.87842 2 14.71408 11.1213-2.6238-6.60422z"/><path d="m31.7846 27.5371-3.9506 6.0526 8.4527 2.3256 2.4151-8.244z"/><path d="m1.31299 27.6713 2.40016 8.244 8.45275-2.3256-3.93567-6.0526z"/><path d="m11.7036 17.3106-2.35546 3.563 8.37826.3727-.2833-9.0192z"/><path d="m28.2962 17.31-5.829-5.1879-.1938 9.1236 8.3782-.3727z"/><path d="m12.1655 33.5897 5.0538-2.4598-4.3531-3.3989z"/><path d="m22.7808 31.1299 5.0537 2.4598-.7006-5.8587z"/></g><path d="m27.834 33.5897-5.0537-2.4598.4025 3.2946-.0447 1.3864z" fill="#d7c1b3" stroke="#d7c1b3"/><path d="m12.166 33.5897 4.696 2.2212-.0298-1.3864.3876-3.2946z" fill="#d7c1b3" stroke="#d7c1b3"/><path d="m16.9516 25.5544-4.204-1.2373 2.9666-1.3567z" fill="#233447" stroke="#233447"/><path d="m23.0488 25.5544 1.2374-2.594 2.9815 1.3567z" fill="#233447" stroke="#233447"/><g fill="#cd6116" stroke="#cd6116"><path d="m12.1661 33.5902.7305-6.0526-4.66613.1342z"/><path d="m27.104 27.5376.7305 6.0526 3.9506-5.9184z"/><path d="m30.6521 20.8735-8.3782.3727.7752 4.3084 1.2374-2.594 2.9816 1.3566z"/><path d="m12.7476 24.3172 2.9667-1.3566 1.2373 2.594.7752-4.3084-8.37817-.3727z"/></g><g fill="#e4751f" stroke="#e4751f"><path d="m9.34814 20.8735 3.51826 6.8576-.1193-3.4139z"/><path d="m27.2675 24.3172-.1342 3.4139 3.5183-6.8576z"/><path d="m17.7264 21.2461-.7752 4.3084.9839 5.0835.2087-6.6936z"/><path d="m22.2736 21.2461-.4025 2.6834.1938 6.7085.9839-5.0835z"/></g><path d="m23.0484 25.5542-.9839 5.0836.7155.492 4.3531-3.399.1342-3.4139z" fill="#f6851b" stroke="#f6851b"/><path d="m12.7476 24.3169.1192 3.4139 4.3531 3.399.7156-.492-.9839-5.0836z" fill="#f6851b" stroke="#f6851b"/><path d="m23.1382 35.8111.0447-1.3864-.3727-.328h-5.6202l-.3578.328.0298 1.3864-4.696-2.2213 1.6399 1.3418 3.3393 2.3107h5.7097l3.3394-2.3107 1.6399-1.3418z" fill="#c0ad9e" stroke="#c0ad9e"/><path d="m22.7807 31.1301-.7155-.4919h-4.1295l-.7156.4919-.3876 3.2947.3578-.328h5.6203l.3727.328z" fill="#161616" stroke="#161616"/><path d="m37.7478 13.7325 1.2522-6.08243-1.8784-5.65007-14.3413 10.6442 5.5159 4.6662 7.7968 2.2809 1.7144-2.0126-.7454-.5367 1.1926-1.0883-.9094-.7155 1.1927-.9094z" fill="#763d16" stroke="#763d16"/><path d="m1 7.65007 1.26717 6.08243-.80503.5963 1.19263.9094-.90938.7155 1.19263 1.0883-.74539.5367 1.7144 2.0126 7.79677-2.2809 5.5159-4.6662-14.34131-10.6442z" fill="#763d16" stroke="#763d16"/><path d="m36.0929 19.5914-7.7968-2.2809 2.3555 3.563-3.5183 6.8576 4.6512-.0596h6.9173z" fill="#f6851b" stroke="#f6851b"/><path d="m11.7038 17.3105-7.79685 2.2809-2.59396 8.0801h6.91724l4.63637.0596-3.51828-6.8576z" fill="#f6851b" stroke="#f6851b"/><path d="m22.2736 21.246.5069-8.6018 2.251-6.12711h-10.0627l2.251 6.12711.5069 8.6018.1938 2.7133.0149 6.6787h4.1295l.0149-6.6787z" fill="#f6851b" stroke="#f6851b"/></g></svg>